<svg width="96" height="96" viewBox="0 0 96 96" fill="none" xmlns="http://www.w3.org/2000/svg">
<path d="M47.9989 3.41115e-06C60.8194 4.53779e-06 72.8738 4.99301 81.9393 14.0585C91.007 23.124 96 35.1785 96 47.9989C96 60.8194 91.007 72.876 81.9415 81.9415C72.876 91.007 60.8215 96 47.9989 96C35.1763 96 23.124 91.007 14.0585 81.9415C4.99301 72.876 1.06889e-05 60.8215 1.18039e-05 48.0011C1.29188e-05 35.1806 4.99302 23.1262 14.0585 14.0607C23.124 4.99301 35.1785 2.28452e-06 47.9989 3.41115e-06ZM47.9989 92.7386C59.9482 92.7386 71.1852 88.0846 79.6349 79.6349C88.0846 71.1852 92.7386 59.9504 92.7386 47.9989C92.7386 36.0475 88.0846 24.8127 79.6349 16.363C71.1852 7.91329 59.9504 3.2593 47.9989 3.2593C36.0475 3.25929 24.8127 7.91329 16.363 16.363C7.91329 24.8127 3.25931 36.0475 3.2593 47.9989C3.2593 59.9504 7.91329 71.183 16.363 79.6349C24.8148 88.0846 36.0496 92.7386 47.9989 92.7386Z" fill="url(#paint0_linear)"/>
<mask id="mask0" mask-type="alpha" maskUnits="userSpaceOnUse" x="16" y="16" width="64" height="64">
<circle cx="48" cy="48" r="32" fill="#C4C4C4"/>
</mask>
<g mask="url(#mask0)">
<path d="M35.5708 42.8933L47.9997 30.465L60.4352 42.8999L67.6671 35.6679L47.9997 16L28.3389 35.6614L35.5708 42.8933Z" fill="#F3BA2F"/>
<path d="M30.4638 47.9989L23.2319 40.767L15.9997 47.9992L23.2316 55.2311L30.4638 47.9989Z" fill="#F3BA2F"/>
<path d="M35.5712 53.1066L48.0001 65.535L60.435 53.1006L67.671 60.3285L67.6675 60.3326L48.0001 80L28.3387 60.3391L28.3286 60.329L35.5712 53.1066Z" fill="#F3BA2F"/>
<path d="M72.7688 55.2345L80.001 48.0023L72.7691 40.7704L65.5369 48.0026L72.7688 55.2345Z" fill="#F3BA2F"/>
<path d="M55.3355 47.9962H55.3385L47.9999 40.6576L42.5765 46.0809H42.576L41.9533 46.7042L40.6678 47.9896L40.6577 47.9997L40.6678 48.0104L47.9999 55.3424L55.3385 48.0038L55.3421 47.9997L55.3355 47.9962Z" fill="#F3BA2F"/>
</g>
<defs>
<linearGradient id="paint0_linear" x1="81.9411" y1="14.0588" x2="14.0588" y2="81.9411" gradientUnits="userSpaceOnUse">
<stop/>
<stop offset="1" stop-color="#515151"/>
</linearGradient>
</defs>
</svg>
