<svg width="96" height="96" viewBox="0 0 96 96" fill="none" xmlns="http://www.w3.org/2000/svg">
<path d="M47.9989 3.41115e-06C60.8194 4.53779e-06 72.8738 4.99301 81.9393 14.0585C91.007 23.124 96 35.1785 96 47.9989C96 60.8194 91.007 72.876 81.9415 81.9415C72.876 91.007 60.8215 96 47.9989 96C35.1763 96 23.124 91.007 14.0585 81.9415C4.99301 72.876 1.06889e-05 60.8215 1.18039e-05 48.0011C1.29188e-05 35.1806 4.99302 23.1262 14.0585 14.0607C23.124 4.99301 35.1785 2.28452e-06 47.9989 3.41115e-06ZM47.9989 92.7386C59.9482 92.7386 71.1852 88.0846 79.6349 79.6349C88.0846 71.1852 92.7386 59.9504 92.7386 47.9989C92.7386 36.0475 88.0846 24.8127 79.6349 16.363C71.1852 7.91329 59.9504 3.2593 47.9989 3.2593C36.0475 3.25929 24.8127 7.91329 16.363 16.363C7.91329 24.8127 3.25931 36.0475 3.2593 47.9989C3.2593 59.9504 7.91329 71.183 16.363 79.6349C24.8148 88.0846 36.0496 92.7386 47.9989 92.7386Z" fill="url(#paint0_linear)"/>
<mask id="mask0" mask-type="alpha" maskUnits="userSpaceOnUse" x="16" y="16" width="64" height="64">
<circle cx="48" cy="48" r="32" fill="#C4C4C4"/>
</mask>
<g mask="url(#mask0)">
</g>
<g clip-path="url(#clip0)">
<path d="M54.22 34.6851C54.22 25.5019 49.7932 17.5901 46.4025 15C46.4025 15 46.167 14.8587 46.167 15.2355C45.8844 32.9897 36.8896 37.8403 31.8977 44.2921C20.454 59.2679 31.0971 75.6564 41.9286 78.6704C48.0036 80.3657 40.5158 75.6564 39.5739 65.7668C38.4437 53.7579 54.22 44.6218 54.22 34.6851Z" fill="#282E5B"/>
<path d="M60.154 40.7601C60.1069 40.713 60.0127 40.713 59.9185 40.7601C59.9185 40.7601 59.9185 40.7601 59.8714 40.8072C59.683 43.0206 57.2342 47.8241 54.1731 52.2038C43.7654 67.0854 49.6992 74.2436 53.0428 78.1052C54.9737 80.3657 53.0428 78.1052 57.8935 75.7976C58.2702 75.6093 67.3122 70.8057 68.3011 59.9272C69.2901 49.3311 62.5557 42.6909 60.154 40.7601Z" fill="#059BDC"/>
</g>
<defs>
<linearGradient id="paint0_linear" x1="81.9411" y1="14.0588" x2="14.0588" y2="81.9411" gradientUnits="userSpaceOnUse">
<stop/>
<stop offset="1" stop-color="#515151"/>
</linearGradient>
<clipPath id="clip0">
<rect width="41.4422" height="64" fill="white" transform="translate(27 15)"/>
</clipPath>
</defs>
</svg>
