<svg width="500" height="265" viewBox="0 0 500 265" fill="none" xmlns="http://www.w3.org/2000/svg">
<mask id="mask0" mask-type="alpha" maskUnits="userSpaceOnUse" x="0" y="0" width="500" height="265">
<path d="M249.651 264.922L0 132.443L249.661 0L499.26 132.415L249.651 264.922Z" fill="black"/>
</mask>
<g mask="url(#mask0)">
<g opacity="0.95">
<g opacity="0.95">
<g opacity="0.95" filter="url(#filter0_i)">
<path d="M-313.049 298.602L313.412 -33.8016" stroke="black" stroke-miterlimit="10"/>
</g>
<g opacity="0.95" filter="url(#filter1_i)">
<path d="M-257.618 298.602L368.843 -33.8021" stroke="black" stroke-miterlimit="10"/>
</g>
<g opacity="0.95" filter="url(#filter2_i)">
<path d="M-202.189 298.602L424.272 -33.8021" stroke="black" stroke-miterlimit="10"/>
</g>
<g opacity="0.95" filter="url(#filter3_i)">
<path d="M-146.759 298.602L479.702 -33.8021" stroke="black" stroke-miterlimit="10"/>
</g>
<g opacity="0.95" filter="url(#filter4_i)">
<path d="M-91.3296 298.602L535.131 -33.8021" stroke="black" stroke-miterlimit="10"/>
</g>
<g opacity="0.95" filter="url(#filter5_i)">
<path d="M-35.8994 298.602L590.562 -33.8021" stroke="black" stroke-miterlimit="10"/>
</g>
<g opacity="0.95" filter="url(#filter6_i)">
<path d="M19.5293 298.602L645.99 -33.8021" stroke="black" stroke-miterlimit="10"/>
</g>
<g opacity="0.95" filter="url(#filter7_i)">
<path d="M74.96 298.602L701.421 -33.8021" stroke="black" stroke-miterlimit="10"/>
</g>
<g opacity="0.95" filter="url(#filter8_i)">
<path d="M130.389 298.602L756.851 -33.8021" stroke="black" stroke-miterlimit="10"/>
</g>
<g opacity="0.95" filter="url(#filter9_i)">
<path d="M185.82 298.602L812.281 -33.8021" stroke="black" stroke-miterlimit="10"/>
</g>
</g>
<g opacity="0.95">
<path opacity="0.95" d="M812.281 298.602L185.82 -33.8021" stroke="black" stroke-miterlimit="10"/>
<path opacity="0.95" d="M756.851 298.602L130.389 -33.8021" stroke="black" stroke-miterlimit="10"/>
<path opacity="0.95" d="M701.421 298.602L74.96 -33.8021" stroke="black" stroke-miterlimit="10"/>
<path opacity="0.95" d="M645.99 298.602L19.5293 -33.8021" stroke="black" stroke-miterlimit="10"/>
<path opacity="0.95" d="M590.562 298.602L-35.8994 -33.8021" stroke="black" stroke-miterlimit="10"/>
<path opacity="0.95" d="M535.131 298.602L-91.3296 -33.8021" stroke="black" stroke-miterlimit="10"/>
<path opacity="0.95" d="M479.702 298.602L-146.759 -33.8021" stroke="black" stroke-miterlimit="10"/>
<path opacity="0.95" d="M424.272 298.602L-202.189 -33.8021" stroke="black" stroke-miterlimit="10"/>
<path opacity="0.95" d="M368.843 298.602L-257.618 -33.8021" stroke="black" stroke-miterlimit="10"/>
<path opacity="0.95" d="M313.412 298.602L-313.049 -33.8016" stroke="black" stroke-miterlimit="10"/>
</g>
</g>
</g>
<g filter="url(#filter10_i)">
<path d="M136.608 90.3704C134.789 89.4038 134.793 87.8212 136.619 86.8535C138.445 85.8859 141.416 85.8869 143.223 86.8535C145.03 87.8202 145.026 89.4028 143.212 90.3704C141.4 91.337 138.427 91.337 136.608 90.3704Z" fill="black"/>
<path d="M136.608 60.54C134.789 59.5734 134.793 57.9907 136.619 57.0231C138.445 56.0555 141.416 56.0565 143.223 57.0231C145.03 57.9897 145.026 59.5724 143.212 60.54C141.4 61.5066 138.427 61.5066 136.608 60.54Z" fill="black"/>
<path d="M53.3609 162.446C51.5417 161.479 51.5461 159.896 53.3719 158.929C55.1977 157.961 58.169 157.962 59.9761 158.929C61.7831 159.895 61.7787 161.478 59.965 162.446C58.1514 163.413 55.18 163.412 53.3609 162.446Z" fill="black"/>
<path d="M81.2893 177.767C79.4702 176.801 79.4746 175.218 81.3004 174.25C83.1262 173.283 86.0975 173.284 87.9045 174.25C89.7116 175.217 89.7072 176.799 87.8935 177.767C86.0798 178.735 83.1085 178.734 81.2893 177.767Z" fill="black"/>
<path d="M162.358 134.297C160.539 133.33 160.543 131.748 162.369 130.78C164.195 129.812 167.166 129.813 168.973 130.78C170.78 131.747 170.776 133.329 168.962 134.297C167.149 135.265 164.177 135.264 162.358 134.297Z" fill="black"/>
<path d="M136.608 148.849C134.789 147.883 134.793 146.3 136.619 145.333C138.445 144.365 141.416 144.366 143.223 145.333C145.03 146.299 145.026 147.882 143.212 148.849C141.399 149.817 138.427 149.816 136.608 148.849Z" fill="black"/>
<path d="M26.7642 119.683C24.945 118.716 24.9494 117.134 26.7752 116.166C28.601 115.198 31.5723 115.199 33.3794 116.166C35.1864 117.132 35.182 118.715 33.3683 119.683C31.5547 120.65 28.5834 120.65 26.7642 119.683Z" fill="black"/>
<path d="M81.6038 119.205C79.7846 118.238 79.789 116.655 81.6148 115.688C83.4406 114.72 86.4119 114.721 88.219 115.688C90.026 116.654 90.0216 118.237 88.2079 119.205C86.3943 120.172 83.423 120.171 81.6038 119.205Z" fill="black"/>
<path d="M81.6038 148.849C79.7846 147.883 79.789 146.3 81.6148 145.333C83.4406 144.365 86.4119 144.366 88.219 145.333C90.026 146.299 90.0216 147.882 88.2079 148.849C86.3943 149.817 83.423 149.816 81.6038 148.849Z" fill="black"/>
<path d="M411.977 90.3706C410.158 89.404 410.162 87.8214 411.988 86.8538C413.813 85.8872 416.785 85.8872 418.592 86.8538C420.399 87.8204 420.395 89.403 418.581 90.3706C416.767 91.3373 413.796 91.3373 411.977 90.3706Z" fill="black"/>
<path d="M411.977 119.205C410.158 118.238 410.162 116.655 411.988 115.688C413.813 114.721 416.785 114.721 418.592 115.688C420.399 116.654 420.395 118.237 418.581 119.205C416.767 120.171 413.796 120.171 411.977 119.205Z" fill="black"/>
<path d="M411.977 148.849C410.158 147.883 410.162 146.3 411.988 145.332C413.813 144.366 416.785 144.366 418.592 145.332C420.399 146.299 420.395 147.882 418.581 148.849C416.767 149.816 413.796 149.816 411.977 148.849Z" fill="black"/>
<path d="M329.927 220.881C328.108 219.914 328.113 218.331 329.938 217.364C331.763 216.397 334.735 216.397 336.542 217.364C338.349 218.33 338.345 219.913 336.531 220.881C334.718 221.847 331.746 221.847 329.927 220.881Z" fill="black"/>
<path d="M136.608 177.684C134.789 176.717 134.793 175.134 136.619 174.168C138.444 173.201 141.416 173.201 143.223 174.168C145.03 175.134 145.026 176.717 143.212 177.684C141.4 178.65 138.427 178.65 136.608 177.684Z" fill="black"/>
<path d="M136.608 206.214C134.789 205.247 134.793 203.665 136.619 202.697C138.444 201.731 141.416 201.731 143.223 202.697C145.03 203.664 145.026 205.246 143.212 206.214C141.4 207.181 138.427 207.181 136.608 206.214Z" fill="black"/>
<path d="M191.612 148.849C189.793 147.883 189.797 146.3 191.623 145.332C193.448 144.366 196.42 144.366 198.227 145.332C200.034 146.299 200.03 147.882 198.216 148.849C196.403 149.817 193.431 149.816 191.612 148.849Z" fill="black"/>
<path d="M191.612 90.47C189.793 89.5033 189.797 87.9207 191.623 86.9531C193.448 85.9865 196.42 85.9865 198.227 86.9531C200.034 87.9197 200.03 89.5023 198.216 90.47C196.403 91.4376 193.431 91.4366 191.612 90.47Z" fill="black"/>
<path d="M191.612 60.6397C189.793 59.6731 189.797 58.0904 191.623 57.1228C193.448 56.1562 196.42 56.1562 198.227 57.1228C200.034 58.0894 200.03 59.672 198.216 60.6397C196.403 61.6073 193.431 61.6063 191.612 60.6397Z" fill="black"/>
<path d="M191.612 177.767C189.793 176.8 189.797 175.217 191.623 174.25C193.448 173.283 196.42 173.283 198.227 174.25C200.034 175.216 200.03 176.799 198.216 177.767C196.403 178.734 193.431 178.733 191.612 177.767Z" fill="black"/>
<path d="M246.918 206.272C245.099 205.305 245.103 203.722 246.929 202.755C248.754 201.788 251.726 201.788 253.533 202.755C255.34 203.721 255.336 205.304 253.522 206.272C251.709 207.239 248.737 207.238 246.918 206.272Z" fill="black"/>
<path d="M191.612 206.214C189.793 205.247 189.797 203.665 191.623 202.697C193.448 201.731 196.42 201.731 198.227 202.697C200.034 203.664 200.03 205.246 198.216 206.214C196.404 207.181 193.431 207.181 191.612 206.214Z" fill="black"/>
<path d="M247.004 90.3707C245.185 89.4041 245.19 87.8215 247.015 86.8538C248.84 85.8872 251.813 85.8872 253.62 86.8538C255.427 87.8204 255.422 89.4031 253.609 90.3707C251.796 91.3373 248.824 91.3373 247.004 90.3707Z" fill="black"/>
<path d="M247.004 119.205C245.185 118.238 245.19 116.655 247.015 115.688C248.84 114.721 251.813 114.721 253.62 115.688C255.427 116.654 255.422 118.237 253.609 119.205C251.796 120.171 248.824 120.171 247.004 119.205Z" fill="black"/>
<path d="M247.004 177.684C245.185 176.717 245.19 175.134 247.015 174.168C248.84 173.201 251.813 173.201 253.62 174.168C255.427 175.134 255.422 176.717 253.609 177.684C251.796 178.65 248.824 178.65 247.004 177.684Z" fill="black"/>
<path d="M247.004 61.1802C245.185 60.2136 245.19 58.6309 247.015 57.6633C248.84 56.6967 251.813 56.6967 253.62 57.6633C255.427 58.6299 255.422 60.2125 253.609 61.1802C251.796 62.1478 248.824 62.1478 247.004 61.1802Z" fill="black"/>
<path d="M330.703 162.446C328.884 161.479 328.888 159.896 330.714 158.929C332.54 157.961 335.511 157.962 337.318 158.929C339.125 159.895 339.121 161.478 337.307 162.446C335.494 163.412 332.522 163.412 330.703 162.446Z" fill="black"/>
<path d="M302.397 148.849C300.578 147.883 300.582 146.3 302.408 145.333C304.234 144.365 307.205 144.366 309.012 145.333C310.819 146.299 310.814 147.882 309.001 148.849C307.187 149.816 304.216 149.816 302.397 148.849Z" fill="black"/>
<path d="M302.397 177.684C300.578 176.717 300.582 175.134 302.408 174.168C304.232 173.201 307.205 173.201 309.012 174.168C310.819 175.134 310.814 176.717 309.001 177.684C307.187 178.65 304.216 178.65 302.397 177.684Z" fill="black"/>
<path d="M302.397 206.214C300.578 205.247 300.582 203.665 302.408 202.697C304.232 201.731 307.205 201.731 309.012 202.697C310.819 203.664 310.814 205.246 309.001 206.214C307.187 207.181 304.216 207.181 302.397 206.214Z" fill="black"/>
<path d="M357.788 90.3706C355.968 89.404 355.973 87.8214 357.799 86.8538C359.623 85.8872 362.596 85.8872 364.403 86.8538C366.21 87.8204 366.205 89.403 364.392 90.3706C362.579 91.3373 359.607 91.3373 357.788 90.3706Z" fill="black"/>
<path d="M384.232 104.366C382.413 103.399 382.417 101.817 384.243 100.849C386.068 99.8826 389.04 99.8826 390.847 100.849C392.654 101.816 392.65 103.398 390.836 104.366C389.024 105.333 386.051 105.333 384.232 104.366Z" fill="black"/>
<path d="M357.788 148.849C355.968 147.883 355.973 146.3 357.799 145.332C359.623 144.366 362.596 144.366 364.403 145.332C366.21 146.299 366.205 147.882 364.392 148.849C362.579 149.816 359.607 149.816 357.788 148.849Z" fill="black"/>
<path d="M467.241 118.262C465.422 117.296 465.426 115.713 467.252 114.745C469.077 113.779 472.049 113.779 473.856 114.745C475.663 115.712 475.659 117.295 473.845 118.262C472.033 119.229 469.06 119.229 467.241 118.262Z" fill="black"/>
<path d="M413.324 178.123C411.505 177.156 411.509 175.574 413.335 174.606C415.159 173.639 418.132 173.639 419.939 174.606C421.746 175.573 421.742 177.155 419.928 178.123C418.115 179.09 415.143 179.09 413.324 178.123Z" fill="black"/>
<path d="M357.788 177.684C355.968 176.717 355.973 175.134 357.799 174.168C359.623 173.201 362.596 173.201 364.403 174.168C366.21 175.134 366.205 176.717 364.392 177.684C362.579 178.65 359.607 178.65 357.788 177.684Z" fill="black"/>
<path d="M440.607 134.217C438.788 133.25 438.793 131.667 440.618 130.7C442.444 129.732 445.416 129.733 447.223 130.7C449.03 131.666 449.025 133.249 447.212 134.217C445.399 135.183 442.427 135.183 440.607 134.217Z" fill="black"/>
<path d="M357.788 61.1801C355.968 60.2135 355.973 58.6308 357.799 57.6632C359.623 56.6966 362.596 56.6966 364.403 57.6632C366.21 58.6298 366.205 60.2125 364.392 61.1801C362.579 62.1477 359.607 62.1477 357.788 61.1801Z" fill="black"/>
</g>
<path d="M415.106 93.6767V117.064" stroke="black" stroke-width="4" stroke-miterlimit="10"/>
<path d="M415.066 99.4115C419.779 99.4115 423.599 95.9019 423.599 91.5726C423.599 87.2433 419.779 83.7337 415.066 83.7337C410.353 83.7337 406.532 87.2433 406.532 91.5726C406.532 95.9019 410.353 99.4115 415.066 99.4115Z" fill="url(#paint0_linear)"/>
<path d="M332.8 197.238V220.625" stroke="black" stroke-width="4" stroke-miterlimit="10"/>
<path d="M332.8 203.391C336.5 203.391 339.499 200.636 339.499 197.238C339.499 193.84 336.5 191.085 332.8 191.085C329.1 191.085 326.101 193.84 326.101 197.238C326.101 200.636 329.1 203.391 332.8 203.391Z" fill="url(#paint1_linear)"/>
<path d="M333.134 138.076V161.463" stroke="black" stroke-width="4" stroke-miterlimit="10"/>
<path d="M84.8833 123.824V147.211" stroke="black" stroke-width="4" stroke-miterlimit="10"/>
<path d="M333.134 137.371C345.726 137.371 355.933 127.996 355.933 116.432C355.933 104.867 345.726 95.4921 333.134 95.4921C320.543 95.4921 310.335 104.867 310.335 116.432C310.335 127.996 320.543 137.371 333.134 137.371Z" fill="url(#paint2_linear)"/>
<path d="M84.9706 125.779C89.6836 125.779 93.5042 122.269 93.5042 117.94C93.5042 113.611 89.6836 110.101 84.9706 110.101C80.2576 110.101 76.437 113.611 76.437 117.94C76.437 122.269 80.2576 125.779 84.9706 125.779Z" fill="url(#paint3_linear)"/>
<path d="M165.828 109.619V133.008" stroke="black" stroke-width="4" stroke-miterlimit="10"/>
<path d="M194.919 153.446V176.835" stroke="black" stroke-width="4" stroke-miterlimit="10"/>
<path d="M416.405 154.515V177.903" stroke="black" stroke-width="4" stroke-miterlimit="10"/>
<path d="M305.451 154.427V177.816" stroke="black" stroke-width="4" stroke-miterlimit="10"/>
<path d="M305.451 165.26C311.965 165.26 317.246 160.41 317.246 154.427C317.246 148.444 311.965 143.594 305.451 143.594C298.937 143.594 293.656 148.444 293.656 154.427C293.656 160.41 298.937 165.26 305.451 165.26Z" fill="url(#paint4_linear)"/>
<path d="M139.821 153.359V176.746" stroke="black" stroke-width="4" stroke-miterlimit="10"/>
<path d="M139.821 164.191C146.335 164.191 151.616 159.341 151.616 153.358C151.616 147.376 146.335 142.525 139.821 142.525C133.307 142.525 128.026 147.376 128.026 153.358C128.026 159.341 133.307 164.191 139.821 164.191Z" fill="url(#paint5_linear)"/>
<path d="M250.187 138.078V176.792" stroke="black" stroke-width="4" stroke-miterlimit="10"/>
<path d="M250.03 136.349C264.86 136.349 276.883 125.306 276.883 111.683C276.883 98.0602 264.86 87.0167 250.03 87.0167C235.2 87.0167 223.178 98.0602 223.178 111.683C223.178 125.306 235.2 136.349 250.03 136.349Z" fill="url(#paint6_linear)"/>
<path d="M165.846 120.434C174.093 120.434 180.779 114.292 180.779 106.716C180.779 99.1396 174.093 92.9978 165.846 92.9978C157.598 92.9978 150.912 99.1396 150.912 106.716C150.912 114.292 157.598 120.434 165.846 120.434Z" fill="url(#paint7_linear)"/>
<path d="M194.849 155.9C198.549 155.9 201.548 153.145 201.548 149.747C201.548 146.349 198.549 143.594 194.849 143.594C191.149 143.594 188.15 146.349 188.15 149.747C188.15 153.145 191.149 155.9 194.849 155.9Z" fill="url(#paint8_linear)"/>
<path d="M416.334 153.406C420.034 153.406 423.034 150.651 423.034 147.253C423.034 143.855 420.034 141.1 416.334 141.1C412.635 141.1 409.635 143.855 409.635 147.253C409.635 150.651 412.635 153.406 416.334 153.406Z" fill="url(#paint9_linear)"/>
<defs>
<filter id="filter0_i" x="-313.283" y="-34.2433" width="626.93" height="333.787" filterUnits="userSpaceOnUse" color-interpolation-filters="sRGB">
<feFlood flood-opacity="0" result="BackgroundImageFix"/>
<feBlend mode="normal" in="SourceGraphic" in2="BackgroundImageFix" result="shape"/>
<feColorMatrix in="SourceAlpha" type="matrix" values="0 0 0 0 0 0 0 0 0 0 0 0 0 0 0 0 0 0 127 0" result="hardAlpha"/>
<feOffset dy="4"/>
<feGaussianBlur stdDeviation="0.25"/>
<feComposite in2="hardAlpha" operator="arithmetic" k2="-1" k3="1"/>
<feColorMatrix type="matrix" values="0 0 0 0 0.7875 0 0 0 0 0.7875 0 0 0 0 0.7875 0 0 0 0.25 0"/>
<feBlend mode="normal" in2="shape" result="effect1_innerShadow"/>
</filter>
<filter id="filter1_i" x="-257.853" y="-34.2437" width="626.93" height="333.787" filterUnits="userSpaceOnUse" color-interpolation-filters="sRGB">
<feFlood flood-opacity="0" result="BackgroundImageFix"/>
<feBlend mode="normal" in="SourceGraphic" in2="BackgroundImageFix" result="shape"/>
<feColorMatrix in="SourceAlpha" type="matrix" values="0 0 0 0 0 0 0 0 0 0 0 0 0 0 0 0 0 0 127 0" result="hardAlpha"/>
<feOffset dy="4"/>
<feGaussianBlur stdDeviation="0.25"/>
<feComposite in2="hardAlpha" operator="arithmetic" k2="-1" k3="1"/>
<feColorMatrix type="matrix" values="0 0 0 0 0.7875 0 0 0 0 0.7875 0 0 0 0 0.7875 0 0 0 0.25 0"/>
<feBlend mode="normal" in2="shape" result="effect1_innerShadow"/>
</filter>
<filter id="filter2_i" x="-202.424" y="-34.2437" width="626.93" height="333.787" filterUnits="userSpaceOnUse" color-interpolation-filters="sRGB">
<feFlood flood-opacity="0" result="BackgroundImageFix"/>
<feBlend mode="normal" in="SourceGraphic" in2="BackgroundImageFix" result="shape"/>
<feColorMatrix in="SourceAlpha" type="matrix" values="0 0 0 0 0 0 0 0 0 0 0 0 0 0 0 0 0 0 127 0" result="hardAlpha"/>
<feOffset dy="4"/>
<feGaussianBlur stdDeviation="0.25"/>
<feComposite in2="hardAlpha" operator="arithmetic" k2="-1" k3="1"/>
<feColorMatrix type="matrix" values="0 0 0 0 0.7875 0 0 0 0 0.7875 0 0 0 0 0.7875 0 0 0 0.25 0"/>
<feBlend mode="normal" in2="shape" result="effect1_innerShadow"/>
</filter>
<filter id="filter3_i" x="-146.993" y="-34.2437" width="626.93" height="333.787" filterUnits="userSpaceOnUse" color-interpolation-filters="sRGB">
<feFlood flood-opacity="0" result="BackgroundImageFix"/>
<feBlend mode="normal" in="SourceGraphic" in2="BackgroundImageFix" result="shape"/>
<feColorMatrix in="SourceAlpha" type="matrix" values="0 0 0 0 0 0 0 0 0 0 0 0 0 0 0 0 0 0 127 0" result="hardAlpha"/>
<feOffset dy="4"/>
<feGaussianBlur stdDeviation="0.25"/>
<feComposite in2="hardAlpha" operator="arithmetic" k2="-1" k3="1"/>
<feColorMatrix type="matrix" values="0 0 0 0 0.7875 0 0 0 0 0.7875 0 0 0 0 0.7875 0 0 0 0.25 0"/>
<feBlend mode="normal" in2="shape" result="effect1_innerShadow"/>
</filter>
<filter id="filter4_i" x="-91.564" y="-34.2437" width="626.93" height="333.787" filterUnits="userSpaceOnUse" color-interpolation-filters="sRGB">
<feFlood flood-opacity="0" result="BackgroundImageFix"/>
<feBlend mode="normal" in="SourceGraphic" in2="BackgroundImageFix" result="shape"/>
<feColorMatrix in="SourceAlpha" type="matrix" values="0 0 0 0 0 0 0 0 0 0 0 0 0 0 0 0 0 0 127 0" result="hardAlpha"/>
<feOffset dy="4"/>
<feGaussianBlur stdDeviation="0.25"/>
<feComposite in2="hardAlpha" operator="arithmetic" k2="-1" k3="1"/>
<feColorMatrix type="matrix" values="0 0 0 0 0.7875 0 0 0 0 0.7875 0 0 0 0 0.7875 0 0 0 0.25 0"/>
<feBlend mode="normal" in2="shape" result="effect1_innerShadow"/>
</filter>
<filter id="filter5_i" x="-36.1338" y="-34.2437" width="626.93" height="333.787" filterUnits="userSpaceOnUse" color-interpolation-filters="sRGB">
<feFlood flood-opacity="0" result="BackgroundImageFix"/>
<feBlend mode="normal" in="SourceGraphic" in2="BackgroundImageFix" result="shape"/>
<feColorMatrix in="SourceAlpha" type="matrix" values="0 0 0 0 0 0 0 0 0 0 0 0 0 0 0 0 0 0 127 0" result="hardAlpha"/>
<feOffset dy="4"/>
<feGaussianBlur stdDeviation="0.25"/>
<feComposite in2="hardAlpha" operator="arithmetic" k2="-1" k3="1"/>
<feColorMatrix type="matrix" values="0 0 0 0 0.7875 0 0 0 0 0.7875 0 0 0 0 0.7875 0 0 0 0.25 0"/>
<feBlend mode="normal" in2="shape" result="effect1_innerShadow"/>
</filter>
<filter id="filter6_i" x="19.2949" y="-34.2437" width="626.93" height="333.787" filterUnits="userSpaceOnUse" color-interpolation-filters="sRGB">
<feFlood flood-opacity="0" result="BackgroundImageFix"/>
<feBlend mode="normal" in="SourceGraphic" in2="BackgroundImageFix" result="shape"/>
<feColorMatrix in="SourceAlpha" type="matrix" values="0 0 0 0 0 0 0 0 0 0 0 0 0 0 0 0 0 0 127 0" result="hardAlpha"/>
<feOffset dy="4"/>
<feGaussianBlur stdDeviation="0.25"/>
<feComposite in2="hardAlpha" operator="arithmetic" k2="-1" k3="1"/>
<feColorMatrix type="matrix" values="0 0 0 0 0.7875 0 0 0 0 0.7875 0 0 0 0 0.7875 0 0 0 0.25 0"/>
<feBlend mode="normal" in2="shape" result="effect1_innerShadow"/>
</filter>
<filter id="filter7_i" x="74.7256" y="-34.2437" width="626.93" height="333.787" filterUnits="userSpaceOnUse" color-interpolation-filters="sRGB">
<feFlood flood-opacity="0" result="BackgroundImageFix"/>
<feBlend mode="normal" in="SourceGraphic" in2="BackgroundImageFix" result="shape"/>
<feColorMatrix in="SourceAlpha" type="matrix" values="0 0 0 0 0 0 0 0 0 0 0 0 0 0 0 0 0 0 127 0" result="hardAlpha"/>
<feOffset dy="4"/>
<feGaussianBlur stdDeviation="0.25"/>
<feComposite in2="hardAlpha" operator="arithmetic" k2="-1" k3="1"/>
<feColorMatrix type="matrix" values="0 0 0 0 0.7875 0 0 0 0 0.7875 0 0 0 0 0.7875 0 0 0 0.25 0"/>
<feBlend mode="normal" in2="shape" result="effect1_innerShadow"/>
</filter>
<filter id="filter8_i" x="130.155" y="-34.2437" width="626.931" height="333.787" filterUnits="userSpaceOnUse" color-interpolation-filters="sRGB">
<feFlood flood-opacity="0" result="BackgroundImageFix"/>
<feBlend mode="normal" in="SourceGraphic" in2="BackgroundImageFix" result="shape"/>
<feColorMatrix in="SourceAlpha" type="matrix" values="0 0 0 0 0 0 0 0 0 0 0 0 0 0 0 0 0 0 127 0" result="hardAlpha"/>
<feOffset dy="4"/>
<feGaussianBlur stdDeviation="0.25"/>
<feComposite in2="hardAlpha" operator="arithmetic" k2="-1" k3="1"/>
<feColorMatrix type="matrix" values="0 0 0 0 0.7875 0 0 0 0 0.7875 0 0 0 0 0.7875 0 0 0 0.25 0"/>
<feBlend mode="normal" in2="shape" result="effect1_innerShadow"/>
</filter>
<filter id="filter9_i" x="185.585" y="-34.2437" width="626.93" height="333.787" filterUnits="userSpaceOnUse" color-interpolation-filters="sRGB">
<feFlood flood-opacity="0" result="BackgroundImageFix"/>
<feBlend mode="normal" in="SourceGraphic" in2="BackgroundImageFix" result="shape"/>
<feColorMatrix in="SourceAlpha" type="matrix" values="0 0 0 0 0 0 0 0 0 0 0 0 0 0 0 0 0 0 127 0" result="hardAlpha"/>
<feOffset dy="4"/>
<feGaussianBlur stdDeviation="0.25"/>
<feComposite in2="hardAlpha" operator="arithmetic" k2="-1" k3="1"/>
<feColorMatrix type="matrix" values="0 0 0 0 0.7875 0 0 0 0 0.7875 0 0 0 0 0.7875 0 0 0 0.25 0"/>
<feBlend mode="normal" in2="shape" result="effect1_innerShadow"/>
</filter>
<filter id="filter10_i" x="25.4028" y="56.2978" width="449.806" height="167.308" filterUnits="userSpaceOnUse" color-interpolation-filters="sRGB">
<feFlood flood-opacity="0" result="BackgroundImageFix"/>
<feBlend mode="normal" in="SourceGraphic" in2="BackgroundImageFix" result="shape"/>
<feColorMatrix in="SourceAlpha" type="matrix" values="0 0 0 0 0 0 0 0 0 0 0 0 0 0 0 0 0 0 127 0" result="hardAlpha"/>
<feOffset dy="4"/>
<feGaussianBlur stdDeviation="1"/>
<feComposite in2="hardAlpha" operator="arithmetic" k2="-1" k3="1"/>
<feColorMatrix type="matrix" values="0 0 0 0 0.9875 0 0 0 0 0.9875 0 0 0 0 0.9875 0 0 0 0.25 0"/>
<feBlend mode="normal" in2="shape" result="effect1_innerShadow"/>
</filter>
<linearGradient id="paint0_linear" x1="409.032" y1="86.0294" x2="420.076" y2="98.0529" gradientUnits="userSpaceOnUse">
<stop stop-color="#FF8B71"/>
<stop offset="0.704" stop-color="#C33F50"/>
<stop offset="1" stop-color="#A81E41"/>
</linearGradient>
<linearGradient id="paint1_linear" x1="328.063" y1="192.887" x2="336.732" y2="202.326" gradientUnits="userSpaceOnUse">
<stop stop-color="#FF8B71"/>
<stop offset="0.704" stop-color="#C33F50"/>
<stop offset="1" stop-color="#A81E41"/>
</linearGradient>
<linearGradient id="paint2_linear" x1="317.013" y1="101.625" x2="346.518" y2="133.751" gradientUnits="userSpaceOnUse">
<stop stop-color="#FF8B71"/>
<stop offset="0.704" stop-color="#C33F50"/>
<stop offset="1" stop-color="#A81E41"/>
</linearGradient>
<linearGradient id="paint3_linear" x1="78.9364" y1="112.397" x2="89.9823" y2="124.422" gradientUnits="userSpaceOnUse">
<stop stop-color="#FF8B71"/>
<stop offset="0.704" stop-color="#C33F50"/>
<stop offset="1" stop-color="#A81E41"/>
</linearGradient>
<linearGradient id="paint4_linear" x1="297.11" y1="146.767" x2="312.376" y2="163.389" gradientUnits="userSpaceOnUse">
<stop stop-color="#FF8B71"/>
<stop offset="0.704" stop-color="#C33F50"/>
<stop offset="1" stop-color="#A81E41"/>
</linearGradient>
<linearGradient id="paint5_linear" x1="131.481" y1="145.698" x2="146.746" y2="162.319" gradientUnits="userSpaceOnUse">
<stop stop-color="#FF8B71"/>
<stop offset="0.704" stop-color="#C33F50"/>
<stop offset="1" stop-color="#A81E41"/>
</linearGradient>
<linearGradient id="paint6_linear" x1="231.043" y1="94.2414" x2="265.801" y2="132.079" gradientUnits="userSpaceOnUse">
<stop stop-color="#FF8B71"/>
<stop offset="0.704" stop-color="#C33F50"/>
<stop offset="1" stop-color="#A81E41"/>
</linearGradient>
<linearGradient id="paint7_linear" x1="155.286" y1="97.0181" x2="174.614" y2="118.059" gradientUnits="userSpaceOnUse">
<stop stop-color="#FF8B71"/>
<stop offset="0.704" stop-color="#C33F50"/>
<stop offset="1" stop-color="#A81E41"/>
</linearGradient>
<linearGradient id="paint8_linear" x1="190.112" y1="145.398" x2="198.781" y2="154.836" gradientUnits="userSpaceOnUse">
<stop stop-color="#FF8B71"/>
<stop offset="0.704" stop-color="#C33F50"/>
<stop offset="1" stop-color="#A81E41"/>
</linearGradient>
<linearGradient id="paint9_linear" x1="411.598" y1="142.903" x2="420.267" y2="152.342" gradientUnits="userSpaceOnUse">
<stop stop-color="#FF8B71"/>
<stop offset="0.704" stop-color="#C33F50"/>
<stop offset="1" stop-color="#A81E41"/>
</linearGradient>
</defs>
</svg>
