<svg width="66" height="66" viewBox="0 0 66 66" fill="none" xmlns="http://www.w3.org/2000/svg">
<rect width="66" height="66" rx="33" fill="white"/>
<path d="M28.0707 40.7465L28.8162 37.8093C28.8162 37.7201 28.7725 37.6308 28.685 37.6308H14.5687C14.4795 37.6308 14.4375 37.5415 14.4375 37.4522L21.7143 10.4018C21.7143 10.358 21.8036 10.3125 21.8456 10.3125H29.692C34.9958 10.3125 38.3276 11.7588 40.3881 13.8192C41.4007 14.877 42.1873 16.1299 42.6998 17.5017C43.2123 18.8734 43.44 20.3352 43.369 21.7978C43.3742 23.4373 43.1076 25.0664 42.5798 26.6187C42.1478 27.9506 41.512 29.2076 40.6952 30.345C40.6514 30.4343 40.6952 30.5646 40.7845 30.5646H51.219C51.2456 30.5617 51.2725 30.5675 51.2956 30.5812C51.3186 30.595 51.3365 30.6158 51.3466 30.6407C51.3567 30.6655 51.3584 30.693 51.3515 30.7189C51.3446 30.7448 51.3294 30.7678 51.3082 30.7842L23.99 57.5365C23.9689 57.5563 23.9419 57.5687 23.9132 57.5718C23.8844 57.5749 23.8555 57.5686 23.8306 57.5538C23.8058 57.5389 23.7865 57.5164 23.7756 57.4896C23.7647 57.4628 23.7629 57.4332 23.7703 57.4053L28.0707 40.7465Z" fill="url(#paint0_radial)"/>
<defs>
<radialGradient id="paint0_radial" cx="0" cy="0" r="1" gradientUnits="userSpaceOnUse" gradientTransform="translate(27.7867 41.1733) scale(38.0405 38.0444)">
<stop stop-color="#41BEF0"/>
<stop offset="0.469" stop-color="#828CBE"/>
<stop offset="0.54" stop-color="#8F80AE"/>
<stop offset="0.794" stop-color="#BC5A79"/>
<stop offset="0.917" stop-color="#CD4B64"/>
</radialGradient>
</defs>
</svg>
