<svg width="68" height="68" viewBox="0 0 68 68" fill="none" xmlns="http://www.w3.org/2000/svg">
<path d="M34 0C15.1455 0 0 15.1455 0 34C0 52.8545 15.1455 68 34 68C52.8545 68 68 52.8545 68 34C67.6909 15.1455 52.5455 0 34 0ZM37.0909 39.5636C38.0182 40.4909 38.6364 41.4182 38.6364 42.9636C38.6364 45.4364 36.4727 47.6 34 47.6C32.7636 47.6 31.5273 46.9818 30.6 46.0545C29.0545 44.8182 27.2 43.8909 24.7273 43.8909C22.2545 43.8909 20.4 44.8182 18.8545 46.0545L18.5455 46.3636C17.6182 46.9818 16.6909 47.6 15.4545 47.6C14.2182 47.6 13.2909 47.2909 12.3636 46.3636C12.0545 46.0545 12.0545 46.0545 11.7455 45.7455C11.7455 45.7455 11.7455 45.7455 11.7455 45.4364L11.4364 45.1273C11.4364 44.8182 11.1273 44.5091 11.1273 44.2C11.1273 43.8909 10.8182 43.2727 10.8182 42.9636C10.8182 42.3455 10.8182 42.0364 11.1273 41.7273C11.1273 41.4182 11.4364 41.1091 11.4364 40.8C11.4364 40.8 11.4364 40.4909 11.7455 40.4909C11.7455 40.4909 11.7455 40.4909 11.7455 40.1818C12.3636 40.1818 12.3636 40.1818 12.3636 39.8727L12.6727 39.5636C13.9091 38.0182 14.8364 36.1636 14.8364 34C14.8364 31.8364 14.2182 29.9818 12.6727 28.4364C12.0545 27.5091 11.4364 26.2727 11.4364 24.7273C11.4364 22.2545 13.6 20.0909 16.0727 20.0909C18.5455 20.0909 20.4 22.2545 20.4 24.7273C20.4 25.9636 19.7818 27.2 18.8545 28.1273C17.6182 29.6727 16.6909 31.8364 16.6909 34C16.6909 36.1636 17.6182 38.3273 18.8545 39.8727L19.1636 40.1818C20.7091 41.4182 22.5636 42.3455 24.7273 42.3455C26.8909 42.3455 28.7455 41.7273 30.2909 40.1818C30.2909 39.8727 30.6 39.8727 30.9091 39.5636C32.1455 38.0182 33.0727 36.1636 33.0727 34C33.0727 31.8364 32.4545 29.9818 30.9091 28.4364C29.9818 27.5091 29.3636 26.2727 29.3636 24.7273C29.3636 22.2545 31.5273 20.0909 34 20.0909C36.4727 20.0909 38.6364 22.2545 38.6364 24.7273C38.6364 25.9636 38.0182 27.2 37.0909 28.1273C35.8545 29.6727 34.9273 31.5273 34.9273 34C34.9273 36.1636 35.5455 38.0182 37.0909 39.5636ZM42.9636 38.3273C40.4909 38.3273 38.3273 36.1636 38.3273 33.6909C38.3273 31.2182 40.4909 29.0545 42.9636 29.0545C45.4364 29.0545 47.6 31.2182 47.6 33.6909C47.6 36.4727 45.4364 38.3273 42.9636 38.3273ZM55.0182 39.5636C55.3273 39.8727 55.3273 39.8727 55.0182 39.5636C55.3273 40.1818 55.6364 40.1818 55.6364 40.1818C55.6364 40.1818 55.6364 40.1818 55.6364 40.4909L55.9455 40.8C55.9455 41.1091 56.2545 41.4182 56.2545 41.7273C56.2545 42.0364 56.5636 42.6545 56.5636 42.9636C56.5636 43.5818 56.5636 43.8909 56.2545 44.2C56.2545 44.5091 55.9455 44.8182 55.9455 45.1273C55.9455 45.1273 55.9455 45.4364 55.6364 45.4364C55.6364 45.4364 55.6364 45.4364 55.6364 45.7455C55.3273 46.0545 55.3273 46.0545 55.0182 46.3636C54.0909 46.9818 53.1636 47.6 51.9273 47.6C50.6909 47.6 49.7636 47.2909 48.8364 46.3636C48.5273 46.0545 48.5273 46.0545 48.2182 45.7455C48.2182 45.7455 48.2182 45.7455 48.2182 45.4364L47.9091 45.1273C47.9091 44.8182 47.6 44.5091 47.6 44.2C47.6 43.8909 47.2909 43.2727 47.2909 42.9636C47.2909 42.3455 47.2909 42.0364 47.6 41.7273C47.6 41.4182 47.9091 41.1091 47.9091 40.8C47.9091 40.8 47.9091 40.4909 48.2182 40.4909C48.2182 40.4909 48.2182 40.4909 48.2182 40.1818L48.5273 39.8727L48.8364 39.5636C50.0727 38.0182 51 36.1636 51 34C51 31.8364 50.3818 29.9818 48.8364 28.4364C47.9091 27.5091 47.2909 26.2727 47.2909 25.0364C47.2909 22.5636 49.4545 20.4 51.9273 20.4C54.4 20.4 56.5636 22.5636 56.5636 25.0364C56.5636 26.2727 55.9454 27.5091 55.0182 28.4364C53.7818 29.9818 52.8545 31.8364 52.8545 34.3091C52.8545 36.1636 53.7818 38.0182 55.0182 39.5636Z" fill="#F8E19A"/>
</svg>
