<svg width="102" height="102" viewBox="0 0 102 102" fill="none" xmlns="http://www.w3.org/2000/svg">
<g clip-path="url(#clip0)">
<path d="M50.9989 -0.000137996C64.6206 -0.000136799 77.4285 5.30494 87.0606 14.937C96.6949 24.5691 102 37.377 102 50.9987C102 64.6205 96.6949 77.4306 87.0628 87.0627C77.4307 96.6948 64.6229 102 50.9989 102C37.3748 102 24.5693 96.6948 14.9372 87.0627C5.30507 77.4306 5.45605e-06 64.6227 6.64073e-06 51.001C7.82541e-06 37.3793 5.30508 24.5714 14.9372 14.9393C24.5693 5.30493 37.3771 -0.000139193 50.9989 -0.000137996ZM50.9989 98.5346C63.695 98.5346 75.6343 93.5897 84.6121 84.6119C93.5899 75.6341 98.5347 63.6972 98.5347 50.9987C98.5347 38.3003 93.5899 26.3633 84.6121 17.3855C75.6343 8.40773 63.6973 3.46286 50.9989 3.46286C38.3004 3.46286 26.3635 8.40773 17.3857 17.3855C8.40787 26.3633 3.46301 38.3003 3.463 50.9987C3.463 63.6971 8.40786 75.6318 17.3857 84.6119C26.3658 93.5897 38.3027 98.5346 50.9989 98.5346Z" fill="url(#paint0_linear)"/>
<ellipse cx="50.9998" cy="51.0001" rx="47.4828" ry="47.4827" fill="#171717"/>
<mask id="mask0" mask-type="alpha" maskUnits="userSpaceOnUse" x="33" y="25" width="40" height="52">
<path d="M33.2964 25.2081H72.5964V76.7919H33.2964V57.224H43.9898V43.8584H33.2964V25.2081Z" fill="#171717"/>
</mask>
<g mask="url(#mask0)">
<path d="M43.86 27.2548L57.6584 27.5855C64.3841 27.7467 69.7524 33.2452 69.7524 39.9729C69.7524 43.8334 67.3521 47.2869 63.7337 48.6325L46.6406 54.9888C45.1879 55.529 44.1551 55.9126 43.3401 56.1741C42.5254 56.4354 42.0396 56.5368 41.6776 56.5611C38.7973 56.7544 36.1673 54.9264 35.3445 52.1594C35.2411 51.8116 35.1668 51.3209 35.1278 50.4662C35.0888 49.6112 35.0884 48.5095 35.0884 46.9596V35.8188C35.0884 33.4419 35.1013 32.575 35.2642 31.9069C35.8233 29.6144 37.6399 27.8409 39.9451 27.3369C40.6169 27.19 41.4838 27.1979 43.86 27.2548Z" stroke="white" stroke-width="3.58594"/>
<path d="M43.86 27.2548L57.6584 27.5855C64.3841 27.7467 69.7524 33.2452 69.7524 39.9729C69.7524 43.8334 67.3521 47.2869 63.7337 48.6325L46.6406 54.9888C45.1879 55.529 44.1551 55.9126 43.3401 56.1741C42.5254 56.4354 42.0396 56.5368 41.6776 56.5611C38.7973 56.7544 36.1673 54.9264 35.3445 52.1594C35.2411 51.8116 35.1668 51.3209 35.1278 50.4662C35.0888 49.6112 35.0884 48.5095 35.0884 46.9596V35.8188C35.0884 33.4419 35.1013 32.575 35.2642 31.9069C35.8233 29.6144 37.6399 27.8409 39.9451 27.3369C40.6169 27.19 41.4838 27.1979 43.86 27.2548Z" stroke="url(#paint1_linear)" stroke-width="3.58594"/>
<path opacity="0.8" d="M57.1782 49.158L63.1104 46.952C65.3195 46.1305 66.9653 44.3342 67.6335 42.1588L67.6739 42.1355L69.8342 45.8772C68.5714 47.8699 66.6745 49.4525 64.3603 50.3131L58.9967 52.3076L57.1782 49.158Z" fill="url(#paint2_linear)"/>
<path opacity="0.8" d="M46.3462 53.1863L58.3246 48.7319L60.143 51.8816L48.1646 56.3359L46.3462 53.1863Z" fill="url(#paint3_linear)"/>
<path d="M43.861 74.1616L57.6594 73.8309C64.3851 73.6697 69.7534 68.1712 69.7534 61.4435C69.7534 57.583 67.3531 54.1295 63.7347 52.7839L46.6416 46.4276C45.1889 45.8874 44.1561 45.5038 43.3411 45.2423C42.5264 44.981 42.0406 44.8796 41.6786 44.8553C38.7983 44.662 36.1683 46.4899 35.3455 49.257C35.2421 49.6048 35.1678 50.0954 35.1288 50.9501C35.0898 51.8052 35.0894 52.9069 35.0894 54.4568V65.5976C35.0894 67.9745 35.1023 68.8414 35.2652 69.5095C35.8243 71.802 37.6408 73.5755 39.946 74.0795C40.6179 74.2264 41.4848 74.2185 43.861 74.1616Z" stroke="white" stroke-width="3.58594"/>
<path d="M43.861 74.1616L57.6594 73.8309C64.3851 73.6697 69.7534 68.1712 69.7534 61.4435C69.7534 57.583 67.3531 54.1295 63.7347 52.7839L46.6416 46.4276C45.1889 45.8874 44.1561 45.5038 43.3411 45.2423C42.5264 44.981 42.0406 44.8796 41.6786 44.8553C38.7983 44.662 36.1683 46.4899 35.3455 49.257C35.2421 49.6048 35.1678 50.0954 35.1288 50.9501C35.0898 51.8052 35.0894 52.9069 35.0894 54.4568V65.5976C35.0894 67.9745 35.1023 68.8414 35.2652 69.5095C35.8243 71.802 37.6408 73.5755 39.946 74.0795C40.6179 74.2264 41.4848 74.2185 43.861 74.1616Z" stroke="url(#paint4_linear)" stroke-width="3.58594"/>
</g>
<mask id="mask1" mask-type="alpha" maskUnits="userSpaceOnUse" x="33" y="51" width="4" height="21">
<path opacity="0.7" d="M36.8756 71.1512L33.2959 71.6638V51.1659L36.8756 59.1198V71.1512Z" fill="url(#paint5_linear)"/>
</mask>
<g mask="url(#mask1)">
<rect x="33.2959" y="55.9659" width="3.58594" height="13.0936" fill="url(#paint6_linear)"/>
</g>
<mask id="mask2" mask-type="alpha" maskUnits="userSpaceOnUse" x="33" y="30" width="4" height="21">
<path opacity="0.7" d="M36.8818 30.7225L33.2959 30.2098V50.7078L36.8818 42.7539V30.7225Z" fill="url(#paint7_linear)"/>
</mask>
<g mask="url(#mask2)">
<rect width="3.58594" height="13.0936" transform="matrix(1 0 0 -1 33.2959 45.9076)" fill="url(#paint8_linear)"/>
</g>
<mask id="mask3" mask-type="alpha" maskUnits="userSpaceOnUse" x="29" y="42" width="35" height="18">
<mask id="path-12-inside-1" mask-type="luminance" fill="white">
<path d="M45.0895 57.4866L45.0894 57.4866C41.853 58.6904 40.2348 59.2923 38.9316 59.3786C34.7786 59.6536 30.9864 57.0272 29.7603 53.0412L29.7758 53.0925L29.7524 53.0156C29.755 53.0241 29.7576 53.0326 29.7603 53.0412L29.7107 52.8778C29.6519 52.6845 29.4881 52.1326 29.4518 51.8797C29.4053 51.556 29.4053 51.1906 29.4053 51.1906V50.8895C29.4515 49.8553 29.5445 49.102 29.7317 48.4691C30.9264 44.43 34.7458 41.7598 38.9316 42.0369C40.2348 42.1232 41.853 42.7251 45.0894 43.9289L45.0895 43.9289L63.3148 50.7078L45.0895 57.4866Z"/>
</mask>
<path d="M29.7764 53.0945L31.4918 52.5728L31.4908 52.5694L29.7764 53.0945ZM28.0173 53.4674C28.0243 53.4942 28.0309 53.5169 28.036 53.534C28.0385 53.5423 28.0406 53.549 28.042 53.5534C28.0427 53.5555 28.0432 53.5573 28.0436 53.5584C28.0438 53.5589 28.0439 53.5594 28.044 53.5596C28.044 53.5598 28.0441 53.5599 28.0441 53.56C28.0441 53.56 28.0441 53.56 28.0441 53.56C28.0441 53.56 28.0441 53.5601 28.0441 53.5601C28.0441 53.5601 28.0441 53.5601 28.0441 53.5601C28.0441 53.5601 28.0441 53.5601 28.0441 53.5601C28.0443 53.5606 28.0432 53.5573 28.042 53.5534C28.0406 53.549 28.0385 53.5423 28.036 53.534C28.0309 53.5169 28.0243 53.4942 28.0173 53.4674L31.4875 52.5637C31.4805 52.5369 31.474 52.5142 31.4688 52.4971C31.4663 52.4888 31.4642 52.4821 31.4628 52.4777C31.4621 52.4756 31.4616 52.4738 31.4612 52.4727C31.4611 52.4722 31.4609 52.4717 31.4608 52.4715C31.4608 52.4713 31.4608 52.4712 31.4607 52.4711C31.4607 52.4711 31.4607 52.4711 31.4607 52.4711C31.4607 52.4711 31.4607 52.471 31.4607 52.471C31.4607 52.471 31.4607 52.471 31.4607 52.471C31.4607 52.471 31.4607 52.471 31.4607 52.471C31.4605 52.4705 31.4616 52.4738 31.4628 52.4777C31.4642 52.4821 31.4663 52.4888 31.4688 52.4971C31.474 52.5142 31.4805 52.5369 31.4875 52.5637L28.0173 53.4674ZM28.0615 53.6176L28.0621 53.6196L31.4908 52.5694L31.4902 52.5674L28.0615 53.6176ZM28.061 53.6161L28.0621 53.6198L31.493 52.5765L31.4918 52.5728L28.061 53.6161ZM45.0895 57.4866L46.2956 60.8636L46.3177 60.8557L46.3396 60.8476L45.0895 57.4866ZM45.0894 57.4866L43.8833 54.1096L43.8613 54.1175L43.8393 54.1256L45.0894 57.4866ZM38.9316 59.3786L39.1685 62.9567L39.1685 62.9567L38.9316 59.3786ZM29.7524 53.0156L33.1829 51.9713L26.3219 54.0597L29.7524 53.0156ZM45.0895 43.9289L43.8304 47.2866L43.8394 47.2899L45.0895 43.9289ZM45.0894 43.9289L46.3485 40.5713L46.3395 40.5679L45.0894 43.9289ZM38.9316 42.0369L38.6947 45.615L38.9316 42.0369ZM29.7317 48.4691L33.1703 49.4863L33.1703 49.4863L29.7317 48.4691ZM63.3148 50.7078L64.5649 54.0687L73.6011 50.7078L64.5649 47.3468L63.3148 50.7078ZM29.4053 50.8895L25.8229 50.7294L25.8193 50.8094V50.8895H29.4053ZM29.7107 52.8778L33.1419 51.8359L33.1419 51.8359L29.7107 52.8778ZM29.4518 51.8797L25.9022 52.3893L25.9022 52.3893L29.4518 51.8797ZM29.4053 51.1906L25.8193 51.1906L25.8193 51.1906L29.4053 51.1906ZM29.7758 53.0925L26.3453 54.1367L33.2072 52.0509L29.7758 53.0925ZM43.8834 54.1096L43.8833 54.1096L46.2955 60.8637L46.2956 60.8636L43.8834 54.1096ZM43.8393 54.1256C42.1895 54.7393 41.0659 55.1563 40.1904 55.437C39.3156 55.7176 38.9117 55.7861 38.6946 55.8005L39.1685 62.9567C40.2547 62.8848 41.3115 62.6092 42.3807 62.2663C43.4492 61.9236 44.7529 61.4377 46.3395 60.8476L43.8393 54.1256ZM26.3219 54.0598C26.3255 54.0717 26.3292 54.0836 26.3328 54.0955L33.1877 51.9869C33.1861 51.9817 33.1845 51.9765 33.1829 51.9713L26.3219 54.0598ZM26.3328 54.0955C28.0444 59.6597 33.3455 63.3423 39.1685 62.9567L38.6947 55.8005C36.2117 55.9649 33.9284 54.3947 33.1877 51.9869L26.3328 54.0955ZM46.3486 40.5713L46.3485 40.5713L43.8303 47.2865L43.8304 47.2865L46.3486 40.5713ZM46.3395 40.5679C44.7529 39.9778 43.4492 39.4919 42.3807 39.1492C41.3115 38.8063 40.2547 38.5307 39.1685 38.4588L38.6947 45.615C38.9117 45.6294 39.3156 45.6979 40.1904 45.9785C41.0659 46.2593 42.1895 46.6762 43.8393 47.2899L46.3395 40.5679ZM33.1703 49.4863C33.8922 47.0457 36.192 45.4493 38.6947 45.615L39.1685 38.4588C33.2995 38.0702 27.9607 41.8143 26.293 47.4519L33.1703 49.4863ZM64.5649 47.3468L46.3396 40.5679L43.8394 47.2899L62.0647 54.0687L64.5649 47.3468ZM62.0647 47.3468L43.8394 54.1256L46.3396 60.8476L64.5649 54.0687L62.0647 47.3468ZM32.9876 51.0495C33.0294 50.1149 33.1063 49.7027 33.1703 49.4863L26.293 47.4519C25.9826 48.5012 25.8735 49.5957 25.8229 50.7294L32.9876 51.0495ZM33.1419 51.8359C33.1171 51.7544 33.0725 51.6045 33.0324 51.4575C33.0123 51.3838 32.9977 51.3267 32.9887 51.2889C32.9844 51.2707 32.9835 51.2659 32.9849 51.2724C32.9855 51.2756 32.9929 51.3115 33.0013 51.3701L25.9022 52.3893C25.9867 52.9777 26.2548 53.8385 26.2794 53.9197L33.1419 51.8359ZM33.0013 51.3701C33.0018 51.3733 32.9969 51.3318 32.9935 51.2558C32.9922 51.2256 32.9916 51.2008 32.9913 51.1865C32.9912 51.1796 32.9912 51.1759 32.9912 51.1762C32.9912 51.1764 32.9912 51.1776 32.9912 51.18C32.9912 51.1811 32.9912 51.1826 32.9912 51.1844C32.9912 51.1852 32.9912 51.1862 32.9912 51.1872C32.9912 51.1877 32.9912 51.1883 32.9912 51.1888C32.9912 51.1891 32.9912 51.1894 32.9912 51.1897C32.9912 51.1898 32.9912 51.19 32.9912 51.1901C32.9912 51.1903 32.9912 51.1906 29.4053 51.1906C25.8193 51.1906 25.8193 51.1908 25.8193 51.1911C25.8193 51.1911 25.8193 51.1914 25.8193 51.1915C25.8193 51.1918 25.8193 51.1921 25.8193 51.1925C25.8193 51.1931 25.8193 51.1938 25.8193 51.1945C25.8193 51.1959 25.8193 51.1973 25.8193 51.1989C25.8194 51.2021 25.8194 51.2056 25.8194 51.2096C25.8194 51.2174 25.8195 51.2268 25.8196 51.2376C25.8197 51.2591 25.8201 51.2866 25.8207 51.319C25.8219 51.3833 25.8241 51.4701 25.8286 51.5717C25.8369 51.7593 25.8553 52.0624 25.9022 52.3893L33.0013 51.3701ZM32.9912 51.1906V50.8895H25.8193V51.1906H32.9912ZM26.3219 54.0597L26.3453 54.1367L33.2064 52.0484L33.183 51.9714L26.3219 54.0597ZM26.2794 53.9197L26.329 54.0831L33.1915 51.9993L33.1419 51.8359L26.2794 53.9197ZM26.3289 54.0828L26.3445 54.1341L33.2072 52.0509L33.1916 51.9996L26.3289 54.0828Z" fill="white" mask="url(#path-12-inside-1)"/>
<path d="M29.7764 53.0945L31.4918 52.5728L31.4908 52.5694L29.7764 53.0945ZM28.0173 53.4674C28.0243 53.4942 28.0309 53.5169 28.036 53.534C28.0385 53.5423 28.0406 53.549 28.042 53.5534C28.0427 53.5555 28.0432 53.5573 28.0436 53.5584C28.0438 53.5589 28.0439 53.5594 28.044 53.5596C28.044 53.5598 28.0441 53.5599 28.0441 53.56C28.0441 53.56 28.0441 53.56 28.0441 53.56C28.0441 53.56 28.0441 53.5601 28.0441 53.5601C28.0441 53.5601 28.0441 53.5601 28.0441 53.5601C28.0441 53.5601 28.0441 53.5601 28.0441 53.5601C28.0443 53.5606 28.0432 53.5573 28.042 53.5534C28.0406 53.549 28.0385 53.5423 28.036 53.534C28.0309 53.5169 28.0243 53.4942 28.0173 53.4674L31.4875 52.5637C31.4805 52.5369 31.474 52.5142 31.4688 52.4971C31.4663 52.4888 31.4642 52.4821 31.4628 52.4777C31.4621 52.4756 31.4616 52.4738 31.4612 52.4727C31.4611 52.4722 31.4609 52.4717 31.4608 52.4715C31.4608 52.4713 31.4608 52.4712 31.4607 52.4711C31.4607 52.4711 31.4607 52.4711 31.4607 52.4711C31.4607 52.4711 31.4607 52.471 31.4607 52.471C31.4607 52.471 31.4607 52.471 31.4607 52.471C31.4607 52.471 31.4607 52.471 31.4607 52.471C31.4605 52.4705 31.4616 52.4738 31.4628 52.4777C31.4642 52.4821 31.4663 52.4888 31.4688 52.4971C31.474 52.5142 31.4805 52.5369 31.4875 52.5637L28.0173 53.4674ZM28.0615 53.6176L28.0621 53.6196L31.4908 52.5694L31.4902 52.5674L28.0615 53.6176ZM28.061 53.6161L28.0621 53.6198L31.493 52.5765L31.4918 52.5728L28.061 53.6161ZM45.0895 57.4866L46.2956 60.8636L46.3177 60.8557L46.3396 60.8476L45.0895 57.4866ZM45.0894 57.4866L43.8833 54.1096L43.8613 54.1175L43.8393 54.1256L45.0894 57.4866ZM38.9316 59.3786L39.1685 62.9567L39.1685 62.9567L38.9316 59.3786ZM29.7524 53.0156L33.1829 51.9713L26.3219 54.0597L29.7524 53.0156ZM45.0895 43.9289L43.8304 47.2866L43.8394 47.2899L45.0895 43.9289ZM45.0894 43.9289L46.3485 40.5713L46.3395 40.5679L45.0894 43.9289ZM38.9316 42.0369L38.6947 45.615L38.9316 42.0369ZM29.7317 48.4691L33.1703 49.4863L33.1703 49.4863L29.7317 48.4691ZM63.3148 50.7078L64.5649 54.0687L73.6011 50.7078L64.5649 47.3468L63.3148 50.7078ZM29.4053 50.8895L25.8229 50.7294L25.8193 50.8094V50.8895H29.4053ZM29.7107 52.8778L33.1419 51.8359L33.1419 51.8359L29.7107 52.8778ZM29.4518 51.8797L25.9022 52.3893L25.9022 52.3893L29.4518 51.8797ZM29.4053 51.1906L25.8193 51.1906L25.8193 51.1906L29.4053 51.1906ZM29.7758 53.0925L26.3453 54.1367L33.2072 52.0509L29.7758 53.0925ZM43.8834 54.1096L43.8833 54.1096L46.2955 60.8637L46.2956 60.8636L43.8834 54.1096ZM43.8393 54.1256C42.1895 54.7393 41.0659 55.1563 40.1904 55.437C39.3156 55.7176 38.9117 55.7861 38.6946 55.8005L39.1685 62.9567C40.2547 62.8848 41.3115 62.6092 42.3807 62.2663C43.4492 61.9236 44.7529 61.4377 46.3395 60.8476L43.8393 54.1256ZM26.3219 54.0598C26.3255 54.0717 26.3292 54.0836 26.3328 54.0955L33.1877 51.9869C33.1861 51.9817 33.1845 51.9765 33.1829 51.9713L26.3219 54.0598ZM26.3328 54.0955C28.0444 59.6597 33.3455 63.3423 39.1685 62.9567L38.6947 55.8005C36.2117 55.9649 33.9284 54.3947 33.1877 51.9869L26.3328 54.0955ZM46.3486 40.5713L46.3485 40.5713L43.8303 47.2865L43.8304 47.2865L46.3486 40.5713ZM46.3395 40.5679C44.7529 39.9778 43.4492 39.4919 42.3807 39.1492C41.3115 38.8063 40.2547 38.5307 39.1685 38.4588L38.6947 45.615C38.9117 45.6294 39.3156 45.6979 40.1904 45.9785C41.0659 46.2593 42.1895 46.6762 43.8393 47.2899L46.3395 40.5679ZM33.1703 49.4863C33.8922 47.0457 36.192 45.4493 38.6947 45.615L39.1685 38.4588C33.2995 38.0702 27.9607 41.8143 26.293 47.4519L33.1703 49.4863ZM64.5649 47.3468L46.3396 40.5679L43.8394 47.2899L62.0647 54.0687L64.5649 47.3468ZM62.0647 47.3468L43.8394 54.1256L46.3396 60.8476L64.5649 54.0687L62.0647 47.3468ZM32.9876 51.0495C33.0294 50.1149 33.1063 49.7027 33.1703 49.4863L26.293 47.4519C25.9826 48.5012 25.8735 49.5957 25.8229 50.7294L32.9876 51.0495ZM33.1419 51.8359C33.1171 51.7544 33.0725 51.6045 33.0324 51.4575C33.0123 51.3838 32.9977 51.3267 32.9887 51.2889C32.9844 51.2707 32.9835 51.2659 32.9849 51.2724C32.9855 51.2756 32.9929 51.3115 33.0013 51.3701L25.9022 52.3893C25.9867 52.9777 26.2548 53.8385 26.2794 53.9197L33.1419 51.8359ZM33.0013 51.3701C33.0018 51.3733 32.9969 51.3318 32.9935 51.2558C32.9922 51.2256 32.9916 51.2008 32.9913 51.1865C32.9912 51.1796 32.9912 51.1759 32.9912 51.1762C32.9912 51.1764 32.9912 51.1776 32.9912 51.18C32.9912 51.1811 32.9912 51.1826 32.9912 51.1844C32.9912 51.1852 32.9912 51.1862 32.9912 51.1872C32.9912 51.1877 32.9912 51.1883 32.9912 51.1888C32.9912 51.1891 32.9912 51.1894 32.9912 51.1897C32.9912 51.1898 32.9912 51.19 32.9912 51.1901C32.9912 51.1903 32.9912 51.1906 29.4053 51.1906C25.8193 51.1906 25.8193 51.1908 25.8193 51.1911C25.8193 51.1911 25.8193 51.1914 25.8193 51.1915C25.8193 51.1918 25.8193 51.1921 25.8193 51.1925C25.8193 51.1931 25.8193 51.1938 25.8193 51.1945C25.8193 51.1959 25.8193 51.1973 25.8193 51.1989C25.8194 51.2021 25.8194 51.2056 25.8194 51.2096C25.8194 51.2174 25.8195 51.2268 25.8196 51.2376C25.8197 51.2591 25.8201 51.2866 25.8207 51.319C25.8219 51.3833 25.8241 51.4701 25.8286 51.5717C25.8369 51.7593 25.8553 52.0624 25.9022 52.3893L33.0013 51.3701ZM32.9912 51.1906V50.8895H25.8193V51.1906H32.9912ZM26.3219 54.0597L26.3453 54.1367L33.2064 52.0484L33.183 51.9714L26.3219 54.0597ZM26.2794 53.9197L26.329 54.0831L33.1915 51.9993L33.1419 51.8359L26.2794 53.9197ZM26.3289 54.0828L26.3445 54.1341L33.2072 52.0509L33.1916 51.9996L26.3289 54.0828Z" fill="url(#paint9_linear)" mask="url(#path-12-inside-1)"/>
</mask>
<g mask="url(#mask3)">
<rect x="28.1021" y="39.6908" width="19.1688" height="19.8472" fill="white"/>
<rect x="28.1021" y="39.6908" width="19.1688" height="19.8472" fill="#FF6720"/>
</g>
</g>
<defs>
<linearGradient id="paint0_linear" x1="87.0624" y1="14.9374" x2="14.9374" y2="87.0623" gradientUnits="userSpaceOnUse">
<stop/>
<stop offset="1" stop-color="#515151"/>
</linearGradient>
<linearGradient id="paint1_linear" x1="39.4251" y1="58.5346" x2="61.9028" y2="32.5489" gradientUnits="userSpaceOnUse">
<stop stop-color="#FF8506"/>
<stop offset="0.5805" stop-color="#FD3947"/>
<stop offset="1" stop-color="#FB0078"/>
</linearGradient>
<linearGradient id="paint2_linear" x1="69.8342" y1="43.1214" x2="59.9859" y2="43.604" gradientUnits="userSpaceOnUse">
<stop stop-color="#FB126A" stop-opacity="0"/>
<stop offset="0.1389" stop-color="#F41169" stop-opacity="0.1389"/>
<stop offset="0.3365" stop-color="#E20F67" stop-opacity="0.3365"/>
<stop offset="0.5694" stop-color="#C30A64" stop-opacity="0.5694"/>
<stop offset="0.827" stop-color="#99045F" stop-opacity="0.827"/>
<stop offset="1" stop-color="#78005B"/>
</linearGradient>
<linearGradient id="paint3_linear" x1="48.2917" y1="53.8684" x2="56.4686" y2="56.119" gradientUnits="userSpaceOnUse">
<stop stop-color="#FB126A" stop-opacity="0"/>
<stop offset="0.1389" stop-color="#F41169" stop-opacity="0.1389"/>
<stop offset="0.3365" stop-color="#E20F67" stop-opacity="0.3365"/>
<stop offset="0.5694" stop-color="#C30A64" stop-opacity="0.5694"/>
<stop offset="0.827" stop-color="#99045F" stop-opacity="0.827"/>
<stop offset="1" stop-color="#78005B"/>
</linearGradient>
<linearGradient id="paint4_linear" x1="39.4261" y1="42.8818" x2="61.9038" y2="68.8675" gradientUnits="userSpaceOnUse">
<stop stop-color="#FF8506"/>
<stop offset="0.5805" stop-color="#FD3947"/>
<stop offset="1" stop-color="#FB0078"/>
</linearGradient>
<linearGradient id="paint5_linear" x1="35.0858" y1="69.3228" x2="35.0858" y2="54.2785" gradientUnits="userSpaceOnUse">
<stop stop-color="#FF7E0D" stop-opacity="0"/>
<stop offset="0.0133" stop-color="#F97910" stop-opacity="0.0192"/>
<stop offset="0.1144" stop-color="#D25427" stop-opacity="0.1659"/>
<stop offset="0.219" stop-color="#B1363A" stop-opacity="0.3175"/>
<stop offset="0.3263" stop-color="#981E48" stop-opacity="0.4731"/>
<stop offset="0.4375" stop-color="#860D53" stop-opacity="0.6344"/>
<stop offset="0.5551" stop-color="#7B0359" stop-opacity="0.8048"/>
<stop offset="0.6897" stop-color="#78005B"/>
</linearGradient>
<linearGradient id="paint6_linear" x1="35.0889" y1="68.5014" x2="40.487" y2="63.5633" gradientUnits="userSpaceOnUse">
<stop stop-color="#FF7E0D" stop-opacity="0"/>
<stop offset="0.0133" stop-color="#F97910" stop-opacity="0.0192"/>
<stop offset="0.1144" stop-color="#D25427" stop-opacity="0.1659"/>
<stop offset="0.219" stop-color="#B1363A" stop-opacity="0.3175"/>
<stop offset="0.3263" stop-color="#981E48" stop-opacity="0.4731"/>
<stop offset="0.4375" stop-color="#860D53" stop-opacity="0.6344"/>
<stop offset="0.5551" stop-color="#7B0359" stop-opacity="0.8048"/>
<stop offset="0.6897" stop-color="#78005B"/>
</linearGradient>
<linearGradient id="paint7_linear" x1="35.0889" y1="32.5508" x2="35.0889" y2="47.5952" gradientUnits="userSpaceOnUse">
<stop stop-color="#FF7E0D" stop-opacity="0"/>
<stop offset="0.0133" stop-color="#F97910" stop-opacity="0.0192"/>
<stop offset="0.1144" stop-color="#D25427" stop-opacity="0.1659"/>
<stop offset="0.219" stop-color="#B1363A" stop-opacity="0.3175"/>
<stop offset="0.3263" stop-color="#981E48" stop-opacity="0.4731"/>
<stop offset="0.4375" stop-color="#860D53" stop-opacity="0.6344"/>
<stop offset="0.5551" stop-color="#7B0359" stop-opacity="0.8048"/>
<stop offset="0.6897" stop-color="#78005B"/>
</linearGradient>
<linearGradient id="paint8_linear" x1="1.79297" y1="12.5354" x2="7.19108" y2="7.59732" gradientUnits="userSpaceOnUse">
<stop stop-color="#FF7E0D" stop-opacity="0"/>
<stop offset="0.0133" stop-color="#F97910" stop-opacity="0.0192"/>
<stop offset="0.1144" stop-color="#D25427" stop-opacity="0.1659"/>
<stop offset="0.219" stop-color="#B1363A" stop-opacity="0.3175"/>
<stop offset="0.3263" stop-color="#981E48" stop-opacity="0.4731"/>
<stop offset="0.4375" stop-color="#860D53" stop-opacity="0.6344"/>
<stop offset="0.5551" stop-color="#7B0359" stop-opacity="0.8048"/>
<stop offset="0.6897" stop-color="#78005B"/>
</linearGradient>
<linearGradient id="paint9_linear" x1="34.8394" y1="57.8194" x2="43.0482" y2="40.0765" gradientUnits="userSpaceOnUse">
<stop stop-color="#FF8506"/>
<stop offset="0.5805" stop-color="#FD3947"/>
<stop offset="1" stop-color="#FB0078"/>
</linearGradient>
<clipPath id="clip0">
<rect width="102" height="102" fill="white"/>
</clipPath>
</defs>
</svg>
