<svg width="382" height="140" viewBox="0 0 382 140" fill="none" xmlns="http://www.w3.org/2000/svg">
<circle cx="198" cy="70" r="70" fill="#232323"/>
<path d="M260.849 49.6008C262.99 56.196 264.079 63.087 264.077 70.0209L197.999 70.0002L260.849 49.6008Z" fill="#FFA871"/>
<path d="M251.476 31.1867C255.549 36.7984 258.713 43.0161 260.853 49.6116L197.999 70.0002L251.476 31.1867Z" fill="#5C80F2"/>
<path d="M264.077 70.0002C264.077 85.7335 258.463 100.95 248.245 112.914C238.027 124.878 223.876 132.803 208.336 135.264C192.797 137.725 176.889 134.561 163.474 126.341C150.059 118.12 140.018 105.383 135.156 90.4193C130.294 75.4561 130.931 59.2491 136.952 44.7134C142.973 30.1778 153.982 18.2674 168.001 11.1247C182.019 3.98189 198.126 2.07548 213.425 5.74832C228.723 9.42117 242.21 18.4322 251.457 31.1607L197.999 70.0002H264.077Z" fill="#ED6060"/>
<circle opacity="0.2" cx="246" cy="63" r="6" fill="white"/>
<circle cx="245.999" cy="63.0001" r="1.76471" fill="white"/>
<path opacity="0.88" d="M274.83 46.4545H275.852C275.805 45.1378 274.591 44.1534 272.903 44.1534C271.233 44.1534 269.92 45.125 269.92 46.5909C269.92 47.767 270.773 48.4659 272.136 48.858L273.21 49.1648C274.131 49.4205 274.949 49.7443 274.949 50.6136C274.949 51.5682 274.028 52.1989 272.818 52.1989C271.778 52.1989 270.858 51.7386 270.773 50.75H269.682C269.784 52.1818 270.943 53.1534 272.818 53.1534C274.83 53.1534 275.972 52.0455 275.972 50.6307C275.972 48.9943 274.42 48.4659 273.517 48.2273L272.631 47.9886C271.983 47.8182 270.943 47.4773 270.943 46.5398C270.943 45.7045 271.71 45.0909 272.869 45.0909C273.926 45.0909 274.727 45.5938 274.83 46.4545ZM280.317 53.1364C281.647 53.1364 282.618 52.4716 282.925 51.483L281.953 51.2102C281.698 51.892 281.105 52.233 280.317 52.233C279.137 52.233 278.323 51.4702 278.276 50.0682H283.027V49.642C283.027 47.2045 281.578 46.3693 280.215 46.3693C278.442 46.3693 277.266 47.767 277.266 49.7784C277.266 51.7898 278.425 53.1364 280.317 53.1364ZM278.276 49.1989C278.344 48.1804 279.064 47.2727 280.215 47.2727C281.306 47.2727 282.005 48.0909 282.005 49.1989H278.276ZM285.563 49.0625C285.563 47.9205 286.27 47.2727 287.233 47.2727C288.167 47.2727 288.733 47.8821 288.733 48.9091V53H289.739V48.8409C289.739 47.1705 288.848 46.3693 287.523 46.3693C286.534 46.3693 285.921 46.8125 285.614 47.4773H285.529V46.4545H284.557V53H285.563V49.0625ZM294.423 46.4545H293.026V44.8864H292.02V46.4545H291.031V47.3068H292.02V51.3977C292.02 52.5398 292.94 53.0852 293.793 53.0852C294.168 53.0852 294.406 53.017 294.543 52.9659L294.338 52.0625C294.253 52.0795 294.116 52.1136 293.895 52.1136C293.452 52.1136 293.026 51.9773 293.026 51.125V47.3068H294.423V46.4545ZM302.158 46.4545H300.76V44.8864H299.754V46.4545H298.766V47.3068H299.754V51.3977C299.754 52.5398 300.675 53.0852 301.527 53.0852C301.902 53.0852 302.141 53.017 302.277 52.9659L302.072 52.0625C301.987 52.0795 301.851 52.1136 301.629 52.1136C301.186 52.1136 300.76 51.9773 300.76 51.125V47.3068H302.158V46.4545ZM306.259 53.1364C308.032 53.1364 309.225 51.7898 309.225 49.7614C309.225 47.7159 308.032 46.3693 306.259 46.3693C304.487 46.3693 303.293 47.7159 303.293 49.7614C303.293 51.7898 304.487 53.1364 306.259 53.1364ZM306.259 52.233C304.913 52.233 304.299 51.0739 304.299 49.7614C304.299 48.4489 304.913 47.2727 306.259 47.2727C307.606 47.2727 308.219 48.4489 308.219 49.7614C308.219 51.0739 307.606 52.233 306.259 52.233ZM319.044 46.4545H320.067C320.02 45.1378 318.806 44.1534 317.118 44.1534C315.448 44.1534 314.135 45.125 314.135 46.5909C314.135 47.767 314.988 48.4659 316.351 48.858L317.425 49.1648C318.346 49.4205 319.164 49.7443 319.164 50.6136C319.164 51.5682 318.243 52.1989 317.033 52.1989C315.993 52.1989 315.073 51.7386 314.988 50.75H313.897C313.999 52.1818 315.158 53.1534 317.033 53.1534C319.044 53.1534 320.186 52.0455 320.186 50.6307C320.186 48.9943 318.635 48.4659 317.732 48.2273L316.846 47.9886C316.198 47.8182 315.158 47.4773 315.158 46.5398C315.158 45.7045 315.925 45.0909 317.084 45.0909C318.141 45.0909 318.942 45.5938 319.044 46.4545ZM324.634 46.4545H323.237V44.8864H322.231V46.4545H321.242V47.3068H322.231V51.3977C322.231 52.5398 323.151 53.0852 324.004 53.0852C324.379 53.0852 324.617 53.017 324.754 52.9659L324.549 52.0625C324.464 52.0795 324.327 52.1136 324.106 52.1136C323.663 52.1136 323.237 51.9773 323.237 51.125V47.3068H324.634V46.4545ZM328.073 53.1534C329.215 53.1534 329.812 52.5398 330.016 52.1136H330.067V53H331.073V48.6875C331.073 46.608 329.488 46.3693 328.653 46.3693C327.664 46.3693 326.539 46.7102 326.028 47.9034L326.982 48.2443C327.204 47.767 327.728 47.2557 328.687 47.2557C329.612 47.2557 330.067 47.7457 330.067 48.5852V48.6193C330.067 49.1051 329.573 49.0625 328.38 49.2159C327.165 49.3736 325.84 49.642 325.84 51.142C325.84 52.4205 326.829 53.1534 328.073 53.1534ZM328.227 52.25C327.425 52.25 326.846 51.892 326.846 51.1932C326.846 50.4261 327.545 50.1875 328.329 50.0852C328.755 50.0341 329.897 49.9148 330.067 49.7102V50.6307C330.067 51.4489 329.42 52.25 328.227 52.25ZM332.909 53H333.914V50.5497L334.618 49.8977L337.068 53H338.346L335.376 49.25L338.142 46.4545H336.897L334.034 49.3693H333.914V44.2727H332.909V53ZM341.911 53.1364C343.24 53.1364 344.212 52.4716 344.519 51.483L343.547 51.2102C343.292 51.892 342.699 52.233 341.911 52.233C340.73 52.233 339.917 51.4702 339.87 50.0682H344.621V49.642C344.621 47.2045 343.172 46.3693 341.809 46.3693C340.036 46.3693 338.86 47.767 338.86 49.7784C338.86 51.7898 340.019 53.1364 341.911 53.1364ZM339.87 49.1989C339.938 48.1804 340.658 47.2727 341.809 47.2727C342.9 47.2727 343.598 48.0909 343.598 49.1989H339.87ZM346.151 53H347.157V48.858C347.157 47.9716 347.855 47.3239 348.81 47.3239C349.078 47.3239 349.355 47.375 349.424 47.392V46.3693C349.309 46.3608 349.044 46.3523 348.895 46.3523C348.111 46.3523 347.429 46.7955 347.191 47.4432H347.123V46.4545H346.151V53ZM355.252 47.9205C354.937 46.9915 354.229 46.3693 352.934 46.3693C351.553 46.3693 350.531 47.1534 350.531 48.2614C350.531 49.1648 351.067 49.7699 352.269 50.0511L353.36 50.3068C354.021 50.4602 354.332 50.7756 354.332 51.2273C354.332 51.7898 353.735 52.25 352.798 52.25C351.975 52.25 351.46 51.8963 351.281 51.1932L350.326 51.4318C350.56 52.544 351.477 53.1364 352.815 53.1364C354.336 53.1364 355.371 52.3054 355.371 51.1761C355.371 50.2642 354.8 49.6889 353.633 49.4034L352.661 49.1648C351.886 48.973 351.536 48.7131 351.536 48.2102C351.536 47.6477 352.133 47.2386 352.934 47.2386C353.812 47.2386 354.174 47.7244 354.349 48.1761L355.252 47.9205ZM357.243 49.3182C357.243 51.4659 357.823 53.2557 358.863 54.7727H359.749C358.931 53.6477 358.283 51.3466 358.283 49.3182C358.283 47.2898 358.931 44.9886 359.749 43.8636H358.863C357.823 45.3807 357.243 47.1705 357.243 49.3182ZM363.943 53.1193C365.605 53.1193 366.824 51.892 366.824 50.2216C366.824 48.5298 365.648 47.2898 364.045 47.2898C363.457 47.2898 362.886 47.4986 362.528 47.7841H362.477L362.784 45.2102H366.432V44.2727H361.898L361.369 48.5682L362.358 48.6875C362.72 48.4276 363.338 48.2401 363.875 48.2443C364.987 48.2528 365.801 49.0966 365.801 50.2386C365.801 51.3594 365.017 52.1818 363.943 52.1818C363.048 52.1818 362.337 51.6065 362.256 50.8182H361.233C361.297 52.1477 362.443 53.1193 363.943 53.1193ZM372.966 51.3636C372.966 52.3182 373.562 53.1193 374.67 53.1193C375.761 53.1193 376.358 52.3182 376.358 51.3636V50.9034C376.358 49.9489 375.778 49.1477 374.67 49.1477C373.579 49.1477 372.966 49.9489 372.966 50.9034V51.3636ZM368.619 46.3693C368.619 47.3239 369.216 48.125 370.324 48.125C371.414 48.125 372.011 47.3239 372.011 46.3693V45.9091C372.011 44.9545 371.431 44.1534 370.324 44.1534C369.233 44.1534 368.619 44.9545 368.619 45.9091V46.3693ZM368.943 53H369.914L375.914 44.2727H374.943L368.943 53ZM373.835 50.9034C373.835 50.375 374.074 49.8807 374.67 49.8807C375.284 49.8807 375.488 50.375 375.488 50.9034V51.3636C375.488 51.892 375.267 52.3864 374.67 52.3864C374.056 52.3864 373.835 51.892 373.835 51.3636V50.9034ZM369.488 45.9091C369.488 45.3807 369.727 44.8864 370.324 44.8864C370.937 44.8864 371.142 45.3807 371.142 45.9091V46.3693C371.142 46.8977 370.92 47.392 370.324 47.392C369.71 47.392 369.488 46.8977 369.488 46.3693V45.9091ZM380.431 49.3182C380.431 47.1705 379.852 45.3807 378.812 43.8636H377.926C378.744 44.9886 379.392 47.2898 379.392 49.3182C379.392 51.3466 378.744 53.6477 377.926 54.7727H378.812C379.852 53.2557 380.431 51.4659 380.431 49.3182Z" fill="white"/>
<path d="M382 63H246" stroke="url(#paint0_linear)" stroke-width="0.5"/>
<circle opacity="0.2" cx="251" cy="40" r="6" fill="white"/>
<circle cx="250.999" cy="40.0001" r="1.76471" fill="white"/>
<path opacity="0.88" d="M292.58 22.2102H295.324V30H296.381V22.2102H299.125V21.2727H292.58V22.2102ZM302.33 30.1364C304.102 30.1364 305.295 28.7898 305.295 26.7614C305.295 24.7159 304.102 23.3693 302.33 23.3693C300.557 23.3693 299.364 24.7159 299.364 26.7614C299.364 28.7898 300.557 30.1364 302.33 30.1364ZM302.33 29.233C300.983 29.233 300.369 28.0739 300.369 26.7614C300.369 25.4489 300.983 24.2727 302.33 24.2727C303.676 24.2727 304.29 25.4489 304.29 26.7614C304.29 28.0739 303.676 29.233 302.33 29.233ZM306.831 30H307.836V27.5497L308.539 26.8977L310.99 30H312.268L309.298 26.25L312.064 23.4545H310.819L307.956 26.3693H307.836V21.2727H306.831V30ZM315.833 30.1364C317.162 30.1364 318.134 29.4716 318.441 28.483L317.469 28.2102C317.213 28.892 316.621 29.233 315.833 29.233C314.652 29.233 313.838 28.4702 313.792 27.0682H318.543V26.642C318.543 24.2045 317.094 23.3693 315.73 23.3693C313.958 23.3693 312.782 24.767 312.782 26.7784C312.782 28.7898 313.941 30.1364 315.833 30.1364ZM313.792 26.1989C313.86 25.1804 314.58 24.2727 315.73 24.2727C316.821 24.2727 317.52 25.0909 317.52 26.1989H313.792ZM321.078 26.0625C321.078 24.9205 321.786 24.2727 322.749 24.2727C323.682 24.2727 324.249 24.8821 324.249 25.9091V30H325.255V25.8409C325.255 24.1705 324.364 23.3693 323.039 23.3693C322.05 23.3693 321.436 23.8125 321.13 24.4773H321.044V23.4545H320.073V30H321.078V26.0625ZM330.604 30H333.757C335.82 30 336.672 28.9943 336.672 27.6818C336.672 26.3011 335.717 25.5511 334.916 25.5V25.4148C335.666 25.2102 336.331 24.7159 336.331 23.5909C336.331 22.3125 335.479 21.2727 333.655 21.2727H330.604V30ZM331.661 29.0625V26.0284H333.808C334.95 26.0284 335.666 26.7955 335.666 27.6818C335.666 28.4489 335.138 29.0625 333.757 29.0625H331.661ZM331.661 25.108V22.2102H333.655C334.814 22.2102 335.325 22.8239 335.325 23.5909C335.325 24.5114 334.575 25.108 333.621 25.108H331.661ZM342.397 27.3239C342.397 28.5511 341.46 29.1136 340.71 29.1136C339.874 29.1136 339.278 28.5 339.278 27.5455V23.4545H338.272V27.6136C338.272 29.2841 339.158 30.0852 340.386 30.0852C341.374 30.0852 342.022 29.5568 342.329 28.892H342.397V30H343.403V23.4545H342.397V27.3239ZM345.245 30H346.25V25.858C346.25 24.9716 346.949 24.3239 347.904 24.3239C348.172 24.3239 348.449 24.375 348.517 24.392V23.3693C348.402 23.3608 348.138 23.3523 347.989 23.3523C347.205 23.3523 346.523 23.7955 346.284 24.4432H346.216V23.4545H345.245V30ZM350.715 26.0625C350.715 24.9205 351.423 24.2727 352.386 24.2727C353.319 24.2727 353.886 24.8821 353.886 25.9091V30H354.891V25.8409C354.891 24.1705 354.001 23.3693 352.675 23.3693C351.687 23.3693 351.073 23.8125 350.766 24.4773H350.681V23.4545H349.71V30H350.715V26.0625ZM357.087 26.3182C357.087 28.4659 357.667 30.2557 358.706 31.7727H359.593C358.775 30.6477 358.127 28.3466 358.127 26.3182C358.127 24.2898 358.775 21.9886 359.593 20.8636H358.706C357.667 22.3807 357.087 24.1705 357.087 26.3182ZM363.787 30.1193C365.449 30.1193 366.668 28.892 366.668 27.2216C366.668 25.5298 365.491 24.2898 363.889 24.2898C363.301 24.2898 362.73 24.4986 362.372 24.7841H362.321L362.628 22.2102H366.276V21.2727H361.741L361.213 25.5682L362.202 25.6875C362.564 25.4276 363.182 25.2401 363.719 25.2443C364.831 25.2528 365.645 26.0966 365.645 27.2386C365.645 28.3594 364.861 29.1818 363.787 29.1818C362.892 29.1818 362.18 28.6065 362.099 27.8182H361.077C361.141 29.1477 362.287 30.1193 363.787 30.1193ZM372.809 28.3636C372.809 29.3182 373.406 30.1193 374.514 30.1193C375.605 30.1193 376.201 29.3182 376.201 28.3636V27.9034C376.201 26.9489 375.622 26.1477 374.514 26.1477C373.423 26.1477 372.809 26.9489 372.809 27.9034V28.3636ZM368.463 23.3693C368.463 24.3239 369.059 25.125 370.167 25.125C371.258 25.125 371.855 24.3239 371.855 23.3693V22.9091C371.855 21.9545 371.275 21.1534 370.167 21.1534C369.076 21.1534 368.463 21.9545 368.463 22.9091V23.3693ZM368.787 30H369.758L375.758 21.2727H374.787L368.787 30ZM373.679 27.9034C373.679 27.375 373.917 26.8807 374.514 26.8807C375.127 26.8807 375.332 27.375 375.332 27.9034V28.3636C375.332 28.892 375.11 29.3864 374.514 29.3864C373.9 29.3864 373.679 28.892 373.679 28.3636V27.9034ZM369.332 22.9091C369.332 22.3807 369.571 21.8864 370.167 21.8864C370.781 21.8864 370.985 22.3807 370.985 22.9091V23.3693C370.985 23.8977 370.764 24.392 370.167 24.392C369.554 24.392 369.332 23.8977 369.332 23.3693V22.9091ZM380.275 26.3182C380.275 24.1705 379.696 22.3807 378.656 20.8636H377.77C378.588 21.9886 379.235 24.2898 379.235 26.3182C379.235 28.3466 378.588 30.6477 377.77 31.7727H378.656C379.696 30.2557 380.275 28.4659 380.275 26.3182Z" fill="white"/>
<path d="M382 40H251" stroke="url(#paint1_linear)" stroke-width="0.5"/>
<circle opacity="0.2" cx="161" cy="49" r="6" fill="white"/>
<circle cx="160.999" cy="49.0001" r="1.76471" fill="white"/>
<path opacity="0.88" d="M5.82955 16.4545H6.85227C6.8054 15.1378 5.59091 14.1534 3.90341 14.1534C2.23295 14.1534 0.920455 15.125 0.920455 16.5909C0.920455 17.767 1.77273 18.4659 3.13636 18.858L4.21023 19.1648C5.13068 19.4205 5.94886 19.7443 5.94886 20.6136C5.94886 21.5682 5.02841 22.1989 3.81818 22.1989C2.77841 22.1989 1.85795 21.7386 1.77273 20.75H0.681818C0.784091 22.1818 1.94318 23.1534 3.81818 23.1534C5.82955 23.1534 6.97159 22.0455 6.97159 20.6307C6.97159 18.9943 5.42045 18.4659 4.51705 18.2273L3.63068 17.9886C2.98295 17.8182 1.94318 17.4773 1.94318 16.5398C1.94318 15.7045 2.71023 15.0909 3.86932 15.0909C4.92614 15.0909 5.72727 15.5938 5.82955 16.4545ZM11.3171 23.1364C12.6467 23.1364 13.6183 22.4716 13.9251 21.483L12.9535 21.2102C12.6978 21.892 12.1055 22.233 11.3171 22.233C10.1367 22.233 9.3228 21.4702 9.27592 20.0682H14.0273V19.642C14.0273 17.2045 12.5785 16.3693 11.2148 16.3693C9.44212 16.3693 8.26598 17.767 8.26598 19.7784C8.26598 21.7898 9.42507 23.1364 11.3171 23.1364ZM9.27592 19.1989C9.34411 18.1804 10.0643 17.2727 11.2148 17.2727C12.3058 17.2727 13.0046 18.0909 13.0046 19.1989H9.27592ZM16.5629 19.0625C16.5629 17.9205 17.2702 17.2727 18.2333 17.2727C19.1665 17.2727 19.7333 17.8821 19.7333 18.9091V23H20.739V18.8409C20.739 17.1705 19.8484 16.3693 18.5231 16.3693C17.5344 16.3693 16.9208 16.8125 16.614 17.4773H16.5288V16.4545H15.5572V23H16.5629V19.0625ZM25.4233 16.4545H24.0256V14.8864H23.0199V16.4545H22.0312V17.3068H23.0199V21.3977C23.0199 22.5398 23.9403 23.0852 24.7926 23.0852C25.1676 23.0852 25.4062 23.017 25.5426 22.9659L25.3381 22.0625C25.2528 22.0795 25.1165 22.1136 24.8949 22.1136C24.4517 22.1136 24.0256 21.9773 24.0256 21.125V17.3068H25.4233V16.4545ZM33.1577 16.4545H31.7599V14.8864H30.7543V16.4545H29.7656V17.3068H30.7543V21.3977C30.7543 22.5398 31.6747 23.0852 32.527 23.0852C32.902 23.0852 33.1406 23.017 33.277 22.9659L33.0724 22.0625C32.9872 22.0795 32.8509 22.1136 32.6293 22.1136C32.1861 22.1136 31.7599 21.9773 31.7599 21.125V17.3068H33.1577V16.4545ZM37.2592 23.1364C39.032 23.1364 40.2251 21.7898 40.2251 19.7614C40.2251 17.7159 39.032 16.3693 37.2592 16.3693C35.4865 16.3693 34.2933 17.7159 34.2933 19.7614C34.2933 21.7898 35.4865 23.1364 37.2592 23.1364ZM37.2592 22.233C35.9126 22.233 35.299 21.0739 35.299 19.7614C35.299 18.4489 35.9126 17.2727 37.2592 17.2727C38.6058 17.2727 39.2195 18.4489 39.2195 19.7614C39.2195 21.0739 38.6058 22.233 37.2592 22.233ZM47.9819 16.4545H46.5842V14.8864H45.5785V16.4545H44.5898V17.3068H45.5785V21.3977C45.5785 22.5398 46.4989 23.0852 47.3512 23.0852C47.7262 23.0852 47.9648 23.017 48.1012 22.9659L47.8967 22.0625C47.8114 22.0795 47.6751 22.1136 47.4535 22.1136C47.0103 22.1136 46.5842 21.9773 46.5842 21.125V17.3068H47.9819V16.4545ZM50.641 19.0625C50.641 17.9205 51.3697 17.2727 52.3626 17.2727C53.3086 17.2727 53.8796 17.8693 53.8796 18.9091V23H54.8853V18.8409C54.8853 17.1577 53.9904 16.3693 52.6523 16.3693C51.6211 16.3693 51.033 16.7997 50.7262 17.4773H50.641V14.2727H49.6353V23H50.641V19.0625ZM59.4695 23.1364C60.799 23.1364 61.7706 22.4716 62.0774 21.483L61.1058 21.2102C60.8501 21.892 60.2578 22.233 59.4695 22.233C58.2891 22.233 57.4751 21.4702 57.4283 20.0682H62.1797V19.642C62.1797 17.2045 60.7308 16.3693 59.3672 16.3693C57.5945 16.3693 56.4183 17.767 56.4183 19.7784C56.4183 21.7898 57.5774 23.1364 59.4695 23.1364ZM57.4283 19.1989C57.4964 18.1804 58.2166 17.2727 59.3672 17.2727C60.4581 17.2727 61.157 18.0909 61.157 19.1989H57.4283ZM1.05682 39H2.11364V35.5909H4.02273C4.09943 35.5909 4.17188 35.5909 4.24432 35.5866L6.08523 39H7.3125L5.33949 35.3949C6.4517 35.0156 6.97159 34.108 6.97159 32.9489C6.97159 31.4062 6.05114 30.2727 4.00568 30.2727H1.05682V39ZM2.11364 34.6364V31.2102H3.97159C5.38636 31.2102 5.93182 31.9006 5.93182 32.9489C5.93182 33.9972 5.38636 34.6364 3.98864 34.6364H2.11364ZM11.2702 39.1364C12.5998 39.1364 13.5714 38.4716 13.8782 37.483L12.9066 37.2102C12.6509 37.892 12.0586 38.233 11.2702 38.233C10.0898 38.233 9.27592 37.4702 9.22905 36.0682H13.9805V35.642C13.9805 33.2045 12.5316 32.3693 11.168 32.3693C9.39524 32.3693 8.21911 33.767 8.21911 35.7784C8.21911 37.7898 9.3782 39.1364 11.2702 39.1364ZM9.22905 35.1989C9.29723 34.1804 10.0174 33.2727 11.168 33.2727C12.2589 33.2727 12.9577 34.0909 12.9577 35.1989H9.22905ZM18.1694 39.1364C19.6183 39.1364 20.5728 38.25 20.7433 37.0909H19.7376C19.5501 37.8068 18.9535 38.233 18.1694 38.233C16.9762 38.233 16.2092 37.2443 16.2092 35.7273C16.2092 34.2443 16.9933 33.2727 18.1694 33.2727C19.0558 33.2727 19.5842 33.8182 19.7376 34.4148H20.7433C20.5728 33.1875 19.533 32.3693 18.1523 32.3693C16.3796 32.3693 15.2035 33.767 15.2035 35.7614C15.2035 37.7216 16.3285 39.1364 18.1694 39.1364ZM22.2134 39H23.2191V32.4545H22.2134V39ZM22.7248 31.3636C23.1168 31.3636 23.4407 31.0568 23.4407 30.6818C23.4407 30.3068 23.1168 30 22.7248 30C22.3327 30 22.0089 30.3068 22.0089 30.6818C22.0089 31.0568 22.3327 31.3636 22.7248 31.3636ZM27.8054 39.1364C29.1349 39.1364 30.1065 38.4716 30.4134 37.483L29.4418 37.2102C29.1861 37.892 28.5938 38.233 27.8054 38.233C26.625 38.233 25.8111 37.4702 25.7642 36.0682H30.5156V35.642C30.5156 33.2045 29.0668 32.3693 27.7031 32.3693C25.9304 32.3693 24.7543 33.767 24.7543 35.7784C24.7543 37.7898 25.9134 39.1364 27.8054 39.1364ZM25.7642 35.1989C25.8324 34.1804 26.5526 33.2727 27.7031 33.2727C28.794 33.2727 29.4929 34.0909 29.4929 35.1989H25.7642ZM32.0455 41.4545H33.0511V37.9943H33.1364C33.358 38.3523 33.7841 39.1364 35.0455 39.1364C36.6818 39.1364 37.8239 37.8239 37.8239 35.7443C37.8239 33.6818 36.6818 32.3693 35.0284 32.3693C33.75 32.3693 33.358 33.1534 33.1364 33.4943H33.017V32.4545H32.0455V41.4545ZM33.0341 35.7273C33.0341 34.2614 33.6818 33.2727 34.9091 33.2727C36.1875 33.2727 36.8182 34.3466 36.8182 35.7273C36.8182 37.125 36.1705 38.233 34.9091 38.233C33.6989 38.233 33.0341 37.2102 33.0341 35.7273ZM42.1023 39.1364C43.4318 39.1364 44.4034 38.4716 44.7102 37.483L43.7386 37.2102C43.483 37.892 42.8906 38.233 42.1023 38.233C40.9219 38.233 40.108 37.4702 40.0611 36.0682H44.8125V35.642C44.8125 33.2045 43.3636 32.3693 42 32.3693C40.2273 32.3693 39.0511 33.767 39.0511 35.7784C39.0511 37.7898 40.2102 39.1364 42.1023 39.1364ZM40.0611 35.1989C40.1293 34.1804 40.8494 33.2727 42 33.2727C43.0909 33.2727 43.7898 34.0909 43.7898 35.1989H40.0611ZM46.3423 39H47.348V32.4545H46.3423V39ZM46.8537 31.3636C47.2457 31.3636 47.5696 31.0568 47.5696 30.6818C47.5696 30.3068 47.2457 30 46.8537 30C46.4616 30 46.1378 30.3068 46.1378 30.6818C46.1378 31.0568 46.4616 31.3636 46.8537 31.3636ZM50.1957 35.0625C50.1957 33.9205 50.9031 33.2727 51.8661 33.2727C52.7994 33.2727 53.3661 33.8821 53.3661 34.9091V39H54.3718V34.8409C54.3718 33.1705 53.4812 32.3693 52.1559 32.3693C51.1673 32.3693 50.5536 32.8125 50.2468 33.4773H50.1616V32.4545H49.19V39H50.1957V35.0625ZM59.0561 32.4545H57.6584V30.8864H56.6527V32.4545H55.6641V33.3068H56.6527V37.3977C56.6527 38.5398 57.5732 39.0852 58.4254 39.0852C58.8004 39.0852 59.0391 39.017 59.1754 38.9659L58.9709 38.0625C58.8857 38.0795 58.7493 38.1136 58.5277 38.1136C58.0845 38.1136 57.6584 37.9773 57.6584 37.125V33.3068H59.0561V32.4545ZM60.9268 35.3182C60.9268 37.4659 61.5064 39.2557 62.5462 40.7727H63.4325C62.6143 39.6477 61.9666 37.3466 61.9666 35.3182C61.9666 33.2898 62.6143 30.9886 63.4325 29.8636H62.5462C61.5064 31.3807 60.9268 33.1705 60.9268 35.3182ZM67.6779 30.1534C65.9052 30.1321 64.7631 31.4659 64.7631 33.0682C64.7631 34.7557 66.0075 35.9659 67.5075 35.9659C68.4109 35.9659 69.1779 35.5227 69.6552 34.8068H69.7234C69.7234 36.9545 68.8881 38.1818 67.5415 38.1818C66.6211 38.1818 66.0586 37.6023 65.8711 36.8011H64.8313C65.0359 38.1818 66.0756 39.1193 67.5415 39.1193C69.5018 39.1193 70.712 37.3807 70.712 34.2784C70.712 31.0739 69.1097 30.1705 67.6779 30.1534ZM67.6779 31.0909C68.7688 31.0909 69.57 32.0284 69.57 33.0511C69.57 34.0909 68.7177 35.0284 67.6438 35.0284C66.57 35.0284 65.7859 34.1591 65.7859 33.0682C65.7859 31.9773 66.604 31.0909 67.6779 31.0909ZM75.2344 39.1193C77.1605 39.1193 78.2685 37.4872 78.2685 34.6364C78.2685 31.8068 77.1435 30.1534 75.2344 30.1534C73.3253 30.1534 72.2003 31.8068 72.2003 34.6364C72.2003 37.4872 73.3082 39.1193 75.2344 39.1193ZM75.2344 38.1818C73.9645 38.1818 73.223 36.9077 73.223 34.6364C73.223 32.3693 73.973 31.0739 75.2344 31.0739C76.4957 31.0739 77.2457 32.3693 77.2457 34.6364C77.2457 36.9077 76.5043 38.1818 75.2344 38.1818ZM84.3366 37.3636C84.3366 38.3182 84.9332 39.1193 86.0412 39.1193C87.1321 39.1193 87.7287 38.3182 87.7287 37.3636V36.9034C87.7287 35.9489 87.1491 35.1477 86.0412 35.1477C84.9503 35.1477 84.3366 35.9489 84.3366 36.9034V37.3636ZM79.9901 32.3693C79.9901 33.3239 80.5866 34.125 81.6946 34.125C82.7855 34.125 83.3821 33.3239 83.3821 32.3693V31.9091C83.3821 30.9545 82.8026 30.1534 81.6946 30.1534C80.6037 30.1534 79.9901 30.9545 79.9901 31.9091V32.3693ZM80.3139 39H81.2855L87.2855 30.2727H86.3139L80.3139 39ZM85.206 36.9034C85.206 36.375 85.4446 35.8807 86.0412 35.8807C86.6548 35.8807 86.8594 36.375 86.8594 36.9034V37.3636C86.8594 37.892 86.6378 38.3864 86.0412 38.3864C85.4276 38.3864 85.206 37.892 85.206 37.3636V36.9034ZM80.8594 31.9091C80.8594 31.3807 81.098 30.8864 81.6946 30.8864C82.3082 30.8864 82.5128 31.3807 82.5128 31.9091V32.3693C82.5128 32.8977 82.2912 33.392 81.6946 33.392C81.081 33.392 80.8594 32.8977 80.8594 32.3693V31.9091ZM91.8026 35.3182C91.8026 33.1705 91.223 31.3807 90.1832 29.8636H89.2969C90.1151 30.9886 90.7628 33.2898 90.7628 35.3182C90.7628 37.3466 90.1151 39.6477 89.2969 40.7727H90.1832C91.223 39.2557 91.8026 37.4659 91.8026 35.3182Z" fill="white"/>
<path d="M0 49L161 49" stroke="url(#paint2_linear)" stroke-width="0.5"/>
<defs>
<linearGradient id="paint0_linear" x1="382" y1="63" x2="246" y2="63" gradientUnits="userSpaceOnUse">
<stop stop-color="white" stop-opacity="0"/>
<stop offset="1" stop-color="white"/>
</linearGradient>
<linearGradient id="paint1_linear" x1="382" y1="40" x2="251" y2="40" gradientUnits="userSpaceOnUse">
<stop stop-color="white" stop-opacity="0"/>
<stop offset="1" stop-color="white"/>
</linearGradient>
<linearGradient id="paint2_linear" x1="80.5" y1="49" x2="0" y2="49" gradientUnits="userSpaceOnUse">
<stop stop-color="white"/>
<stop offset="1" stop-color="white" stop-opacity="0"/>
</linearGradient>
</defs>
</svg>
