<svg width="797" height="715" viewBox="0 0 797 715" fill="none" xmlns="http://www.w3.org/2000/svg">
<g opacity="0.3">
<path d="M378.159 73.0789C387.867 58.6233 409.132 58.6233 418.839 73.0789L434.619 96.5792C443.959 110.487 462.136 115.358 477.178 107.983L502.595 95.5213C518.229 87.856 536.645 98.4885 537.824 115.861L539.741 144.103C540.875 160.817 554.182 174.124 570.896 175.258L599.138 177.175C616.511 178.354 627.143 196.77 619.478 212.404L607.016 237.821C599.641 252.863 604.512 271.04 618.42 280.38L641.92 296.16C656.376 305.868 656.376 327.132 641.92 336.84L618.42 352.62C604.512 361.96 599.641 380.137 607.016 395.179L619.478 420.596C627.143 436.23 616.511 454.646 599.138 455.825L570.896 457.742C554.182 458.876 540.875 472.183 539.741 488.897L537.824 517.139C536.645 534.512 518.229 545.144 502.595 537.479L477.178 525.017C462.136 517.642 443.959 522.513 434.619 536.421L418.839 559.921C409.132 574.377 387.867 574.377 378.159 559.921L362.379 536.421C353.039 522.513 334.862 517.642 319.82 525.017L294.403 537.479C278.769 545.144 260.353 534.512 259.174 517.139L257.257 488.897C256.123 472.183 242.816 458.876 226.102 457.742L197.86 455.825C180.488 454.646 169.855 436.23 177.52 420.596L189.982 395.179C197.357 380.137 192.486 361.96 178.578 352.62L155.078 336.84C140.622 327.132 140.622 305.868 155.078 296.16L178.578 280.38C192.486 271.04 197.357 252.863 189.982 237.821L177.52 212.404C169.855 196.77 180.488 178.354 197.86 177.175L226.102 175.258C242.816 174.124 256.123 160.817 257.257 144.103L259.174 115.861C260.353 98.4885 278.769 87.856 294.403 95.5213L319.82 107.983C334.862 115.358 353.039 110.487 362.379 96.5792L378.159 73.0789Z" stroke="white" stroke-width="9"/>
<path d="M378.159 73.0789C387.867 58.6233 409.132 58.6233 418.839 73.0789L434.619 96.5792C443.959 110.487 462.136 115.358 477.178 107.983L502.595 95.5213C518.229 87.856 536.645 98.4885 537.824 115.861L539.741 144.103C540.875 160.817 554.182 174.124 570.896 175.258L599.138 177.175C616.511 178.354 627.143 196.77 619.478 212.404L607.016 237.821C599.641 252.863 604.512 271.04 618.42 280.38L641.92 296.16C656.376 305.868 656.376 327.132 641.92 336.84L618.42 352.62C604.512 361.96 599.641 380.137 607.016 395.179L619.478 420.596C627.143 436.23 616.511 454.646 599.138 455.825L570.896 457.742C554.182 458.876 540.875 472.183 539.741 488.897L537.824 517.139C536.645 534.512 518.229 545.144 502.595 537.479L477.178 525.017C462.136 517.642 443.959 522.513 434.619 536.421L418.839 559.921C409.132 574.377 387.867 574.377 378.159 559.921L362.379 536.421C353.039 522.513 334.862 517.642 319.82 525.017L294.403 537.479C278.769 545.144 260.353 534.512 259.174 517.139L257.257 488.897C256.123 472.183 242.816 458.876 226.102 457.742L197.86 455.825C180.488 454.646 169.855 436.23 177.52 420.596L189.982 395.179C197.357 380.137 192.486 361.96 178.578 352.62L155.078 336.84C140.622 327.132 140.622 305.868 155.078 296.16L178.578 280.38C192.486 271.04 197.357 252.863 189.982 237.821L177.52 212.404C169.855 196.77 180.488 178.354 197.86 177.175L226.102 175.258C242.816 174.124 256.123 160.817 257.257 144.103L259.174 115.861C260.353 98.4885 278.769 87.856 294.403 95.5213L319.82 107.983C334.862 115.358 353.039 110.487 362.379 96.5792L378.159 73.0789Z" stroke="url(#paint0_linear)" stroke-width="9"/>
</g>
<g opacity="0.2">
<path d="M556.242 129.993C573.328 126.635 588.365 141.672 585.007 158.757L579.548 186.533C576.318 202.972 585.727 219.269 601.578 224.69L628.362 233.851C644.838 239.486 650.342 260.027 638.891 273.144L620.276 294.47C609.259 307.09 609.259 325.909 620.276 338.53L638.891 359.855C650.342 372.973 644.838 393.513 628.362 399.148L601.579 408.309C585.727 413.731 576.318 430.028 579.549 446.466L585.007 474.242C588.365 491.328 573.328 506.364 556.242 503.007L528.466 497.548C512.028 494.318 495.731 503.727 490.309 519.578L481.149 546.362C475.514 562.838 454.973 568.341 441.855 556.891L420.53 538.276C407.909 527.259 389.091 527.259 376.47 538.276L355.145 556.891C342.027 568.341 321.486 562.838 315.851 546.362L306.691 519.578C301.269 503.727 284.972 494.318 268.534 497.548L240.758 503.007C223.672 506.364 208.635 491.328 211.993 474.242L217.452 446.466C220.682 430.028 211.273 413.731 195.421 408.309L168.637 399.148C152.162 393.513 146.658 372.973 158.109 359.855L176.724 338.53C187.741 325.909 187.741 307.09 176.724 294.47L158.109 273.144C146.658 260.027 152.162 239.486 168.638 233.851L195.422 224.69C211.273 219.269 220.682 202.972 217.452 186.533L211.993 158.757C208.635 141.672 223.672 126.635 240.758 129.993L268.534 135.451C284.972 138.682 301.269 129.272 306.691 113.421L315.851 86.6373C321.486 70.1619 342.027 64.6581 355.145 76.1087L376.47 94.7239C389.091 105.741 407.909 105.741 420.53 94.7239L441.855 76.1087C454.973 64.6581 475.514 70.1619 481.149 86.6373L490.309 113.421C495.731 129.272 512.028 138.682 528.466 135.451L556.242 129.993Z" stroke="white" stroke-width="9"/>
<path d="M556.242 129.993C573.328 126.635 588.365 141.672 585.007 158.757L579.548 186.533C576.318 202.972 585.727 219.269 601.578 224.69L628.362 233.851C644.838 239.486 650.342 260.027 638.891 273.144L620.276 294.47C609.259 307.09 609.259 325.909 620.276 338.53L638.891 359.855C650.342 372.973 644.838 393.513 628.362 399.148L601.579 408.309C585.727 413.731 576.318 430.028 579.549 446.466L585.007 474.242C588.365 491.328 573.328 506.364 556.242 503.007L528.466 497.548C512.028 494.318 495.731 503.727 490.309 519.578L481.149 546.362C475.514 562.838 454.973 568.341 441.855 556.891L420.53 538.276C407.909 527.259 389.091 527.259 376.47 538.276L355.145 556.891C342.027 568.341 321.486 562.838 315.851 546.362L306.691 519.578C301.269 503.727 284.972 494.318 268.534 497.548L240.758 503.007C223.672 506.364 208.635 491.328 211.993 474.242L217.452 446.466C220.682 430.028 211.273 413.731 195.421 408.309L168.637 399.148C152.162 393.513 146.658 372.973 158.109 359.855L176.724 338.53C187.741 325.909 187.741 307.09 176.724 294.47L158.109 273.144C146.658 260.027 152.162 239.486 168.638 233.851L195.422 224.69C211.273 219.269 220.682 202.972 217.452 186.533L211.993 158.757C208.635 141.672 223.672 126.635 240.758 129.993L268.534 135.451C284.972 138.682 301.269 129.272 306.691 113.421L315.851 86.6373C321.486 70.1619 342.027 64.6581 355.145 76.1087L376.47 94.7239C389.091 105.741 407.909 105.741 420.53 94.7239L441.855 76.1087C454.973 64.6581 475.514 70.1619 481.149 86.6373L490.309 113.421C495.731 129.272 512.028 138.682 528.466 135.451L556.242 129.993Z" stroke="url(#paint1_linear)" stroke-width="9"/>
</g>
<path d="M473.543 304.947L438.923 257.558C436.343 254.016 432.366 252 427.988 252C423.611 252 419.633 254.016 417.053 257.558L413.275 262.716L409.516 257.558C406.936 254.016 402.958 252 398.581 252C394.203 252 390.226 254.016 387.646 257.558L383.923 262.643L380.199 257.558C377.62 254.016 373.624 252 369.265 252C364.905 252 360.909 254.016 358.33 257.558L323.692 304.947C318.769 311.686 318.769 320.749 323.692 327.506L358.33 374.895C360.909 378.419 364.887 380.454 369.265 380.454C373.642 380.454 377.62 378.437 380.199 374.895L398.617 349.666L402.413 354.879C402.432 354.897 402.45 354.915 402.45 354.933L417.035 374.895C419.615 378.419 423.592 380.454 427.97 380.454C432.347 380.454 436.325 378.437 438.904 374.895L473.525 327.506C478.483 320.749 478.483 311.686 473.543 304.947ZM393.168 261.59C394.44 259.846 396.419 258.847 398.581 258.847C400.742 258.847 402.722 259.846 403.994 261.59L409.043 268.51L398.617 282.769L388.155 268.438L393.168 261.59ZM374.677 370.845C373.406 372.589 371.426 373.588 369.265 373.588C367.103 373.588 365.123 372.589 363.852 370.845L329.232 323.456C326.071 319.133 326.071 313.302 329.232 308.979L363.852 261.59C365.123 259.846 367.103 258.847 369.265 258.847C371.426 258.847 373.406 259.846 374.677 261.59L379.691 268.456L353.026 304.947C348.104 311.686 348.104 320.749 353.044 327.506L355.079 330.249L372.952 354.861C375.222 357.985 378.601 359.91 382.361 360.328L374.677 370.845ZM389.299 350.847C388.01 352.59 386.048 353.589 383.886 353.589C381.725 353.589 379.745 352.59 378.474 350.847L360.092 325.526H360.074L358.53 323.438C355.369 319.115 355.369 313.284 358.53 308.961L383.905 274.232L394.367 288.563L382.415 304.929C377.493 311.667 377.493 320.731 382.415 327.488L394.367 343.854L389.299 350.847ZM398.617 294.376L409.298 308.979C412.458 313.302 412.458 319.133 409.298 323.456L398.617 338.059L387.937 323.456C384.776 319.133 384.776 313.302 387.937 308.979L398.617 294.376ZM414.819 327.488C419.742 320.749 419.742 311.686 414.819 304.929L402.868 288.563L413.294 274.305L438.614 308.979C441.774 313.302 441.774 319.133 438.596 323.474L434.545 329.105L418.779 350.828C417.508 352.572 415.528 353.571 413.366 353.571C411.223 353.571 409.279 352.59 407.99 350.883L402.849 343.854L414.819 327.488ZM468.021 323.456L433.401 370.845C432.129 372.589 430.15 373.588 427.988 373.588C425.827 373.588 423.847 372.589 422.575 370.845L414.892 360.328C418.652 359.91 422.03 357.967 424.301 354.843L437.851 336.188L437.869 336.207L440.085 333.119L442.683 329.541L442.664 329.522L444.136 327.47C449.058 320.731 449.058 311.667 444.136 304.911L417.526 268.51L422.575 261.59C423.847 259.846 425.827 258.847 427.988 258.847C430.15 258.847 432.129 259.846 433.401 261.59L468.021 308.979C471.181 313.32 471.181 319.133 468.021 323.456Z" fill="url(#paint2_linear)"/>
<path opacity="0.4" d="M383.869 360.419C383.342 360.419 382.834 360.382 382.307 360.328L374.878 370.572L380.491 374.532L394.077 355.878C391.516 358.784 387.811 360.419 383.869 360.419Z" fill="url(#paint3_linear)"/>
<path opacity="0.4" d="M413.33 360.418C413.856 360.418 414.365 360.382 414.892 360.327L422.321 370.572L416.708 374.532L403.194 355.896C405.755 358.802 409.406 360.418 413.33 360.418Z" fill="url(#paint4_linear)"/>
<path opacity="0.4" d="M394.332 343.817L398.655 349.72L392.08 358.547L387.757 352.808L394.332 343.817Z" fill="url(#paint5_linear)"/>
<path opacity="0.6" d="M379.671 268.437L383.939 274.286L368.537 295.428L363.16 291.178L379.671 268.437Z" fill="url(#paint6_linear)"/>
<path opacity="0.6" d="M394.404 288.563L398.6 294.412L388.792 307.981L383.415 303.712L394.404 288.563Z" fill="url(#paint7_linear)"/>
<path opacity="0.6" d="M409.043 268.509L413.275 274.322L402.867 288.562L398.635 282.75L409.043 268.509Z" fill="url(#paint8_linear)"/>
<defs>
<linearGradient id="paint0_linear" x1="207.03" y1="547.089" x2="554.424" y2="162.213" gradientUnits="userSpaceOnUse">
<stop stop-color="#FF8506"/>
<stop offset="0.5805" stop-color="#FD3947"/>
<stop offset="1" stop-color="#FB0078"/>
</linearGradient>
<linearGradient id="paint1_linear" x1="100.059" y1="344.162" x2="617.853" y2="317.658" gradientUnits="userSpaceOnUse">
<stop stop-color="#FF8506"/>
<stop offset="0.5805" stop-color="#FD3947"/>
<stop offset="1" stop-color="#FB0078"/>
</linearGradient>
<linearGradient id="paint2_linear" x1="349.022" y1="365.823" x2="448.225" y2="266.619" gradientUnits="userSpaceOnUse">
<stop stop-color="#FF8506"/>
<stop offset="0.5805" stop-color="#FD3947"/>
<stop offset="1" stop-color="#FB0078"/>
</linearGradient>
<linearGradient id="paint3_linear" x1="389.779" y1="355.739" x2="378.191" y2="372.139" gradientUnits="userSpaceOnUse">
<stop stop-color="#78005B"/>
<stop offset="0.3483" stop-color="#7A025A" stop-opacity="0.6517"/>
<stop offset="0.51" stop-color="#820955" stop-opacity="0.49"/>
<stop offset="0.6332" stop-color="#8E154E" stop-opacity="0.3668"/>
<stop offset="0.7369" stop-color="#A12643" stop-opacity="0.2631"/>
<stop offset="0.8283" stop-color="#B83C36" stop-opacity="0.1717"/>
<stop offset="0.9111" stop-color="#D65725" stop-opacity="0.0889"/>
<stop offset="0.9857" stop-color="#F87711" stop-opacity="0.0143"/>
<stop offset="1" stop-color="#FF7E0D" stop-opacity="0"/>
</linearGradient>
<linearGradient id="paint4_linear" x1="418.092" y1="370.918" x2="407.185" y2="355.23" gradientUnits="userSpaceOnUse">
<stop stop-color="#FF7E0D" stop-opacity="0"/>
<stop offset="0.00928743" stop-color="#F97811" stop-opacity="0.0127"/>
<stop offset="0.0651" stop-color="#D65825" stop-opacity="0.0888"/>
<stop offset="0.1269" stop-color="#B93D36" stop-opacity="0.1729"/>
<stop offset="0.1949" stop-color="#A12643" stop-opacity="0.2657"/>
<stop offset="0.272" stop-color="#8F154E" stop-opacity="0.3707"/>
<stop offset="0.3632" stop-color="#820955" stop-opacity="0.495"/>
<stop offset="0.4822" stop-color="#7A025A" stop-opacity="0.6573"/>
<stop offset="0.7336" stop-color="#78005B"/>
</linearGradient>
<linearGradient id="paint5_linear" x1="390.159" y1="355.655" x2="398.979" y2="342.969" gradientUnits="userSpaceOnUse">
<stop stop-color="#FF7E0D" stop-opacity="0"/>
<stop offset="0.0133" stop-color="#F97910" stop-opacity="0.0192"/>
<stop offset="0.1144" stop-color="#D25427" stop-opacity="0.1659"/>
<stop offset="0.219" stop-color="#B1363A" stop-opacity="0.3175"/>
<stop offset="0.3263" stop-color="#981E48" stop-opacity="0.4731"/>
<stop offset="0.4375" stop-color="#860D53" stop-opacity="0.6344"/>
<stop offset="0.5551" stop-color="#7B0359" stop-opacity="0.8048"/>
<stop offset="0.6897" stop-color="#78005B"/>
</linearGradient>
<linearGradient id="paint6_linear" x1="364.015" y1="292.029" x2="383.641" y2="272.403" gradientUnits="userSpaceOnUse">
<stop stop-color="#FF4630" stop-opacity="0"/>
<stop offset="0.5722" stop-color="#B31F48" stop-opacity="0.5722"/>
<stop offset="1" stop-color="#78005B"/>
</linearGradient>
<linearGradient id="paint7_linear" x1="384.775" y1="305.086" x2="397.847" y2="292.013" gradientUnits="userSpaceOnUse">
<stop stop-color="#FF4630" stop-opacity="0"/>
<stop offset="0.5722" stop-color="#B31F48" stop-opacity="0.5722"/>
<stop offset="1" stop-color="#78005B"/>
</linearGradient>
<linearGradient id="paint8_linear" x1="399.403" y1="285.087" x2="412.518" y2="271.971" gradientUnits="userSpaceOnUse">
<stop stop-color="#FF4630" stop-opacity="0"/>
<stop offset="0.5722" stop-color="#B31F48" stop-opacity="0.5722"/>
<stop offset="1" stop-color="#78005B"/>
</linearGradient>
</defs>
</svg>
