<svg width="141" height="28" viewBox="0 0 141 28" fill="none" xmlns="http://www.w3.org/2000/svg">
<g clip-path="url(#clip0)">
<path d="M12.5576 14.3182C12.5576 15.0466 13.1241 15.613 13.8524 15.613C14.5807 15.613 15.1472 15.0466 15.1472 14.3182C15.1472 13.5899 14.5807 13.0234 13.8524 13.0234C13.1241 13.0234 12.5576 13.5899 12.5576 14.3182ZM23.4825 13.0234C22.7541 13.0234 22.1877 13.5899 22.1877 14.3182C22.1877 15.0466 22.7541 15.613 23.4825 15.613C24.2108 15.613 24.7773 15.0466 24.7773 14.3182C24.7773 13.5899 24.2108 13.0234 23.4825 13.0234ZM23.4825 22.8153C22.7541 22.8153 22.1877 23.3818 22.1877 24.1101C22.1877 24.8385 22.7541 25.4049 23.4825 25.4049C24.2108 25.4049 24.7773 24.8385 24.7773 24.1101C24.7773 23.3818 24.2108 22.8153 23.4825 22.8153Z" fill="white"/>
<path d="M26.2342 2.2604C24.9394 0.641907 22.5926 0.560982 21.2169 1.85578L21.055 2.01763L20.7313 2.2604C19.4365 3.31243 17.4943 3.2315 16.2805 2.01763V1.9367C15.8759 1.53208 15.3094 1.20838 14.7429 1.04653C14.662 1.04653 14.5001 0.965606 14.4192 0.965606H13.1244C13.0435 0.965606 12.9626 0.965606 12.8816 1.04653H12.7198C12.6389 1.04653 12.5579 1.12746 12.477 1.12746C12.477 1.12746 12.3961 1.12746 12.3961 1.20838C12.3152 1.20838 12.2342 1.28931 12.1533 1.28931C12.1533 1.28931 12.0724 1.28931 12.0724 1.37023C11.9915 1.45116 11.9105 1.45116 11.8296 1.53208C11.8296 1.53208 11.7487 1.53208 11.7487 1.61301C11.6678 1.69393 11.5868 1.69393 11.5059 1.77485L11.425 1.85578L11.2631 2.01763L10.9394 2.2604C9.64464 3.31243 7.70244 3.2315 6.56949 2.01763C6.56949 2.01763 6.48857 2.01763 6.48857 1.9367L6.32672 1.77485C5.84117 1.37023 5.2747 1.04653 4.6273 0.965606H4.3036H3.25157H3.17065C3.17065 1.04653 3.08973 1.04653 3.0088 1.12746H2.92788C2.52325 1.28931 2.11863 1.45116 1.79493 1.77485L1.714 1.85578L1.47123 2.09855C1.14753 2.42225 0.985679 2.82688 0.823829 3.15058C0.823829 3.2315 0.742904 3.31243 0.742904 3.39335C0.742904 3.47428 0.66198 3.5552 0.66198 3.71705C0.581055 4.28353 0.581055 4.85 0.742904 5.41647C0.742904 5.4974 0.823829 5.57832 0.823829 5.65925V5.74017C0.823829 5.8211 0.904754 5.90202 0.904754 5.98295C0.985679 6.06387 0.985679 6.1448 1.0666 6.30665C1.22845 6.38757 1.3903 6.54942 1.47123 6.63035L1.63308 6.7922L1.79493 6.95405C3.0088 8.16792 3.0088 10.272 1.714 11.5668C1.55215 11.7286 1.30938 11.9714 1.22845 12.1332C1.14753 12.2142 1.14753 12.2951 1.0666 12.4569V12.5379C0.985679 12.6188 0.985679 12.6997 0.904754 12.7806V12.8616C0.904754 12.9425 0.823829 13.0234 0.823829 13.1043V13.1853C0.823829 13.2662 0.823829 13.3471 0.742904 13.428V14.6419C0.742904 14.7228 0.742904 14.8038 0.823829 14.8847V14.9656C0.985679 15.5321 1.30938 16.0986 1.79493 16.5841C3.08973 17.8789 3.08973 19.9829 1.79493 21.2777L1.714 21.3587L1.55215 21.5205V21.6014C1.47123 21.6824 1.3903 21.7633 1.3903 21.8442C1.3903 21.8442 1.3903 21.9251 1.30938 21.9251C1.22845 22.0061 1.22845 22.087 1.14753 22.1679L1.0666 22.2488C1.0666 22.3298 0.985679 22.3298 0.985679 22.4107C0.985679 22.4916 0.904754 22.4916 0.904754 22.5725C0.904754 22.6535 0.904754 22.6535 0.823829 22.7344C0.66198 23.0581 0.581055 23.4627 0.581055 23.7864V24.4338C0.66198 24.6766 0.66198 24.9194 0.823829 25.0812C0.823829 25.1621 0.904754 25.2431 0.904754 25.2431C0.904754 25.2431 0.904754 25.324 0.985679 25.324C0.985679 25.4049 1.0666 25.4858 1.0666 25.5668C1.0666 25.5668 1.0666 25.6477 1.14753 25.6477C1.22845 25.8095 1.30938 25.8905 1.3903 25.9714C1.3903 25.9714 1.3903 26.0523 1.47123 26.0523C1.47123 26.0523 1.47123 26.1332 1.55215 26.1332C1.55215 26.2142 1.63308 26.2142 1.63308 26.2142L1.714 26.2951C1.79493 26.376 1.87585 26.376 1.87585 26.4569L1.95678 26.5379C1.95678 26.5379 2.0377 26.5379 2.0377 26.6188C2.11863 26.6997 2.19955 26.7806 2.28048 26.7806C2.28048 26.7806 2.3614 26.7806 2.3614 26.8616C2.44233 26.9425 2.52325 26.9425 2.60418 27.0234H2.6851C2.76603 27.1043 2.84695 27.1043 3.0088 27.1043C3.08973 27.1043 3.25157 27.1853 3.3325 27.1853H3.41342C3.49435 27.1853 3.57527 27.1853 3.6562 27.2662H4.38452C4.6273 27.2662 4.78915 27.1853 5.03192 27.1853H5.11285C5.19377 27.1853 5.2747 27.1043 5.35562 27.1043H5.43655C5.51747 27.1043 5.5984 27.0234 5.67932 27.0234H5.76025C5.9221 26.9425 6.16487 26.7806 6.32672 26.6997L6.56949 26.4569L6.65042 26.376C7.94522 25.0003 10.0493 25.0003 11.3441 26.376C12.8007 27.9136 15.2285 27.8327 16.6042 26.1332C17.5753 24.9194 17.5753 23.139 16.6042 21.8442C15.3094 20.2257 12.9626 20.1448 11.5868 21.4396L11.425 21.6014L11.1013 21.8442C9.80649 22.8962 7.86429 22.8153 6.65042 21.6014L6.48857 21.4396L6.24579 21.1159C5.19377 19.8211 5.2747 17.8789 6.48857 16.665C7.21689 16.0176 7.54059 15.1275 7.54059 14.2373V14.0754V13.9945C7.54059 13.1853 7.21689 12.376 6.56949 11.8095C6.56949 11.7286 6.48857 11.7286 6.48857 11.6477L6.24579 11.324C5.19377 10.0292 5.2747 8.08699 6.48857 6.87312L6.56949 6.7922L6.65042 6.71127C7.94522 5.33555 10.0493 5.33555 11.3441 6.71127L11.425 6.7922L11.5059 6.87312L11.6678 7.03497C11.7487 7.03497 11.7487 7.1159 11.8296 7.1159C11.9105 7.1159 11.9105 7.19682 11.9915 7.19682C12.0724 7.19682 12.0724 7.27775 12.1533 7.27775C12.2342 7.27775 12.2342 7.35867 12.3152 7.35867C12.3961 7.35867 12.3961 7.4396 12.477 7.4396C12.5579 7.4396 12.5579 7.52052 12.6389 7.52052C12.7198 7.52052 12.7198 7.52052 12.8007 7.60144C12.8816 7.60144 12.8816 7.60144 12.9626 7.68237H14.3383C14.4192 7.68237 14.5001 7.68237 14.5811 7.60144H14.7429C14.8238 7.60144 14.9048 7.52052 14.9857 7.52052H15.0666C15.1475 7.52052 15.2285 7.43959 15.3903 7.35867C15.714 7.19682 16.0377 6.95405 16.2805 6.71127L16.3614 6.63035C17.6562 5.25462 19.7602 5.25462 21.055 6.63035C22.4308 8.24884 24.9394 8.16792 26.2342 6.4685C27.2053 5.25462 27.2053 3.47428 26.2342 2.2604Z" fill="white"/>
<path d="M44.6855 12.2952C44.1999 11.8096 43.7953 11.4859 43.2288 11.2431C42.7433 11.0004 42.1768 10.8385 41.4485 10.8385C40.8011 10.8385 40.1537 11.0004 39.6681 11.2431C39.1826 11.4859 38.7779 11.8096 38.4542 12.2952C38.1305 12.6998 37.8878 13.1853 37.7259 13.7518C37.5641 14.3183 37.4831 14.8848 37.4831 15.4512C37.4831 16.0177 37.5641 16.5842 37.8068 17.1507C37.9687 17.7171 38.2924 18.1218 38.6161 18.5264C38.9398 18.931 39.4253 19.2547 39.9109 19.4975C40.3964 19.7403 40.9629 19.8212 41.6103 19.8212C42.3386 19.8212 42.9051 19.6593 43.3907 19.4166C43.8762 19.1738 44.3618 18.8501 44.7664 18.3645L46.4658 20.1449C45.8184 20.8732 45.0901 21.3588 44.2808 21.6825C43.4716 22.0062 42.5814 22.168 41.6103 22.168C40.6392 22.168 39.6681 22.0062 38.8589 21.6825C38.0496 21.3588 37.3213 20.8732 36.7548 20.3067C36.1884 19.7403 35.7028 19.0119 35.3791 18.2027C35.0554 17.3934 34.8936 16.4223 34.8936 15.4512C34.8936 14.4801 35.0554 13.509 35.3791 12.6998C35.7028 11.8905 36.1884 11.1622 36.7548 10.5148C37.3213 9.94835 38.0496 9.4628 38.8589 9.1391C39.6681 8.8154 40.6392 8.65355 41.6103 8.65355C42.5814 8.65355 43.4716 8.8154 44.2808 9.1391C45.171 9.4628 45.8993 10.0293 46.5467 10.6767L44.6855 12.2952ZM50.1884 15.2894C50.1884 15.9368 50.2693 16.5842 50.5121 17.0697C50.6739 17.6362 50.9976 18.1218 51.3213 18.5264C51.645 18.931 52.1306 19.2547 52.6161 19.4166C53.1016 19.6593 53.749 19.7403 54.3964 19.7403C55.0438 19.7403 55.6103 19.6593 56.1768 19.4166C56.6623 19.1738 57.1479 18.8501 57.4716 18.5264C57.7953 18.1218 58.119 17.6362 58.2808 17.0697C58.4427 16.5033 58.6045 15.9368 58.6045 15.2894C58.6045 14.642 58.5236 13.9946 58.2808 13.509C58.119 12.9426 57.7953 12.457 57.4716 12.0524C57.1479 11.6478 56.6623 11.3241 56.1768 11.1622C55.6912 10.9194 55.0438 10.8385 54.3964 10.8385C53.749 10.8385 53.1826 10.9194 52.6161 11.1622C52.1306 11.405 51.645 11.7287 51.3213 12.0524C50.9976 12.457 50.6739 12.9426 50.5121 13.509C50.3502 14.0755 50.1884 14.642 50.1884 15.2894ZM47.5988 15.2894C47.5988 14.3183 47.7606 13.4281 48.0843 12.6189C48.408 11.8096 48.8936 11.0813 49.541 10.4339C50.1884 9.7865 50.8358 9.30095 51.7259 8.97725C52.5352 8.65355 53.4253 8.41078 54.3964 8.41078C55.3675 8.41078 56.2577 8.57263 57.067 8.97725C57.8762 9.30095 58.6045 9.7865 59.2519 10.4339C59.8993 11.0813 60.304 11.8096 60.7086 12.6189C61.0323 13.4281 61.1941 14.3183 61.1941 15.2894C61.1941 16.2605 61.0323 17.1507 60.7086 17.9599C60.3849 18.7692 59.8993 19.4975 59.2519 20.1449C58.6045 20.7923 57.9571 21.1969 57.067 21.6015C56.2577 21.9252 55.3675 22.168 54.3964 22.168C53.4253 22.168 52.5352 22.0062 51.7259 21.6015C50.9167 21.2778 50.1884 20.7923 49.541 20.1449C48.8936 19.4975 48.4889 18.8501 48.0843 17.9599C47.8415 17.1507 47.5988 16.2605 47.5988 15.2894ZM63.7028 21.8443H66.1305V8.89633H63.7028V21.8443ZM63.1363 4.20268C63.1363 3.71714 63.2982 3.31251 63.6219 2.90789C63.9456 2.58419 64.3502 2.34141 64.8358 2.34141C65.3213 2.34141 65.7259 2.50326 66.0496 2.90789C66.3733 3.23159 66.5352 3.71714 66.5352 4.20268C66.5352 4.68823 66.3733 5.09286 66.0496 5.49748C65.7259 5.82118 65.3213 6.06396 64.8358 6.06396C64.3502 6.06396 63.9456 5.90211 63.6219 5.49748C63.2982 5.17378 63.1363 4.68823 63.1363 4.20268ZM69.5294 8.89633H71.9571V10.9194H72.0381C72.3618 10.1911 72.8473 9.62465 73.6566 9.22003C74.3849 8.8154 75.2751 8.57263 76.3271 8.57263C76.9745 8.57263 77.541 8.65355 78.1074 8.89633C78.6739 9.05818 79.1595 9.38188 79.5641 9.7865C79.9687 10.1911 80.2924 10.6767 80.6161 11.3241C80.8589 11.9715 81.0207 12.6998 81.0207 13.59V21.9252H78.593V14.2374C78.593 13.6709 78.5121 13.1044 78.3502 12.6998C78.1884 12.2952 77.9456 11.8905 77.7028 11.6478C77.46 11.405 77.1363 11.1622 76.7317 11.0813C76.408 11.0004 76.0034 10.9194 75.5988 10.9194C75.1132 10.9194 74.6277 11.0004 74.223 11.1622C73.8184 11.3241 73.4138 11.5668 73.0901 11.9715C72.7664 12.2952 72.5236 12.7807 72.3618 13.3472C72.1999 13.9137 72.119 14.5611 72.119 15.2894V22.0062H69.6912V8.89633H69.5294ZM90.0034 19.8212C90.6508 19.8212 91.2173 19.7403 91.7837 19.4975C92.3502 19.2547 92.7548 18.931 93.1595 18.5264C93.4832 18.1218 93.8069 17.6362 93.9687 17.0697C94.1306 16.5033 94.2924 15.9368 94.2924 15.2085C94.2924 14.5611 94.2115 13.9137 93.9687 13.3472C93.8069 12.7807 93.4832 12.2952 93.1595 11.8905C92.7548 11.4859 92.3502 11.1622 91.7837 10.9194C91.2173 10.6767 90.6508 10.5957 90.0034 10.5957C89.356 10.5957 88.7895 10.6767 88.223 10.9194C87.6566 11.1622 87.2519 11.4859 86.8473 11.8905C86.5236 12.2952 86.1999 12.7807 86.0381 13.3472C85.8762 13.9137 85.7144 14.4801 85.7144 15.2085C85.7144 15.8559 85.7953 16.5033 86.0381 17.0697C86.1999 17.6362 86.5236 18.1218 86.8473 18.5264C87.171 18.931 87.6566 19.2547 88.223 19.4975C88.7086 19.6593 89.356 19.8212 90.0034 19.8212ZM96.7201 21.7634H94.2924V19.9021H94.2115C93.7259 20.6304 93.0785 21.116 92.2693 21.5206C91.46 21.9252 90.5699 22.0871 89.6797 22.0871C88.7086 22.0871 87.7375 21.9252 86.9282 21.6015C86.119 21.2778 85.3907 20.7923 84.8242 20.1449C84.2577 19.4975 83.7722 18.7692 83.5294 17.9599C83.2057 17.1507 83.0438 16.2605 83.0438 15.2894C83.0438 14.3183 83.2057 13.4281 83.5294 12.5379C83.8531 11.7287 84.2577 11.0004 84.8242 10.353C85.3907 9.70557 86.119 9.22003 86.9282 8.89633C87.7375 8.57263 88.6277 8.41078 89.6797 8.41078C90.5699 8.41078 91.46 8.57263 92.2693 8.97725C93.0785 9.38188 93.7259 9.94835 94.1305 10.5957H94.2115V0.884766H96.6392V21.7634H96.7201ZM109.102 14.2374C109.102 13.6709 109.021 13.1853 108.859 12.6998C108.697 12.2142 108.454 11.8096 108.131 11.4859C107.807 11.1622 107.402 10.9194 106.998 10.6767C106.512 10.5148 106.027 10.353 105.379 10.353C104.813 10.353 104.246 10.4339 103.761 10.6767C103.275 10.9194 102.87 11.1622 102.466 11.5668C102.142 11.8905 101.818 12.2952 101.657 12.7807C101.495 13.2663 101.333 13.6709 101.333 14.0755H109.102V14.2374ZM101.333 16.2605C101.333 16.827 101.495 17.3125 101.737 17.7981C101.98 18.2836 102.304 18.6882 102.709 19.0119C103.113 19.3356 103.599 19.5784 104.084 19.7403C104.651 19.9021 105.136 19.983 105.703 19.983C106.431 19.983 107.159 19.8212 107.726 19.4166C108.292 19.0929 108.778 18.6073 109.263 18.0408L111.125 19.4975C109.749 21.2778 107.807 22.168 105.379 22.168C104.327 22.168 103.437 22.0062 102.628 21.6825C101.818 21.3588 101.09 20.8732 100.524 20.2258C99.9571 19.5784 99.4716 18.931 99.2288 18.0408C98.9051 17.2316 98.7433 16.3414 98.7433 15.3703C98.7433 14.3992 98.9051 13.509 99.2288 12.6998C99.5525 11.8905 100.038 11.1622 100.605 10.5148C101.171 9.86742 101.899 9.4628 102.709 9.05818C103.518 8.73448 104.408 8.57263 105.379 8.57263C106.512 8.57263 107.483 8.73448 108.292 9.1391C109.102 9.54372 109.749 10.0293 110.235 10.6767C110.72 11.3241 111.125 12.0524 111.368 12.8616C111.61 13.6709 111.691 14.4801 111.691 15.3703V16.2605H101.333ZM121.24 12.1333C120.917 11.8096 120.593 11.4859 120.188 11.2431C119.784 11.0004 119.217 10.8385 118.651 10.8385C118.084 10.8385 117.599 11.0004 117.113 11.2431C116.709 11.4859 116.466 11.8096 116.466 12.2952C116.466 12.6998 116.628 13.0235 116.87 13.1853C117.113 13.4281 117.437 13.59 117.761 13.7518C118.084 13.9137 118.489 13.9946 118.813 14.0755C119.217 14.1564 119.541 14.2374 119.784 14.2374C120.269 14.3992 120.836 14.4801 121.24 14.7229C121.726 14.8848 122.131 15.1275 122.454 15.4512C122.778 15.7749 123.021 16.0986 123.264 16.5033C123.425 16.9079 123.587 17.3934 123.587 18.0408C123.587 18.7692 123.425 19.4166 123.102 19.9021C122.778 20.3877 122.373 20.8732 121.888 21.1969C121.402 21.5206 120.836 21.7634 120.188 21.9252C119.541 22.0871 118.894 22.168 118.327 22.168C117.275 22.168 116.304 22.0062 115.495 21.6825C114.685 21.3588 113.957 20.7923 113.31 19.9021L115.171 18.3645C115.576 18.7692 115.98 19.0929 116.466 19.4166C116.951 19.7403 117.518 19.9021 118.246 19.9021C118.57 19.9021 118.894 19.9021 119.217 19.8212C119.541 19.7403 119.784 19.6593 120.027 19.4975C120.269 19.3356 120.431 19.1738 120.593 19.0119C120.755 18.7692 120.836 18.5264 120.836 18.2836C120.836 17.9599 120.755 17.6362 120.512 17.3934C120.269 17.1507 120.026 16.9888 119.703 16.827C119.379 16.6651 119.055 16.5842 118.732 16.5033L117.761 16.2605C117.275 16.0986 116.709 16.0177 116.304 15.8559C115.818 15.694 115.414 15.4512 115.09 15.2085C114.766 14.9657 114.443 14.5611 114.2 14.1564C113.957 13.7518 113.876 13.1853 113.876 12.6189C113.876 11.9715 114.038 11.3241 114.281 10.8385C114.524 10.353 114.928 9.94835 115.414 9.62465C115.899 9.30095 116.385 9.05818 116.951 8.89633C117.518 8.73448 118.165 8.65355 118.732 8.65355C119.622 8.65355 120.431 8.8154 121.24 9.1391C122.05 9.4628 122.697 10.0293 123.183 10.7576L121.24 12.1333ZM125.934 1.20847H128.362V14.3183L133.865 8.8154H137.183L131.275 14.642L137.749 21.6015H134.269L128.362 14.9657V21.6015H125.934V1.20847Z" fill="white"/>
</g>
<defs>
<clipPath id="clip0">
<rect width="140" height="26.7052" fill="white" transform="translate(0.581055 0.884766)"/>
</clipPath>
</defs>
</svg>
