<svg width="180" height="80" viewBox="0 0 180 80" fill="none" xmlns="http://www.w3.org/2000/svg">
<rect width="180" height="80" rx="8" fill="#333333"/>
<path d="M40.3233 47.8468L34.49 50.3901V50.1335C33.37 50.4135 32.11 50.5768 30.9433 50.6468C25.4367 50.6001 21.0967 47.7068 21.0267 44.3001V43.0401C22.8233 45.6535 26.51 47.4268 30.9433 47.3568C32.4367 47.4268 33.9767 47.1935 35.26 46.8435L35.7733 45.5835C34.2567 46.0501 32.5767 46.3535 30.9433 46.3535C25.4367 46.3535 21.0967 43.4835 21.0267 40.0068V38.9801C22.8233 41.4068 26.51 43.1568 30.9433 43.0401C32.95 43.1568 34.8867 42.7368 36.5433 42.0135L36.8 40.7535C35.19 41.5935 33.1133 42.0835 30.9667 42.0135C25.46 42.0835 21.12 39.2135 21.05 35.6668V34.6401C22.8467 37.1135 26.5333 38.8868 30.9667 38.9568C33.4867 38.8868 35.8667 38.2101 37.8267 37.1835L38.0833 35.6668C36.31 36.9735 33.72 37.8368 30.9667 37.9535C25.46 37.8368 21.12 34.9435 21.05 31.3501C21.0967 27.9201 25.46 25.0501 30.9667 25.0035C34.2333 25.0501 37.29 26.1935 39.0867 28.0601L39.2733 28.3635H40.5567L40.37 28.0601C38.5733 25.6101 34.9567 24.0001 30.9667 24.0001C24.8533 23.9768 20 27.3135 20 31.3268V31.5835V44.5335C20.21 48.4535 24.9467 51.6501 30.92 51.6501C34.8633 51.6735 38.4333 50.1101 40.3233 47.8468Z" fill="white"/>
<path d="M37.9434 56.7834L39.9967 48.0567L34.0934 50.6234L37.6867 35.5034H30.78L32.5767 28.0601H54.6267L52.83 35.5034H45.6434L44.1034 39.6101L52.06 36.2734L37.9434 56.7834ZM41.5367 46.2834L40.51 51.4167L48.98 38.6067L42.05 41.6867L45.13 34.5001H52.06L53.3434 29.1101H33.3234L32.04 34.5001H38.97L35.6334 48.8501L41.5367 46.2834Z" fill="white"/>
<path d="M69.2567 33.0537V33.077C69.2801 33.8937 69.0234 34.5237 68.5101 34.9904C67.9967 35.457 67.2967 35.6904 66.3867 35.6904C65.4767 35.6904 64.7301 35.387 64.1701 34.8037C63.6101 34.2204 63.3301 33.4504 63.3301 32.517V31.0004C63.3301 30.067 63.6101 29.297 64.1467 28.7137C64.7067 28.1304 65.4301 27.827 66.3167 27.827C67.2501 27.827 67.9734 28.0604 68.5101 28.5037C69.0467 28.9704 69.3034 29.6004 69.2801 30.417V30.4404H67.7867C67.7867 29.9504 67.6701 29.577 67.4367 29.3437C67.2034 29.1104 66.8301 28.9937 66.3401 28.9937C65.8734 28.9937 65.5234 29.1804 65.2667 29.5537C65.0101 29.927 64.8701 30.3937 64.8701 30.977V32.517C64.8701 33.1004 65.0101 33.5904 65.2667 33.9637C65.5467 34.337 65.9201 34.5237 66.4101 34.5237C66.8767 34.5237 67.2034 34.407 67.4367 34.1737C67.6701 33.9404 67.7867 33.567 67.7867 33.077H69.2567V33.0537ZM77.7034 32.447C77.7034 33.3804 77.4001 34.1737 76.8167 34.7804C76.2334 35.387 75.4634 35.6904 74.5067 35.6904C73.5501 35.6904 72.8034 35.387 72.1967 34.7804C71.6134 34.1737 71.3101 33.3804 71.3101 32.447V31.0704C71.3101 30.137 71.6134 29.367 72.1967 28.737C72.7801 28.1304 73.5501 27.8037 74.4834 27.8037C75.4401 27.8037 76.2101 28.107 76.7934 28.737C77.4001 29.3437 77.6801 30.137 77.6801 31.0704V32.447H77.7034ZM76.1634 31.047C76.1634 30.4404 76.0234 29.9737 75.7201 29.577C75.4167 29.2037 75.0201 28.9937 74.4834 28.9937C73.9701 28.9937 73.5501 29.1804 73.2701 29.577C72.9901 29.9504 72.8267 30.4404 72.8267 31.047V32.4237C72.8267 33.0304 72.9667 33.5204 73.2701 33.917C73.5501 34.2904 73.9701 34.5004 74.4834 34.5004C75.0201 34.5004 75.4167 34.3137 75.7201 33.917C76.0234 33.5437 76.1634 33.0304 76.1634 32.4237V31.047ZM81.6701 35.5737H80.1301V27.9204H81.6701V35.5737ZM90.5134 35.5737H88.9734L85.8934 30.417H85.8701V35.5737H84.3301V27.9204H85.8701L88.9501 33.077H88.9734V27.9204H90.5134V35.5737ZM98.2367 29.1104H96.0434V35.5737H94.5034V29.1104H92.3567V27.9204H98.2367V29.1104ZM104.583 32.2137H101.737V34.407H105.12V35.5737H100.22V27.9204H105.12V29.1104H101.76V31.0237H104.607V32.2137H104.583ZM108.853 34.407H112.283V35.5737H107.313V27.9204H108.853V34.407ZM118.817 32.2137H115.97V34.407H119.353V35.5737H114.453V27.9204H119.353V29.1104H115.993V31.0237H118.84V32.2137H118.817ZM127.427 34.547C127.193 34.8504 126.843 35.1304 126.353 35.3637C125.887 35.597 125.28 35.7137 124.533 35.7137C123.6 35.7137 122.853 35.4337 122.27 34.8504C121.687 34.267 121.383 33.5204 121.383 32.587V30.977C121.383 30.0437 121.663 29.297 122.247 28.7137C122.807 28.1304 123.553 27.827 124.44 27.827C125.373 27.827 126.097 28.0604 126.587 28.5037C127.077 28.947 127.333 29.5304 127.31 30.277V30.3004H125.863C125.863 29.9037 125.747 29.577 125.513 29.3437C125.28 29.1104 124.93 28.9937 124.487 28.9937C124.02 28.9937 123.647 29.1804 123.343 29.5304C123.063 29.9037 122.923 30.3704 122.923 30.9304V32.5404C122.923 33.1237 123.063 33.5904 123.367 33.9637C123.67 34.337 124.067 34.5004 124.557 34.5004C124.93 34.5004 125.21 34.4537 125.42 34.3837C125.63 34.3137 125.793 34.2204 125.91 34.1037V32.6104H124.44V31.537H127.45V34.547H127.427ZM131.393 32.517V35.5737H129.853V27.9204H132.513C133.377 27.9204 134.077 28.1304 134.567 28.527C135.057 28.9237 135.313 29.4837 135.313 30.1837C135.313 30.5804 135.22 30.907 135.01 31.2104C134.8 31.4904 134.497 31.7237 134.1 31.9104C134.543 32.0504 134.87 32.2604 135.08 32.587C135.267 32.8904 135.383 33.287 135.383 33.7537V34.3137C135.383 34.5237 135.407 34.757 135.477 34.9904C135.523 35.2237 135.64 35.387 135.78 35.5037V35.6204H134.193C134.053 35.5037 133.96 35.317 133.913 35.0604C133.867 34.8037 133.843 34.547 133.843 34.3137V33.777C133.843 33.4037 133.75 33.1004 133.54 32.8904C133.33 32.6804 133.027 32.5637 132.653 32.5637H131.393V32.517ZM131.393 31.3504H132.49C132.91 31.3504 133.237 31.257 133.447 31.0704C133.657 30.8837 133.773 30.627 133.773 30.2537C133.773 29.9037 133.657 29.6237 133.447 29.4137C133.237 29.2037 132.933 29.1104 132.513 29.1104H131.393V31.3504ZM141.823 33.9404H139.35L138.837 35.597H137.227L139.817 27.9437H141.38L143.947 35.597H142.337L141.823 33.9404ZM139.723 32.727H141.45L140.61 30.0204H140.587L139.723 32.727ZM147.353 32.797V35.5737H145.813V27.9204H148.753C149.64 27.9204 150.317 28.1537 150.83 28.597C151.343 29.0404 151.577 29.647 151.577 30.3704C151.577 31.0937 151.32 31.7004 150.83 32.1437C150.317 32.587 149.64 32.8204 148.753 32.8204H147.353V32.797ZM147.353 31.6304H148.753C149.173 31.6304 149.5 31.5137 149.733 31.2804C149.943 31.047 150.06 30.7437 150.06 30.3937C150.06 30.0204 149.943 29.717 149.733 29.4837C149.523 29.2504 149.197 29.1337 148.753 29.1337H147.353V31.6304ZM160 35.5737H158.46V32.4004H155.333V35.5737H153.793V27.9204H155.333V31.2104H158.46V27.9204H160V35.5737Z" fill="white"/>
<path d="M66.1299 48.0804H65.1732V43.0404H63.4465V42.2237H67.8565V43.0404H66.1299V48.0804ZM72.5465 48.0804H71.5899V45.3504C71.5899 45.0004 71.5199 44.7437 71.3799 44.5804C71.2399 44.417 71.0299 44.3237 70.7265 44.3237C70.3299 44.3237 70.0499 44.4404 69.8632 44.6737C69.6765 44.907 69.5832 45.3037 69.5832 45.8637V48.057H68.6499V41.827H69.5832V43.4137C69.5832 43.6704 69.5599 43.927 69.5365 44.2304H69.6065C69.7232 44.0204 69.9099 43.857 70.1432 43.7404C70.3765 43.6237 70.6332 43.5537 70.9365 43.5537C72.0099 43.5537 72.5465 44.0904 72.5465 45.187V48.0804ZM75.7899 48.1504C75.0899 48.1504 74.5532 47.9404 74.1799 47.5437C73.7832 47.147 73.5965 46.587 73.5965 45.887C73.5965 45.1637 73.7832 44.6037 74.1332 44.1837C74.4832 43.7637 74.9965 43.5537 75.6265 43.5537C76.2099 43.5537 76.6765 43.7404 77.0032 44.0904C77.3532 44.4404 77.5165 44.9304 77.5165 45.5604V46.0737H74.5532C74.5765 46.4937 74.6932 46.8437 74.9032 47.0537C75.1132 47.287 75.4399 47.4037 75.8365 47.4037C76.0932 47.4037 76.3499 47.3804 76.5599 47.3337C76.7932 47.287 77.0265 47.1937 77.2832 47.077V47.847C77.0499 47.9637 76.8165 48.0337 76.5832 48.0804C76.3732 48.127 76.0932 48.1504 75.7899 48.1504ZM75.6265 44.277C75.3232 44.277 75.0899 44.3704 74.9032 44.557C74.7165 44.7437 74.6232 45.0237 74.5765 45.397H76.5832C76.5832 45.0237 76.4899 44.7437 76.3265 44.557C76.1632 44.3704 75.9299 44.277 75.6265 44.277ZM82.9299 44.347H81.8565V48.0804H80.8999V44.347H80.1765V43.9037L80.8999 43.6237V43.3437C80.8999 42.8304 81.0165 42.4337 81.2732 42.177C81.5299 41.9204 81.9032 41.8037 82.3932 41.8037C82.7199 41.8037 83.0465 41.8504 83.3732 41.967L83.1165 42.6904C82.8832 42.6204 82.6732 42.5737 82.4399 42.5737C82.2299 42.5737 82.0665 42.6437 81.9732 42.7604C81.8799 42.9004 81.8332 43.087 81.8332 43.3437V43.6237H82.9065V44.347H82.9299ZM86.8265 48.0804L86.6865 47.497H86.6399C86.4999 47.707 86.3132 47.8704 86.0799 47.987C85.8465 48.1037 85.5665 48.1737 85.2632 48.1737C84.7265 48.1737 84.3299 48.0337 84.0499 47.777C83.7699 47.5204 83.6532 47.1004 83.6532 46.5637V43.647H84.6099V46.377C84.6099 46.727 84.6799 46.9604 84.8199 47.147C84.9599 47.3104 85.1699 47.4037 85.4732 47.4037C85.8699 47.4037 86.1499 47.287 86.3365 47.0537C86.5232 46.8204 86.6165 46.4237 86.6165 45.8637V43.647H87.5732V48.0804H86.8265ZM90.5599 47.3804C90.7932 47.3804 91.0265 47.3337 91.2599 47.2637V47.9637C91.1665 48.0104 91.0265 48.057 90.8632 48.0804C90.6999 48.1037 90.5365 48.127 90.3499 48.127C89.4632 48.127 89.0199 47.6604 89.0199 46.727V44.347H88.4132V43.927L89.0665 43.577L89.3932 42.6437H89.9765V43.6237H91.2365V44.347H89.9765V46.727C89.9765 46.9604 90.0232 47.1237 90.1399 47.2404C90.2099 47.3337 90.3732 47.3804 90.5599 47.3804ZM95.2499 48.0804L95.1099 47.497H95.0632C94.9232 47.707 94.7365 47.8704 94.5032 47.987C94.2699 48.1037 93.9899 48.1737 93.6865 48.1737C93.1499 48.1737 92.7532 48.0337 92.4732 47.777C92.2165 47.5204 92.0765 47.1004 92.0765 46.5637V43.647H93.0332V46.377C93.0332 46.727 93.1032 46.9604 93.2432 47.147C93.3832 47.3104 93.5932 47.4037 93.8965 47.4037C94.2932 47.4037 94.5732 47.287 94.7599 47.0537C94.9465 46.8204 95.0399 46.4237 95.0399 45.8637V43.647H95.9965V48.0804H95.2499ZM99.5899 43.5537C99.7765 43.5537 99.9399 43.577 100.057 43.6004L99.9632 44.487C99.8232 44.4637 99.6832 44.4404 99.5432 44.4404C99.1699 44.4404 98.8665 44.557 98.6332 44.8137C98.3999 45.0704 98.2832 45.3737 98.2832 45.7704V48.0804H97.3499V43.647H98.0965L98.2132 44.417H98.2599C98.3999 44.1604 98.6099 43.9504 98.8432 43.787C99.0532 43.647 99.3099 43.5537 99.5899 43.5537ZM102.647 48.1504C101.947 48.1504 101.41 47.9404 101.037 47.5437C100.64 47.147 100.453 46.587 100.453 45.887C100.453 45.1637 100.64 44.6037 100.99 44.1837C101.34 43.7637 101.853 43.5537 102.483 43.5537C103.067 43.5537 103.533 43.7404 103.86 44.0904C104.21 44.4404 104.373 44.9304 104.373 45.5604V46.0737H101.41C101.433 46.4937 101.55 46.8437 101.76 47.0537C101.97 47.287 102.297 47.4037 102.693 47.4037C102.95 47.4037 103.207 47.3804 103.417 47.3337C103.65 47.287 103.883 47.1937 104.14 47.077V47.847C103.907 47.9637 103.673 48.0337 103.44 48.0804C103.207 48.127 102.95 48.1504 102.647 48.1504ZM102.483 44.277C102.18 44.277 101.947 44.3704 101.76 44.557C101.573 44.7437 101.48 45.0237 101.433 45.397H103.44C103.44 45.0237 103.347 44.7437 103.183 44.557C102.997 44.3704 102.763 44.277 102.483 44.277ZM111.49 45.8404C111.49 46.5637 111.303 47.1237 110.93 47.5437C110.557 47.9404 110.043 48.1504 109.39 48.1504C108.97 48.1504 108.62 48.057 108.293 47.8704C107.967 47.6837 107.733 47.4037 107.57 47.0537C107.407 46.7037 107.313 46.307 107.313 45.8404C107.313 45.117 107.5 44.557 107.873 44.1604C108.247 43.7637 108.76 43.5537 109.437 43.5537C110.067 43.5537 110.58 43.7637 110.953 44.1837C111.327 44.6037 111.49 45.1404 111.49 45.8404ZM108.27 45.8404C108.27 46.867 108.643 47.3804 109.413 47.3804C110.16 47.3804 110.533 46.867 110.533 45.8404C110.533 44.837 110.16 44.3237 109.413 44.3237C109.017 44.3237 108.737 44.4637 108.55 44.7204C108.363 44.977 108.27 45.3504 108.27 45.8404ZM114.803 44.347H113.73V48.0804H112.773V44.347H112.05V43.9037L112.773 43.6237V43.3437C112.773 42.8304 112.89 42.4337 113.147 42.177C113.403 41.9204 113.777 41.8037 114.267 41.8037C114.593 41.8037 114.92 41.8504 115.247 41.967L114.99 42.6904C114.757 42.6204 114.547 42.5737 114.313 42.5737C114.103 42.5737 113.94 42.6437 113.847 42.7604C113.753 42.877 113.707 43.087 113.707 43.3437V43.6237H114.78V44.347H114.803ZM121.43 48.0804H120.473V45.3504C120.473 45.0004 120.403 44.767 120.287 44.5804C120.17 44.417 119.96 44.3237 119.68 44.3237C119.307 44.3237 119.05 44.4404 118.887 44.6737C118.723 44.907 118.63 45.3037 118.63 45.8637V48.0804H117.697V43.647H118.443L118.583 44.2304H118.63C118.747 44.0204 118.933 43.857 119.167 43.7404C119.4 43.6237 119.657 43.577 119.937 43.577C120.613 43.577 121.08 43.8104 121.29 44.277H121.36C121.5 44.067 121.687 43.8804 121.92 43.7637C122.153 43.647 122.433 43.577 122.737 43.577C123.273 43.577 123.647 43.717 123.903 43.9737C124.137 44.2304 124.277 44.6504 124.277 45.187V48.0804H123.343V45.3504C123.343 45.0004 123.273 44.767 123.157 44.5804C123.017 44.417 122.83 44.3237 122.55 44.3237C122.177 44.3237 121.92 44.4404 121.757 44.6737C121.593 44.907 121.5 45.257 121.5 45.7237V48.0804H121.43ZM129.457 45.8404C129.457 46.5637 129.27 47.1237 128.897 47.5437C128.523 47.9404 128.01 48.1504 127.357 48.1504C126.937 48.1504 126.587 48.057 126.26 47.8704C125.933 47.6837 125.7 47.4037 125.537 47.0537C125.373 46.7037 125.28 46.307 125.28 45.8404C125.28 45.117 125.467 44.557 125.84 44.1604C126.213 43.7637 126.727 43.5537 127.403 43.5537C128.033 43.5537 128.547 43.7637 128.92 44.1837C129.27 44.6037 129.457 45.1404 129.457 45.8404ZM126.237 45.8404C126.237 46.867 126.61 47.3804 127.38 47.3804C128.127 47.3804 128.5 46.867 128.5 45.8404C128.5 44.837 128.127 44.3237 127.38 44.3237C126.983 44.3237 126.703 44.4637 126.517 44.7204C126.33 44.977 126.237 45.3504 126.237 45.8404ZM134.45 48.0804H133.493V45.3504C133.493 45.0004 133.423 44.7437 133.283 44.5804C133.143 44.417 132.933 44.3237 132.63 44.3237C132.233 44.3237 131.93 44.4404 131.767 44.6737C131.603 44.907 131.487 45.3037 131.487 45.8637V48.0804H130.553V43.647H131.3L131.44 44.2304H131.487C131.627 44.0204 131.813 43.857 132.047 43.7404C132.28 43.6237 132.56 43.577 132.863 43.577C133.937 43.577 134.45 44.1137 134.45 45.2104V48.0804ZM137.693 48.1504C136.993 48.1504 136.457 47.9404 136.083 47.5437C135.687 47.147 135.5 46.587 135.5 45.887C135.5 45.1637 135.687 44.6037 136.037 44.1837C136.387 43.7637 136.9 43.5537 137.53 43.5537C138.113 43.5537 138.58 43.7404 138.907 44.0904C139.257 44.4404 139.42 44.9304 139.42 45.5604V46.0737H136.457C136.48 46.4937 136.597 46.8437 136.807 47.0537C137.017 47.287 137.343 47.4037 137.74 47.4037C137.997 47.4037 138.253 47.3804 138.463 47.3337C138.673 47.287 138.93 47.1937 139.187 47.077V47.847C138.953 47.9637 138.72 48.0337 138.487 48.0804C138.253 48.127 137.997 48.1504 137.693 48.1504ZM137.507 44.277C137.203 44.277 136.97 44.3704 136.783 44.557C136.597 44.7437 136.503 45.0237 136.457 45.397H138.463C138.463 45.0237 138.37 44.7437 138.207 44.557C138.043 44.3704 137.81 44.277 137.507 44.277ZM139.653 43.647H140.68L141.59 46.167C141.73 46.517 141.823 46.867 141.87 47.1704H141.893C141.917 47.0304 141.963 46.8437 142.033 46.6337C142.103 46.4237 142.43 45.4204 143.06 43.647H144.087L142.197 48.6637C141.847 49.5737 141.287 50.0404 140.47 50.0404C140.26 50.0404 140.05 50.017 139.863 49.9704V49.2237C140.003 49.247 140.167 49.2704 140.353 49.2704C140.797 49.2704 141.123 49.0137 141.31 48.477L141.473 48.057L139.653 43.647Z" fill="white"/>
</svg>
