<svg width="181" height="81" viewBox="0 0 181 81" fill="none" xmlns="http://www.w3.org/2000/svg">
<rect x="0.581055" y="0.237305" width="180" height="80" rx="8" fill="#333333"/>
<g style="mix-blend-mode:luminosity">
<path d="M49.8591 40.6497L42.6426 47.8662H57.0756L49.8591 40.6497Z" fill="white"/>
<path d="M35.4255 40.6497L28.209 33.4332V47.8662L35.4255 40.6497Z" fill="url(#paint0_linear)"/>
<path d="M49.8591 40.6494L57.0756 33.4329H42.6426L49.8591 40.6494Z" fill="white"/>
<path d="M42.6423 33.4331L49.8588 26.2166H35.4258L42.6423 33.4331Z" fill="url(#paint1_linear)"/>
<path d="M49.8591 55.0825L57.0756 47.866H42.6426L49.8591 55.0825Z" fill="url(#paint2_linear)"/>
<path d="M35.4255 55.0825L42.642 47.866H28.209L35.4255 55.0825Z" fill="url(#paint3_linear)"/>
<path d="M49.8591 26.2166L42.6426 33.4331H57.0756L49.8591 26.2166Z" fill="url(#paint4_linear)"/>
<path d="M28.209 33.4331H42.642L35.4255 26.2166L28.209 33.4331Z" fill="url(#paint5_linear)"/>
<path d="M42.6423 47.866L35.4258 55.0825H49.8588L42.6423 47.866Z" fill="url(#paint6_linear)"/>
<path d="M35.4255 40.6497L28.209 47.8662H42.642L35.4255 40.6497Z" fill="url(#paint7_linear)"/>
<path d="M42.642 33.4329H28.209L35.4255 40.6494L42.642 33.4329Z" fill="url(#paint8_linear)"/>
<path d="M65.4394 43.2908C65.8363 43.2908 66.1322 43.1826 66.327 42.9661C66.5146 42.7496 66.6157 42.4321 66.6157 42.0135H69.3146L69.3363 42.064C69.3628 42.5393 69.2796 43.0143 69.0931 43.4523C68.9067 43.8903 68.622 44.2795 68.261 44.5898C67.4775 45.2547 66.4735 45.6022 65.4466 45.564C64.0033 45.564 62.8992 45.1166 62.127 44.2218C61.3173 43.251 60.898 42.0136 60.9507 40.7506V40.5486C60.9507 39.1341 61.3404 37.9795 62.1198 37.0846C62.892 36.1898 63.9961 35.7424 65.4177 35.7424C66.6157 35.7424 67.5755 36.0743 68.2899 36.7455C68.6544 37.0981 68.9371 37.5264 69.1179 38.0003C69.2987 38.4741 69.3733 38.9819 69.3363 39.4877L69.3146 39.5382H66.6157C66.6321 39.1476 66.5262 38.7616 66.3126 38.4341C66.1177 38.1527 65.8146 38.0156 65.4177 38.0156C64.8548 38.0156 64.4652 38.2465 64.2414 38.7011C63.9923 39.284 63.8764 39.9152 63.9023 40.5486V40.7506C63.9023 41.5444 64.0105 42.1651 64.2414 42.6125C64.4579 43.0599 64.8621 43.2908 65.4394 43.2908ZM75.8961 38.5207L74.8136 38.5135C74.4817 38.5135 74.2002 38.5712 73.9837 38.6795C73.7672 38.7949 73.6085 38.9537 73.5074 39.1702V45.3764H70.5487V35.9156H73.3342L73.4353 37.3011C73.601 36.8569 73.8737 36.4603 74.2291 36.1465C74.5482 35.8791 74.953 35.7357 75.3693 35.7424C75.6443 35.7414 75.9183 35.7753 76.1847 35.8434L75.8961 38.5207ZM81.5105 41.2053V41.2774H81.5683L83.1342 35.9156H86.2806L82.5136 46.7836C82.225 47.4836 81.8425 48.0609 81.3878 48.5156C80.926 48.9702 80.1899 49.2011 79.1868 49.2011C78.9342 49.2011 78.725 49.1867 78.559 49.1506C78.4002 49.1218 78.1404 49.064 77.794 48.9774L78.1548 46.8702L78.3353 46.9135L78.4868 46.9279C78.9559 46.9279 79.2951 46.8558 79.5116 46.7187C79.728 46.5815 79.8868 46.3723 79.9951 46.098L80.2332 45.4846L76.9569 35.9156H80.0961L81.5105 41.2053ZM92.8765 40.664C92.8765 39.8702 92.7538 39.2207 92.5157 38.7372C92.2847 38.2537 91.9167 38.0156 91.4043 38.0156C91.0652 38.0156 90.7837 38.0733 90.56 38.196C90.3291 38.3187 90.1414 38.4991 90.0115 38.73V42.6846C90.1559 42.8867 90.3363 43.0455 90.5672 43.1393C90.8385 43.2441 91.1281 43.2932 91.4188 43.2836C91.9384 43.2836 92.3064 43.0671 92.5301 42.6413C92.7868 42.0786 92.9032 41.462 92.8693 40.8444V40.664H92.8765ZM95.8208 40.8444C95.8208 42.2733 95.4961 43.4135 94.8538 44.2723C94.5436 44.6934 94.1344 45.0315 93.6624 45.2569C93.1904 45.4822 92.6701 45.5877 92.1476 45.564C91.7357 45.5754 91.3271 45.4883 90.9556 45.3101C90.5841 45.1319 90.2605 44.8676 90.0115 44.5393V49.0135H87.0528V35.9156H89.8167L89.925 36.9547C90.1508 36.5751 90.4738 36.2626 90.8607 36.0495C91.2477 35.8364 91.6844 35.7304 92.126 35.7424C93.3023 35.7424 94.2043 36.1898 94.8538 37.0919C95.5415 38.1523 95.8797 39.4015 95.8208 40.664V40.8444ZM100.62 33.563V35.9156H102.222V37.9578H100.62V42.3022C100.62 42.6341 100.692 42.8795 100.822 43.0238C100.892 43.1 100.979 43.1601 101.074 43.2C101.17 43.2398 101.274 43.2585 101.378 43.2547C101.668 43.2549 101.958 43.2259 102.244 43.1681L102.446 45.3547C101.852 45.4974 101.244 45.57 100.634 45.5712C99.66 45.564 98.9239 45.3042 98.426 44.7774C97.9208 44.2651 97.6683 43.4424 97.6683 42.3238V37.9578H96.3404V35.9156H97.6683V33.563H100.62ZM105.909 40.7434C105.909 41.5372 106.032 42.1578 106.285 42.6125C106.53 43.0599 106.949 43.2836 107.548 43.2836C108.125 43.2836 108.536 43.0599 108.789 42.6053C109.041 42.1506 109.164 41.5228 109.164 40.7434V40.5558C109.192 39.9185 109.063 39.2842 108.789 38.7083C108.536 38.2465 108.118 38.0156 107.526 38.0156C106.949 38.0156 106.53 38.2465 106.285 38.7156C106.032 39.1774 105.909 39.798 105.909 40.5558V40.7434ZM102.951 40.5558C102.897 39.2864 103.331 38.0446 104.163 37.0846C104.964 36.1898 106.09 35.7352 107.533 35.7352C108.976 35.7352 110.102 36.1898 110.903 37.0846C111.734 38.0458 112.167 39.2868 112.116 40.5558V40.7434C112.116 42.1723 111.712 43.3341 110.903 44.2218C110.102 45.1166 108.984 45.564 107.548 45.564C106.097 45.564 104.964 45.1166 104.156 44.2218C103.328 43.257 102.9 42.013 102.958 40.7434V40.5558H102.951ZM116.135 35.9156L116.251 37.2434C116.561 36.7743 116.944 36.3991 117.398 36.1393C117.858 35.8732 118.382 35.7361 118.914 35.7424C119.845 35.7424 120.573 36.0382 121.093 36.6372C121.613 37.2434 121.872 38.196 121.872 39.5094V45.3764H118.914V39.5022C118.914 38.9609 118.805 38.5712 118.582 38.3475C118.358 38.131 118.026 38.0156 117.586 38.0156C117.344 38.008 117.104 38.0546 116.883 38.152C116.662 38.2494 116.466 38.3952 116.308 38.5785V45.3764H113.371V35.9156H116.142H116.135ZM127.595 38.0156C127.169 38.0156 126.852 38.1599 126.635 38.4702C126.419 38.7733 126.296 39.1774 126.246 39.6826L126.274 39.7259H128.822V39.5022C128.822 39.0187 128.721 38.6578 128.526 38.398C128.324 38.1382 128.021 38.0156 127.595 38.0156ZM127.812 45.564C126.412 45.564 125.3 45.131 124.47 44.2506C124.056 43.8115 123.732 43.2946 123.518 42.7299C123.303 42.1651 123.203 41.5636 123.222 40.9599V40.6279C123.222 39.1846 123.597 38.0083 124.355 37.0991C125.113 36.1898 126.188 35.7279 127.595 35.7424C128.88 35.7424 129.883 36.1248 130.612 36.897C131.373 37.7545 131.767 38.8766 131.708 40.0218V41.5733H126.296L126.282 41.6238C126.354 42.1073 126.541 42.5114 126.881 42.8218C127.213 43.1321 127.653 43.2908 128.208 43.2908C129.115 43.3113 130.012 43.1081 130.821 42.6991L131.521 44.5032C131.033 44.8432 130.491 45.0993 129.919 45.2609C129.262 45.463 128.555 45.564 127.804 45.564H127.812ZM141.083 41.4001H141.133L142.158 35.9156H144.886L142.663 45.3764H140.166L138.622 40.3609H138.571L137.027 45.3764H134.53L132.3 35.9156H135.028L136.067 41.4434H136.125L137.662 35.9156H139.524L141.083 41.4001ZM150.875 42.7207C150.875 42.4898 150.746 42.2805 150.479 42.0929C150.031 41.8444 149.542 41.6782 149.035 41.6022C148.134 41.4705 147.278 41.124 146.538 40.5919C146.263 40.3683 146.044 40.0835 145.899 39.7602C145.754 39.4369 145.686 39.0841 145.701 38.73C145.701 38.3197 145.795 37.9149 145.977 37.547C146.158 37.179 146.422 36.8578 146.748 36.6083C147.448 36.031 148.4 35.7424 149.591 35.7424C150.854 35.7424 151.857 36.0238 152.6 36.5867C152.95 36.8282 153.232 37.1554 153.419 37.537C153.606 37.9186 153.692 38.3418 153.668 38.7661L153.654 38.8166H150.782C150.782 38.4486 150.688 38.1671 150.493 37.9723C150.305 37.7774 150.002 37.6836 149.584 37.6836C149.273 37.6836 149.014 37.763 148.804 37.9362C148.704 38.0128 148.624 38.1123 148.571 38.2264C148.517 38.3404 148.492 38.4657 148.497 38.5915C148.502 38.7174 148.537 38.8403 148.599 38.9498C148.661 39.0593 148.749 39.1522 148.855 39.2207C149.309 39.4678 149.806 39.6269 150.32 39.6898C151.245 39.8236 152.125 40.1748 152.889 40.7145C153.167 40.9478 153.387 41.2428 153.531 41.576C153.675 41.9093 153.74 42.2716 153.719 42.6341C153.719 43.4857 153.344 44.1857 152.586 44.7341C151.702 45.3241 150.652 45.615 149.591 45.564C148.306 45.564 147.282 45.2321 146.538 44.5826C145.788 43.9331 145.427 43.197 145.463 42.396L145.485 42.3455H148.155C148.169 42.7929 148.299 43.1176 148.566 43.3125C148.826 43.5145 149.194 43.6083 149.67 43.6083C150.067 43.6083 150.37 43.5362 150.572 43.3774C150.774 43.2259 150.875 43.0022 150.875 42.7207Z" fill="white"/>
</g>
<defs>
<linearGradient id="paint0_linear" x1="28.209" y1="40.6497" x2="35.4255" y2="40.6497" gradientUnits="userSpaceOnUse">
<stop stop-color="#EB6F9F"/>
<stop offset="1" stop-color="#FA6F8D"/>
</linearGradient>
<linearGradient id="paint1_linear" x1="35.4258" y1="29.8249" x2="49.8588" y2="29.8249" gradientUnits="userSpaceOnUse">
<stop stop-color="#930046"/>
<stop offset="1" stop-color="#59008A"/>
</linearGradient>
<linearGradient id="paint2_linear" x1="42.6426" y1="51.4743" x2="57.0756" y2="51.4743" gradientUnits="userSpaceOnUse">
<stop stop-color="#460045"/>
<stop offset="1" stop-color="#29006E"/>
</linearGradient>
<linearGradient id="paint3_linear" x1="28.209" y1="51.4743" x2="42.642" y2="51.4743" gradientUnits="userSpaceOnUse">
<stop stop-color="#DB0035"/>
<stop offset="1" stop-color="#9D0074"/>
</linearGradient>
<linearGradient id="paint4_linear" x1="42.6426" y1="29.8249" x2="57.0756" y2="29.8249" gradientUnits="userSpaceOnUse">
<stop stop-color="#460045"/>
<stop offset="1" stop-color="#29006E"/>
</linearGradient>
<linearGradient id="paint5_linear" x1="28.209" y1="29.8249" x2="42.642" y2="29.8249" gradientUnits="userSpaceOnUse">
<stop stop-color="#DB0035"/>
<stop offset="1" stop-color="#9D0074"/>
</linearGradient>
<linearGradient id="paint6_linear" x1="35.4258" y1="51.4743" x2="49.8588" y2="51.4743" gradientUnits="userSpaceOnUse">
<stop stop-color="#930046"/>
<stop offset="1" stop-color="#59008A"/>
</linearGradient>
<linearGradient id="paint7_linear" x1="28.209" y1="44.258" x2="42.642" y2="44.258" gradientUnits="userSpaceOnUse">
<stop stop-color="#F63362"/>
<stop offset="1" stop-color="#C0359D"/>
</linearGradient>
<linearGradient id="paint8_linear" x1="28.209" y1="37.0412" x2="42.642" y2="37.0412" gradientUnits="userSpaceOnUse">
<stop stop-color="#F63362"/>
<stop offset="1" stop-color="#C0359D"/>
</linearGradient>
</defs>
</svg>
