<svg width="614" height="356" viewBox="0 0 614 356" fill="none" xmlns="http://www.w3.org/2000/svg">
<circle cx="306.72" cy="48.7202" r="306.72" fill="url(#paint0_linear)"/>
<circle cx="306.721" cy="48.7197" r="148.307" fill="#151414"/>
<g opacity="0.3">
<path d="M297.159 -65.7044C301.722 -72.4995 311.718 -72.4995 316.281 -65.7044L323.699 -54.6577C328.09 -48.12 336.634 -45.8305 343.705 -49.2972L355.653 -55.1549C363.002 -58.7582 371.659 -53.7601 372.213 -45.5939L373.114 -32.3181C373.647 -24.4612 379.902 -18.2061 387.759 -17.673L401.035 -16.7721C409.201 -16.218 414.199 -7.56119 410.596 -0.211952L404.738 11.7357C401.271 18.8065 403.561 27.3511 410.098 31.7412L421.145 39.1593C427.94 43.7223 427.94 53.7184 421.145 58.2814L410.098 65.6995C403.561 70.0896 401.271 78.6342 404.738 85.705L410.596 97.6527C414.199 105.002 409.201 113.659 401.035 114.213L387.759 115.114C379.902 115.647 373.647 121.902 373.114 129.759L372.213 143.035C371.659 151.201 363.002 156.199 355.653 152.596L343.705 146.738C336.634 143.271 328.09 145.561 323.699 152.098L316.281 163.145C311.718 169.94 301.722 169.94 297.159 163.145L289.741 152.098C285.351 145.561 276.806 143.271 269.736 146.738L257.788 152.596C250.439 156.199 241.782 151.201 241.228 143.035L240.327 129.759C239.794 121.902 233.539 115.647 225.682 115.114L212.406 114.213C204.24 113.659 199.242 105.002 202.845 97.6527L208.703 85.705C212.17 78.6342 209.88 70.0896 203.342 65.6995L192.296 58.2814C185.5 53.7184 185.5 43.7223 192.296 39.1593L203.342 31.7412C209.88 27.3511 212.17 18.8065 208.703 11.7357L202.845 -0.211945C199.242 -7.56119 204.24 -16.218 212.406 -16.7721L225.682 -17.673C233.539 -18.2061 239.794 -24.4612 240.327 -32.3181L241.228 -45.5939C241.782 -53.7601 250.439 -58.7582 257.788 -55.1549L269.736 -49.2972C276.806 -45.8305 285.351 -48.12 289.741 -54.6576L297.159 -65.7044Z" stroke="white" stroke-width="4.23062"/>
<path d="M297.159 -65.7044C301.722 -72.4995 311.718 -72.4995 316.281 -65.7044L323.699 -54.6577C328.09 -48.12 336.634 -45.8305 343.705 -49.2972L355.653 -55.1549C363.002 -58.7582 371.659 -53.7601 372.213 -45.5939L373.114 -32.3181C373.647 -24.4612 379.902 -18.2061 387.759 -17.673L401.035 -16.7721C409.201 -16.218 414.199 -7.56119 410.596 -0.211952L404.738 11.7357C401.271 18.8065 403.561 27.3511 410.098 31.7412L421.145 39.1593C427.94 43.7223 427.94 53.7184 421.145 58.2814L410.098 65.6995C403.561 70.0896 401.271 78.6342 404.738 85.705L410.596 97.6527C414.199 105.002 409.201 113.659 401.035 114.213L387.759 115.114C379.902 115.647 373.647 121.902 373.114 129.759L372.213 143.035C371.659 151.201 363.002 156.199 355.653 152.596L343.705 146.738C336.634 143.271 328.09 145.561 323.699 152.098L316.281 163.145C311.718 169.94 301.722 169.94 297.159 163.145L289.741 152.098C285.351 145.561 276.806 143.271 269.736 146.738L257.788 152.596C250.439 156.199 241.782 151.201 241.228 143.035L240.327 129.759C239.794 121.902 233.539 115.647 225.682 115.114L212.406 114.213C204.24 113.659 199.242 105.002 202.845 97.6527L208.703 85.705C212.17 78.6342 209.88 70.0896 203.342 65.6995L192.296 58.2814C185.5 53.7184 185.5 43.7223 192.296 39.1593L203.342 31.7412C209.88 27.3511 212.17 18.8065 208.703 11.7357L202.845 -0.211945C199.242 -7.56119 204.24 -16.218 212.406 -16.7721L225.682 -17.673C233.539 -18.2061 239.794 -24.4612 240.327 -32.3181L241.228 -45.5939C241.782 -53.7601 250.439 -58.7582 257.788 -55.1549L269.736 -49.2972C276.806 -45.8305 285.351 -48.12 289.741 -54.6576L297.159 -65.7044Z" stroke="url(#paint1_linear)" stroke-width="4.23062"/>
</g>
<g opacity="0.2">
<path d="M380.871 -38.9508C388.902 -40.5291 395.97 -33.4608 394.392 -25.4295L391.826 -12.3728C390.308 -4.64572 394.731 3.0152 402.182 5.56368L414.772 9.86987C422.517 12.5187 425.104 22.1741 419.721 28.3404L410.971 38.3648C405.792 44.2974 405.792 53.1434 410.971 59.0761L419.721 69.1005C425.104 75.2667 422.517 84.9222 414.772 87.571L402.182 91.8772C394.731 94.4257 390.308 102.087 391.826 109.814L394.392 122.87C395.97 130.902 388.902 137.97 380.871 136.392L367.814 133.826C360.087 132.307 352.426 136.73 349.878 144.181L345.571 156.772C342.923 164.516 333.267 167.103 327.101 161.721L317.077 152.97C311.144 147.792 302.298 147.792 296.365 152.97L286.341 161.721C280.175 167.103 270.519 164.516 267.87 156.772L263.564 144.181C261.016 136.73 253.355 132.307 245.628 133.826L232.571 136.392C224.54 137.97 217.471 130.902 219.05 122.87L221.616 109.814C223.134 102.087 218.711 94.4257 211.26 91.8772L198.67 87.571C190.925 84.9222 188.338 75.2667 193.721 69.1005L202.471 59.0761C207.65 53.1435 207.65 44.2974 202.471 38.3648L193.721 28.3404C188.338 22.1741 190.925 12.5187 198.67 9.86988L211.26 5.56368C218.711 3.0152 223.134 -4.6457 221.616 -12.3728L219.05 -25.4294C217.471 -33.4608 224.54 -40.5291 232.571 -38.9508L245.628 -36.3849C253.355 -34.8664 261.016 -39.2894 263.564 -46.7405L267.87 -59.3308C270.519 -67.0754 280.175 -69.6626 286.341 -64.28L296.365 -55.5296C302.298 -50.3509 311.144 -50.3509 317.077 -55.5296L327.101 -64.28C333.267 -69.6626 342.923 -67.0754 345.571 -59.3309L349.878 -46.7405C352.426 -39.2894 360.087 -34.8664 367.814 -36.3849L380.871 -38.9508Z" stroke="white" stroke-width="4.23062"/>
<path d="M380.871 -38.9508C388.902 -40.5291 395.97 -33.4608 394.392 -25.4295L391.826 -12.3728C390.308 -4.64572 394.731 3.0152 402.182 5.56368L414.772 9.86987C422.517 12.5187 425.104 22.1741 419.721 28.3404L410.971 38.3648C405.792 44.2974 405.792 53.1434 410.971 59.0761L419.721 69.1005C425.104 75.2667 422.517 84.9222 414.772 87.571L402.182 91.8772C394.731 94.4257 390.308 102.087 391.826 109.814L394.392 122.87C395.97 130.902 388.902 137.97 380.871 136.392L367.814 133.826C360.087 132.307 352.426 136.73 349.878 144.181L345.571 156.772C342.923 164.516 333.267 167.103 327.101 161.721L317.077 152.97C311.144 147.792 302.298 147.792 296.365 152.97L286.341 161.721C280.175 167.103 270.519 164.516 267.87 156.772L263.564 144.181C261.016 136.73 253.355 132.307 245.628 133.826L232.571 136.392C224.54 137.97 217.471 130.902 219.05 122.87L221.616 109.814C223.134 102.087 218.711 94.4257 211.26 91.8772L198.67 87.571C190.925 84.9222 188.338 75.2667 193.721 69.1005L202.471 59.0761C207.65 53.1435 207.65 44.2974 202.471 38.3648L193.721 28.3404C188.338 22.1741 190.925 12.5187 198.67 9.86988L211.26 5.56368C218.711 3.0152 223.134 -4.6457 221.616 -12.3728L219.05 -25.4294C217.471 -33.4608 224.54 -40.5291 232.571 -38.9508L245.628 -36.3849C253.355 -34.8664 261.016 -39.2894 263.564 -46.7405L267.87 -59.3308C270.519 -67.0754 280.175 -69.6626 286.341 -64.28L296.365 -55.5296C302.298 -50.3509 311.144 -50.3509 317.077 -55.5296L327.101 -64.28C333.267 -69.6626 342.923 -67.0754 345.571 -59.3309L349.878 -46.7405C352.426 -39.2894 360.087 -34.8664 367.814 -36.3849L380.871 -38.9508Z" stroke="url(#paint2_linear)" stroke-width="4.23062"/>
</g>
<path d="M341.996 43.2897L325.722 21.0135C324.509 19.3485 322.639 18.4008 320.582 18.4008C318.524 18.4008 316.654 19.3485 315.442 21.0135L313.666 23.4383L311.898 21.0135C310.686 19.3485 308.816 18.4008 306.758 18.4008C304.701 18.4008 302.831 19.3485 301.618 21.0135L299.868 23.4042L298.118 21.0135C296.905 19.3485 295.027 18.4008 292.978 18.4008C290.928 18.4008 289.05 19.3485 287.838 21.0135L271.555 43.2897C269.241 46.4574 269.241 50.7179 271.555 53.8941L287.838 76.1704C289.05 77.8268 290.92 78.7831 292.978 78.7831C295.035 78.7831 296.905 77.8353 298.118 76.1704L306.775 64.3108L308.56 66.7612C308.568 66.7698 308.577 66.7783 308.577 66.7869L315.433 76.1704C316.646 77.8268 318.515 78.7831 320.573 78.7831C322.631 78.7831 324.501 77.8353 325.713 76.1704L341.987 53.8941C344.318 50.7179 344.318 46.4574 341.996 43.2897ZM304.214 22.9089C304.812 22.0893 305.742 21.6197 306.758 21.6197C307.774 21.6197 308.705 22.0893 309.303 22.9089L311.676 26.162L306.775 32.8645L301.857 26.1278L304.214 22.9089ZM295.522 74.2663C294.924 75.086 293.994 75.5556 292.978 75.5556C291.962 75.5556 291.031 75.086 290.433 74.2663L274.159 51.9901C272.674 49.958 272.674 47.2173 274.159 45.1852L290.433 22.9089C291.031 22.0893 291.962 21.6197 292.978 21.6197C293.994 21.6197 294.924 22.0893 295.522 22.9089L297.879 26.1364L285.344 43.2897C283.031 46.4574 283.031 50.7179 285.353 53.8941L286.309 55.1834L294.711 66.7527C295.778 68.2213 297.366 69.1263 299.134 69.3227L295.522 74.2663ZM302.395 64.8658C301.789 65.6854 300.867 66.155 299.851 66.155C298.835 66.155 297.904 65.6854 297.306 64.8658L288.666 52.9635H288.657L287.932 51.9816C286.446 49.9495 286.446 47.2087 287.932 45.1766L299.859 28.8515L304.777 35.5882L299.159 43.2811C296.845 46.4488 296.845 50.7094 299.159 53.8856L304.777 61.5785L302.395 64.8658ZM306.775 38.3204L311.796 45.1852C313.282 47.2173 313.282 49.958 311.796 51.9901L306.775 58.8549L301.755 51.9901C300.269 49.958 300.269 47.2173 301.755 45.1852L306.775 38.3204ZM314.391 53.8856C316.705 50.7179 316.705 46.4574 314.391 43.2811L308.773 35.5882L313.674 28.8857L325.577 45.1852C327.062 47.2173 327.062 49.958 325.568 51.9987L323.664 54.6455L316.253 64.8572C315.655 65.6769 314.724 66.1465 313.708 66.1465C312.701 66.1465 311.787 65.6854 311.181 64.8828L308.765 61.5785L314.391 53.8856ZM339.4 51.9901L323.126 74.2663C322.528 75.086 321.598 75.5556 320.582 75.5556C319.566 75.5556 318.635 75.086 318.037 74.2663L314.426 69.3227C316.193 69.1263 317.781 68.2127 318.848 66.7442L325.218 57.9754L325.226 57.984L326.268 56.5325L327.489 54.8504L327.481 54.8419L328.172 53.8771C330.486 50.7094 330.486 46.4488 328.172 43.2726L315.664 26.162L318.037 22.9089C318.635 22.0893 319.566 21.6197 320.582 21.6197C321.598 21.6197 322.528 22.0893 323.126 22.9089L339.4 45.1852C340.886 47.2258 340.886 49.958 339.4 51.9901Z" fill="url(#paint3_linear)"/>
<path opacity="0.4" d="M299.843 69.3659C299.596 69.3659 299.357 69.3488 299.109 69.3232L295.617 74.1387L298.255 76.0001L304.642 67.2313C303.438 68.5974 301.696 69.3659 299.843 69.3659Z" fill="url(#paint4_linear)"/>
<path opacity="0.4" d="M313.692 69.3656C313.939 69.3656 314.178 69.3486 314.426 69.3229L317.918 74.1385L315.28 75.9998L308.927 67.2396C310.131 68.6057 311.847 69.3656 313.692 69.3656Z" fill="url(#paint5_linear)"/>
<path opacity="0.4" d="M304.761 61.5616L306.794 64.3366L303.703 68.4861L301.671 65.7881L304.761 61.5616Z" fill="url(#paint6_linear)"/>
<path opacity="0.6" d="M297.87 26.1278L299.877 28.8771L292.636 38.8156L290.109 36.8177L297.87 26.1278Z" fill="url(#paint7_linear)"/>
<path opacity="0.6" d="M304.796 35.5887L306.768 38.3381L302.157 44.7161L299.63 42.7096L304.796 35.5887Z" fill="url(#paint8_linear)"/>
<path opacity="0.6" d="M311.677 26.1617L313.666 28.894L308.774 35.5879L306.784 32.8557L311.677 26.1617Z" fill="url(#paint9_linear)"/>
<defs>
<linearGradient id="paint0_linear" x1="489" y1="264.5" x2="422.573" y2="-27.2292" gradientUnits="userSpaceOnUse">
<stop offset="0.00650972" stop-color="#F47F57" stop-opacity="0.02"/>
<stop offset="1" stop-color="#FD5656" stop-opacity="0.29"/>
</linearGradient>
<linearGradient id="paint1_linear" x1="216.716" y1="157.113" x2="380.016" y2="-23.8054" gradientUnits="userSpaceOnUse">
<stop stop-color="#FF8506"/>
<stop offset="0.5805" stop-color="#FD3947"/>
<stop offset="1" stop-color="#FB0078"/>
</linearGradient>
<linearGradient id="paint2_linear" x1="166.433" y1="61.7235" x2="409.832" y2="49.2647" gradientUnits="userSpaceOnUse">
<stop stop-color="#FF8506"/>
<stop offset="0.5805" stop-color="#FD3947"/>
<stop offset="1" stop-color="#FB0078"/>
</linearGradient>
<linearGradient id="paint3_linear" x1="283.462" y1="71.9056" x2="330.095" y2="25.2731" gradientUnits="userSpaceOnUse">
<stop stop-color="#FF8506"/>
<stop offset="0.5805" stop-color="#FD3947"/>
<stop offset="1" stop-color="#FB0078"/>
</linearGradient>
<linearGradient id="paint4_linear" x1="302.622" y1="67.166" x2="297.174" y2="74.8752" gradientUnits="userSpaceOnUse">
<stop stop-color="#78005B"/>
<stop offset="0.3483" stop-color="#7A025A" stop-opacity="0.6517"/>
<stop offset="0.51" stop-color="#820955" stop-opacity="0.49"/>
<stop offset="0.6332" stop-color="#8E154E" stop-opacity="0.3668"/>
<stop offset="0.7369" stop-color="#A12643" stop-opacity="0.2631"/>
<stop offset="0.8283" stop-color="#B83C36" stop-opacity="0.1717"/>
<stop offset="0.9111" stop-color="#D65725" stop-opacity="0.0889"/>
<stop offset="0.9857" stop-color="#F87711" stop-opacity="0.0143"/>
<stop offset="1" stop-color="#FF7E0D" stop-opacity="0"/>
</linearGradient>
<linearGradient id="paint5_linear" x1="315.93" y1="74.3012" x2="310.803" y2="66.9266" gradientUnits="userSpaceOnUse">
<stop stop-color="#FF7E0D" stop-opacity="0"/>
<stop offset="0.00928743" stop-color="#F97811" stop-opacity="0.0127"/>
<stop offset="0.0651" stop-color="#D65825" stop-opacity="0.0888"/>
<stop offset="0.1269" stop-color="#B93D36" stop-opacity="0.1729"/>
<stop offset="0.1949" stop-color="#A12643" stop-opacity="0.2657"/>
<stop offset="0.272" stop-color="#8F154E" stop-opacity="0.3707"/>
<stop offset="0.3632" stop-color="#820955" stop-opacity="0.495"/>
<stop offset="0.4822" stop-color="#7A025A" stop-opacity="0.6573"/>
<stop offset="0.7336" stop-color="#78005B"/>
</linearGradient>
<linearGradient id="paint6_linear" x1="302.8" y1="67.1263" x2="306.946" y2="61.1632" gradientUnits="userSpaceOnUse">
<stop stop-color="#FF7E0D" stop-opacity="0"/>
<stop offset="0.0133" stop-color="#F97910" stop-opacity="0.0192"/>
<stop offset="0.1144" stop-color="#D25427" stop-opacity="0.1659"/>
<stop offset="0.219" stop-color="#B1363A" stop-opacity="0.3175"/>
<stop offset="0.3263" stop-color="#981E48" stop-opacity="0.4731"/>
<stop offset="0.4375" stop-color="#860D53" stop-opacity="0.6344"/>
<stop offset="0.5551" stop-color="#7B0359" stop-opacity="0.8048"/>
<stop offset="0.6897" stop-color="#78005B"/>
</linearGradient>
<linearGradient id="paint7_linear" x1="290.511" y1="37.2178" x2="299.736" y2="27.9922" gradientUnits="userSpaceOnUse">
<stop stop-color="#FF4630" stop-opacity="0"/>
<stop offset="0.5722" stop-color="#B31F48" stop-opacity="0.5722"/>
<stop offset="1" stop-color="#78005B"/>
</linearGradient>
<linearGradient id="paint8_linear" x1="300.269" y1="43.3553" x2="306.414" y2="37.2102" gradientUnits="userSpaceOnUse">
<stop stop-color="#FF4630" stop-opacity="0"/>
<stop offset="0.5722" stop-color="#B31F48" stop-opacity="0.5722"/>
<stop offset="1" stop-color="#78005B"/>
</linearGradient>
<linearGradient id="paint9_linear" x1="307.145" y1="33.9544" x2="313.311" y2="27.789" gradientUnits="userSpaceOnUse">
<stop stop-color="#FF4630" stop-opacity="0"/>
<stop offset="0.5722" stop-color="#B31F48" stop-opacity="0.5722"/>
<stop offset="1" stop-color="#78005B"/>
</linearGradient>
</defs>
</svg>
