<svg width="256" height="256" viewBox="0 0 256 256" fill="none" xmlns="http://www.w3.org/2000/svg">
<path d="M73.0776 123.699L59.8699 105.619C58.8855 104.27 57.3661 103.5 55.6969 103.5C54.0276 103.5 52.5082 104.274 51.5238 105.619L50.0864 107.584L48.649 105.619C47.6645 104.27 46.1451 103.5 44.4759 103.5C42.8066 103.5 41.2872 104.274 40.3028 105.619L38.8832 107.563L37.4636 105.619C36.4792 104.27 34.9598 103.5 33.2905 103.5C31.6213 103.5 30.1019 104.274 29.1174 105.619L15.9098 123.699C14.0301 126.27 14.0301 129.73 15.9098 132.301L29.1174 150.381C30.1019 151.73 31.6213 152.5 33.2905 152.5C34.9598 152.5 36.4792 151.726 37.4636 150.381L44.4937 140.758L45.9454 142.745C45.9489 142.752 45.9561 142.759 45.9596 142.766L51.5238 150.381C52.5082 151.73 54.0276 152.5 55.6969 152.5C57.3661 152.5 58.8855 151.726 59.8699 150.381L73.0776 132.301C74.9573 129.73 74.9573 126.27 73.0776 123.699ZM42.4143 107.159C42.9029 106.493 43.6555 106.111 44.4794 106.111C45.3033 106.111 46.0595 106.493 46.5446 107.159L48.4742 109.799L44.4973 115.242L40.5025 109.774L42.4143 107.159ZM35.3592 148.841C34.8706 149.507 34.118 149.889 33.2941 149.889C32.4702 149.889 31.714 149.507 31.229 148.841L18.0213 130.761C16.8157 129.109 16.8157 126.891 18.0213 125.236L31.229 107.156C31.7176 106.489 32.4702 106.107 33.2941 106.107C34.118 106.107 34.8742 106.489 35.3592 107.156L37.271 109.77L27.0987 123.695C25.219 126.267 25.219 129.726 27.1022 132.301L27.8762 133.35L34.6958 142.741C35.5626 143.929 36.8502 144.671 38.2875 144.828L35.3592 148.841ZM40.9376 141.208C40.449 141.871 39.6964 142.256 38.8689 142.256C38.045 142.256 37.2889 141.875 36.8073 141.211L29.7951 131.556L29.7916 131.56L29.2066 130.764C28.001 129.113 28.001 126.894 29.2066 125.239L38.8868 111.989L42.8815 117.457L38.3197 123.702C36.44 126.274 36.44 129.733 38.3197 132.305L42.8815 138.55L40.9376 141.208ZM44.4973 119.665L48.5669 125.236C49.7725 126.887 49.7725 129.106 48.5669 130.761L44.4973 136.332L40.4276 130.761C39.222 129.109 39.222 126.891 40.4276 125.236L44.4973 119.665ZM50.6749 132.301C52.5545 129.73 52.5545 126.27 50.6749 123.699L46.113 117.453L50.0899 112.01L59.7522 125.239C60.9578 126.891 60.9578 129.109 59.7451 130.771L58.1971 132.922L52.18 141.208C51.6914 141.875 50.9388 142.256 50.1149 142.256C49.2981 142.256 48.5527 141.882 48.0676 141.229L46.1094 138.55L50.6749 132.301ZM70.9732 130.761L57.7656 148.841C57.2769 149.507 56.5243 149.889 55.7004 149.889C54.8765 149.889 54.1203 149.507 53.6353 148.841L50.707 144.831C52.1408 144.675 53.4284 143.933 54.2987 142.741L59.4669 135.622L59.474 135.626L60.3229 134.449L61.3109 133.086L61.3038 133.083L61.8638 132.301C63.7434 129.73 63.7434 126.27 61.8638 123.699L51.7092 109.799L53.6388 107.159C54.1275 106.493 54.8801 106.111 55.704 106.111C56.5279 106.111 57.2805 106.493 57.7691 107.159L70.9768 125.239C72.1788 126.891 72.1788 129.109 70.9732 130.761Z" fill="url(#paint0_linear)"/>
<path opacity="0.4" d="M38.8681 144.864C38.6683 144.864 38.4686 144.853 38.276 144.832L35.4404 148.741L37.5805 150.25L42.7665 143.131C41.7821 144.236 40.3697 144.864 38.8681 144.864Z" fill="url(#paint1_linear)"/>
<path opacity="0.4" d="M50.1063 144.863C50.306 144.863 50.5057 144.852 50.6983 144.831L53.5339 148.74L51.3939 150.249L46.2363 143.137C47.2172 144.242 48.6047 144.863 50.1063 144.863Z" fill="url(#paint2_linear)"/>
<path opacity="0.4" d="M42.8605 138.53L44.5083 140.781L42.0009 144.148L40.353 141.961L42.8605 138.53Z" fill="url(#paint3_linear)"/>
<path opacity="0.6" d="M37.2712 109.774L38.8905 112.003L33.0196 120.068L30.9688 118.445L37.2712 109.774Z" fill="url(#paint4_linear)"/>
<path opacity="0.6" d="M42.8823 117.45L44.4874 119.679L40.7459 124.855L38.6914 123.232L42.8823 117.45Z" fill="url(#paint5_linear)"/>
<path opacity="0.6" d="M48.4745 109.795L50.0867 112.014L46.1169 117.446L44.4976 115.231L48.4745 109.795Z" fill="url(#paint6_linear)"/>
<path d="M112.136 120.326V134.919H109.134V125.624L103.156 134.919H99.7999L93.8224 125.659V134.919H90.8198V120.326H93.8224L101.468 132.316L109.137 120.326H112.136Z" fill="white"/>
<path d="M155.546 120.326V134.919H152.543V128.855H141.826V134.919H138.823V120.326H141.826V126.352H152.543V120.326H155.546Z" fill="white"/>
<path d="M199.127 127.576C199.127 131.442 196.849 134.919 190.573 134.919H182.224V120.326H190.573C197.144 120.326 199.127 123.71 199.127 127.576ZM196.069 127.576C196.069 125.104 194.817 122.899 190.504 122.899H185.227V132.347H190.5C194.817 132.347 196.069 130.048 196.069 127.576Z" fill="white"/>
<path d="M223.244 127.62C223.244 122.877 226.638 120.027 232.473 120.027C238.309 120.027 241.703 122.877 241.703 127.62C241.703 132.363 238.309 135.213 232.473 135.213C226.638 135.213 223.244 132.367 223.244 127.62ZM238.558 127.62C238.558 124.243 236.058 122.621 232.473 122.621C228.892 122.621 226.319 124.243 226.319 127.62C226.319 131.001 228.892 132.61 232.473 132.61C236.055 132.61 238.558 131.004 238.558 127.62Z" fill="white"/>
<path d="M127.51 121.199C127.184 120.398 126.386 119.833 125.457 119.833C124.528 119.833 123.734 120.395 123.404 121.192L116.962 134.919H120.204L121.647 131.739H129.274L130.724 134.919H133.997L127.51 121.199ZM122.784 129.233L125.454 123.349L128.134 129.233H122.784Z" fill="white"/>
<path d="M170.8 121.199C170.474 120.398 169.676 119.833 168.747 119.833C167.818 119.833 167.024 120.395 166.695 121.192L160.252 134.919H163.494L164.937 131.739H172.565L174.014 134.919H177.287L170.8 121.199ZM166.074 129.233L168.744 123.349L171.424 129.233H166.074Z" fill="white"/>
<path d="M213.577 121.199C213.251 120.398 212.453 119.833 211.524 119.833C210.595 119.833 209.801 120.395 209.471 121.192L203.029 134.919H206.271L207.713 131.739H215.341L216.791 134.919H220.064L213.577 121.199ZM208.851 129.233L211.521 123.349L214.201 129.233H208.851Z" fill="white"/>
<defs>
<linearGradient id="paint0_linear" x1="25.5728" y1="146.923" x2="63.419" y2="109.077" gradientUnits="userSpaceOnUse">
<stop stop-color="#FF8506"/>
<stop offset="0.5805" stop-color="#FD3947"/>
<stop offset="1" stop-color="#FB0078"/>
</linearGradient>
<linearGradient id="paint1_linear" x1="41.1207" y1="143.077" x2="36.6996" y2="149.333" gradientUnits="userSpaceOnUse">
<stop stop-color="#78005B"/>
<stop offset="0.3483" stop-color="#7A025A" stop-opacity="0.6517"/>
<stop offset="0.51" stop-color="#820955" stop-opacity="0.49"/>
<stop offset="0.6332" stop-color="#8E154E" stop-opacity="0.3668"/>
<stop offset="0.7369" stop-color="#A12643" stop-opacity="0.2631"/>
<stop offset="0.8283" stop-color="#B83C36" stop-opacity="0.1717"/>
<stop offset="0.9111" stop-color="#D65725" stop-opacity="0.0889"/>
<stop offset="0.9857" stop-color="#F87711" stop-opacity="0.0143"/>
<stop offset="1" stop-color="#FF7E0D" stop-opacity="0"/>
</linearGradient>
<linearGradient id="paint2_linear" x1="51.9221" y1="148.866" x2="47.7612" y2="142.881" gradientUnits="userSpaceOnUse">
<stop stop-color="#FF7E0D" stop-opacity="0"/>
<stop offset="0.00928743" stop-color="#F97811" stop-opacity="0.0127"/>
<stop offset="0.0651" stop-color="#D65825" stop-opacity="0.0888"/>
<stop offset="0.1269" stop-color="#B93D36" stop-opacity="0.1729"/>
<stop offset="0.1949" stop-color="#A12643" stop-opacity="0.2657"/>
<stop offset="0.272" stop-color="#8F154E" stop-opacity="0.3707"/>
<stop offset="0.3632" stop-color="#820955" stop-opacity="0.495"/>
<stop offset="0.4822" stop-color="#7A025A" stop-opacity="0.6573"/>
<stop offset="0.7336" stop-color="#78005B"/>
</linearGradient>
<linearGradient id="paint3_linear" x1="41.2663" y1="143.045" x2="44.6311" y2="138.206" gradientUnits="userSpaceOnUse">
<stop stop-color="#FF7E0D" stop-opacity="0"/>
<stop offset="0.0133" stop-color="#F97910" stop-opacity="0.0192"/>
<stop offset="0.1144" stop-color="#D25427" stop-opacity="0.1659"/>
<stop offset="0.219" stop-color="#B1363A" stop-opacity="0.3175"/>
<stop offset="0.3263" stop-color="#981E48" stop-opacity="0.4731"/>
<stop offset="0.4375" stop-color="#860D53" stop-opacity="0.6344"/>
<stop offset="0.5551" stop-color="#7B0359" stop-opacity="0.8048"/>
<stop offset="0.6897" stop-color="#78005B"/>
</linearGradient>
<linearGradient id="paint4_linear" x1="31.2936" y1="118.771" x2="38.7809" y2="111.284" gradientUnits="userSpaceOnUse">
<stop stop-color="#FF4630" stop-opacity="0"/>
<stop offset="0.5722" stop-color="#B31F48" stop-opacity="0.5722"/>
<stop offset="1" stop-color="#78005B"/>
</linearGradient>
<linearGradient id="paint5_linear" x1="39.213" y1="123.752" x2="44.2002" y2="118.765" gradientUnits="userSpaceOnUse">
<stop stop-color="#FF4630" stop-opacity="0"/>
<stop offset="0.5722" stop-color="#B31F48" stop-opacity="0.5722"/>
<stop offset="1" stop-color="#78005B"/>
</linearGradient>
<linearGradient id="paint6_linear" x1="44.7936" y1="116.123" x2="49.7973" y2="111.119" gradientUnits="userSpaceOnUse">
<stop stop-color="#FF4630" stop-opacity="0"/>
<stop offset="0.5722" stop-color="#B31F48" stop-opacity="0.5722"/>
<stop offset="1" stop-color="#78005B"/>
</linearGradient>
</defs>
</svg>
