<svg width="256" height="256" viewBox="0 0 256 256" fill="none" xmlns="http://www.w3.org/2000/svg">
<path d="M99.8504 126.928L84.2042 105.51C83.0386 103.914 81.2368 103 79.2599 103C77.283 103 75.4812 103.916 74.3156 105.51L58.6694 126.928C56.4429 129.976 56.4429 134.071 58.6734 137.125L59.5914 138.367L59.5934 138.365L67.6702 149.49C68.8358 151.086 70.6376 152 72.6145 152C74.225 152 75.7208 151.392 76.8501 150.301L76.9266 150.357L79.28 147.136L80.9992 149.488C81.0053 149.498 81.0133 149.506 81.0194 149.514L81.4965 150.168L81.5428 150.134C82.6883 151.326 84.2505 151.998 85.9415 151.998C87.9164 151.998 89.7182 151.082 90.8878 149.484L97.0098 141.05L97.0158 141.055L98.0305 139.643L99.1921 138.045L99.184 138.039L99.8483 137.113C102.079 134.071 102.079 129.976 99.8504 126.928ZM76.8139 107.334C77.3917 106.545 78.2835 106.092 79.2599 106.092C80.2383 106.092 81.1301 106.545 81.7059 107.334L83.9908 110.461L79.28 116.909L74.5491 110.433L76.8139 107.334ZM75.0645 147.67L75.0625 147.668C74.4847 148.457 73.5929 148.91 72.6165 148.91C71.6381 148.91 70.7463 148.457 70.1725 147.672L61.8663 136.233L61.8623 136.237L61.1677 135.297C59.7384 133.34 59.7384 130.711 61.1677 128.754L72.6366 113.056L77.3675 119.532L71.9622 126.93C69.7357 129.978 69.7357 134.073 71.9622 137.121L77.3675 144.519L75.0645 147.67ZM79.28 122.151L84.1035 128.752C85.5328 130.709 85.5328 133.338 84.1035 135.295L79.28 141.896L74.4565 135.295C73.0272 133.338 73.0272 130.709 74.4565 128.752L79.28 122.151ZM88.3895 147.668C87.8117 148.457 86.9199 148.91 85.9435 148.91C84.9772 148.91 84.0955 148.467 83.5177 147.694L81.1965 144.517L86.6018 137.119C88.8284 134.071 88.8284 129.976 86.6018 126.928L81.1965 119.53L85.9073 113.082L97.3561 128.752C98.7854 130.709 98.7854 133.338 97.35 135.305L95.5342 137.829L88.3895 147.668Z" fill="url(#paint0_linear)"/>
<path opacity="0.6" d="M77.3279 144.505L79.2806 147.172L76.3112 151.158L74.3564 148.567L77.3279 144.505Z" fill="url(#paint1_linear)"/>
<path d="M77.3561 119.531L79.2565 122.173L74.8215 128.303L72.3896 126.382L77.3561 119.531Z" fill="url(#paint2_linear)"/>
<path d="M95.3071 120.711L88.3618 111.153L88.3758 111.139L85.8091 107.632C86.6325 108.786 87.025 109.712 86.9526 110.597C86.8861 111.407 86.6224 112.033 86.3788 112.454L85.9218 113.082L86.2077 113.49L86.2137 113.482L92.8772 122.632L95.3071 120.711Z" fill="url(#paint3_linear)"/>
<path d="M63.2471 120.711L70.1924 111.153L70.1783 111.139L72.7451 107.632C71.9217 108.786 71.5292 109.712 71.6016 110.597C71.6681 111.407 71.9318 112.033 72.1754 112.454L72.6324 113.082L72.3465 113.49L72.3405 113.482L65.6769 122.632L63.2471 120.711Z" fill="url(#paint4_linear)"/>
<path d="M75.5934 109.007C75.5934 109.007 74.3876 110.339 75.5854 111.855L74.7117 111.819L73.6548 109.961L74.8868 109.003L75.5934 109.007Z" fill="url(#paint5_linear)"/>
<path d="M82.9458 109.026C82.9458 109.026 84.1678 110.359 82.9679 111.877L83.8417 111.841L84.8986 109.982L83.6665 109.024L82.9458 109.026Z" fill="url(#paint6_linear)"/>
<path d="M99.8504 126.928L84.2042 105.51C83.0386 103.914 81.2368 103 79.2599 103C77.283 103 75.4812 103.916 74.3156 105.51L58.6694 126.928C56.4429 129.976 56.4429 134.071 58.6734 137.125L59.5914 138.367L59.5934 138.365L67.6702 149.49C68.8358 151.086 70.6376 152 72.6145 152C74.225 152 75.7208 151.392 76.8501 150.301L76.9266 150.357L79.28 147.136L80.9992 149.488C81.0053 149.498 81.0133 149.506 81.0194 149.514L81.4965 150.168L81.5428 150.134C82.6883 151.326 84.2505 151.998 85.9415 151.998C87.9164 151.998 89.7182 151.082 90.8878 149.484L97.0098 141.05L97.0158 141.055L98.0305 139.643L99.1921 138.045L99.184 138.039L99.8483 137.113C102.079 134.071 102.079 129.976 99.8504 126.928ZM76.8139 107.334C77.3917 106.545 78.2835 106.092 79.2599 106.092C80.2383 106.092 81.1301 106.545 81.7059 107.334L83.9908 110.461L79.28 116.909L74.5491 110.433L76.8139 107.334ZM75.0645 147.67L75.0625 147.668C74.4847 148.457 73.5929 148.91 72.6165 148.91C71.6381 148.91 70.7463 148.457 70.1725 147.672L61.8663 136.233L61.8623 136.237L61.1677 135.297C59.7384 133.34 59.7384 130.711 61.1677 128.754L72.6366 113.056L77.3675 119.532L71.9622 126.93C69.7357 129.978 69.7357 134.073 71.9622 137.121L77.3675 144.519L75.0645 147.67ZM79.28 122.151L84.1035 128.752C85.5328 130.709 85.5328 133.338 84.1035 135.295L79.28 141.896L74.4565 135.295C73.0272 133.338 73.0272 130.709 74.4565 128.752L79.28 122.151ZM88.3895 147.668C87.8117 148.457 86.9199 148.91 85.9435 148.91C84.9772 148.91 84.0955 148.467 83.5177 147.694L81.1965 144.517L86.6018 137.119C88.8284 134.071 88.8284 129.976 86.6018 126.928L81.1965 119.53L85.9073 113.082L97.3561 128.752C98.7854 130.709 98.7854 133.338 97.35 135.305L95.5342 137.829L88.3895 147.668Z" fill="url(#paint7_linear)"/>
<path opacity="0.6" d="M77.3279 144.505L79.2806 147.172L76.3112 151.158L74.3564 148.567L77.3279 144.505Z" fill="url(#paint8_linear)"/>
<path d="M77.3561 119.531L79.2565 122.173L74.8215 128.303L72.3896 126.382L77.3561 119.531Z" fill="url(#paint9_linear)"/>
<path d="M95.3071 120.711L88.3618 111.153L88.3758 111.139L85.8091 107.632C86.6325 108.786 87.025 109.712 86.9526 110.597C86.8861 111.407 86.6224 112.033 86.3788 112.454L85.9218 113.082L86.2077 113.49L86.2137 113.482L92.8772 122.632L95.3071 120.711Z" fill="url(#paint10_linear)"/>
<path d="M63.2471 120.711L70.1924 111.153L70.1783 111.139L72.7451 107.632C71.9217 108.786 71.5292 109.712 71.6016 110.597C71.6681 111.407 71.9318 112.033 72.1754 112.454L72.6324 113.082L72.3465 113.49L72.3405 113.482L65.6769 122.632L63.2471 120.711Z" fill="url(#paint11_linear)"/>
<path d="M75.5934 109.007C75.5934 109.007 74.3876 110.339 75.5854 111.855L74.7117 111.819L73.6548 109.961L74.8868 109.003L75.5934 109.007Z" fill="url(#paint12_linear)"/>
<path d="M82.9458 109.026C82.9458 109.026 84.1678 110.359 82.9679 111.877L83.8417 111.841L84.8986 109.982L83.6665 109.024L82.9458 109.026Z" fill="url(#paint13_linear)"/>
<path d="M155.746 131.148V134.71H152.675V131.365C152.675 129.662 151.968 129.185 149.066 129.185H143.274V134.71H140.2V119.767H150.339C153.789 119.767 156.071 121.148 156.071 124.293C156.071 126.798 154.429 127.841 152.279 128.203C154.622 128.386 155.746 129.029 155.746 131.148ZM150.339 126.791C152.072 126.791 152.997 125.908 152.997 124.476C152.997 123.112 152.069 122.404 150.339 122.404H143.277V126.791H150.339ZM176.498 122.33H170.154V134.71H167.08V122.33H160.736V119.767H176.501V122.33H176.498ZM198.628 119.767V134.71H195.554V128.501H184.582V134.713H181.508V119.767H184.582V125.935H195.554V119.767H198.628ZM128.585 120.721C128.253 119.909 127.444 119.333 126.496 119.333C125.552 119.333 124.743 119.906 124.411 120.715L117.857 134.679H121.154L122.623 131.443H130.383L131.855 134.679H135.183L128.585 120.721ZM123.778 128.897L126.493 122.912L129.218 128.897H123.778Z" fill="white"/>
<defs>
<linearGradient id="paint0_linear" x1="64.0877" y1="146.014" x2="94.4511" y2="115.651" gradientUnits="userSpaceOnUse">
<stop stop-color="#FF8506"/>
<stop offset="0.5805" stop-color="#FD3947"/>
<stop offset="1" stop-color="#FB0078"/>
</linearGradient>
<linearGradient id="paint1_linear" x1="75.4402" y1="149.853" x2="79.4263" y2="144.12" gradientUnits="userSpaceOnUse">
<stop stop-color="#FF7E0D" stop-opacity="0"/>
<stop offset="0.0133" stop-color="#F97910" stop-opacity="0.0192"/>
<stop offset="0.1144" stop-color="#D25427" stop-opacity="0.1659"/>
<stop offset="0.219" stop-color="#B1363A" stop-opacity="0.3175"/>
<stop offset="0.3263" stop-color="#981E48" stop-opacity="0.4731"/>
<stop offset="0.4375" stop-color="#860D53" stop-opacity="0.6344"/>
<stop offset="0.5551" stop-color="#7B0359" stop-opacity="0.8048"/>
<stop offset="0.6897" stop-color="#78005B"/>
</linearGradient>
<linearGradient id="paint2_linear" x1="73.0073" y1="126.998" x2="78.9153" y2="121.09" gradientUnits="userSpaceOnUse">
<stop stop-color="#FF4630" stop-opacity="0"/>
<stop offset="0.5722" stop-color="#B31F48" stop-opacity="0.5722"/>
<stop offset="1" stop-color="#78005B"/>
</linearGradient>
<linearGradient id="paint3_linear" x1="93.4703" y1="120.928" x2="86.2132" y2="110.695" gradientUnits="userSpaceOnUse">
<stop stop-color="#FB126A" stop-opacity="0"/>
<stop offset="0.1389" stop-color="#F41169" stop-opacity="0.1389"/>
<stop offset="0.3365" stop-color="#E20F67" stop-opacity="0.3365"/>
<stop offset="0.5694" stop-color="#C30A64" stop-opacity="0.5694"/>
<stop offset="0.827" stop-color="#99045F" stop-opacity="0.827"/>
<stop offset="1" stop-color="#78005B"/>
</linearGradient>
<linearGradient id="paint4_linear" x1="65.0847" y1="120.928" x2="72.3418" y2="110.695" gradientUnits="userSpaceOnUse">
<stop stop-color="#FB126A" stop-opacity="0"/>
<stop offset="0.1389" stop-color="#F41169" stop-opacity="0.1389"/>
<stop offset="0.3365" stop-color="#E20F67" stop-opacity="0.3365"/>
<stop offset="0.5694" stop-color="#C30A64" stop-opacity="0.5694"/>
<stop offset="0.827" stop-color="#99045F" stop-opacity="0.827"/>
<stop offset="1" stop-color="#78005B"/>
</linearGradient>
<linearGradient id="paint5_linear" x1="74.2103" y1="111.319" x2="76.0575" y2="109.471" gradientUnits="userSpaceOnUse">
<stop stop-color="#FC1F5C"/>
<stop offset="1" stop-color="#FB0078"/>
</linearGradient>
<linearGradient id="paint6_linear" x1="84.3435" y1="111.339" x2="82.4885" y2="109.484" gradientUnits="userSpaceOnUse">
<stop stop-color="#FC1F5C"/>
<stop offset="1" stop-color="#FB0078"/>
</linearGradient>
<linearGradient id="paint7_linear" x1="64.0877" y1="146.014" x2="94.4511" y2="115.651" gradientUnits="userSpaceOnUse">
<stop stop-color="#FF8506"/>
<stop offset="0.5805" stop-color="#FD3947"/>
<stop offset="1" stop-color="#FB0078"/>
</linearGradient>
<linearGradient id="paint8_linear" x1="75.4402" y1="149.853" x2="79.4263" y2="144.12" gradientUnits="userSpaceOnUse">
<stop stop-color="#FF7E0D" stop-opacity="0"/>
<stop offset="0.0133" stop-color="#F97910" stop-opacity="0.0192"/>
<stop offset="0.1144" stop-color="#D25427" stop-opacity="0.1659"/>
<stop offset="0.219" stop-color="#B1363A" stop-opacity="0.3175"/>
<stop offset="0.3263" stop-color="#981E48" stop-opacity="0.4731"/>
<stop offset="0.4375" stop-color="#860D53" stop-opacity="0.6344"/>
<stop offset="0.5551" stop-color="#7B0359" stop-opacity="0.8048"/>
<stop offset="0.6897" stop-color="#78005B"/>
</linearGradient>
<linearGradient id="paint9_linear" x1="73.0073" y1="126.998" x2="78.9153" y2="121.09" gradientUnits="userSpaceOnUse">
<stop stop-color="#FF4630" stop-opacity="0"/>
<stop offset="0.5722" stop-color="#B31F48" stop-opacity="0.5722"/>
<stop offset="1" stop-color="#78005B"/>
</linearGradient>
<linearGradient id="paint10_linear" x1="93.4703" y1="120.928" x2="86.2132" y2="110.695" gradientUnits="userSpaceOnUse">
<stop stop-color="#FB126A" stop-opacity="0"/>
<stop offset="0.1389" stop-color="#F41169" stop-opacity="0.1389"/>
<stop offset="0.3365" stop-color="#E20F67" stop-opacity="0.3365"/>
<stop offset="0.5694" stop-color="#C30A64" stop-opacity="0.5694"/>
<stop offset="0.827" stop-color="#99045F" stop-opacity="0.827"/>
<stop offset="1" stop-color="#78005B"/>
</linearGradient>
<linearGradient id="paint11_linear" x1="65.0847" y1="120.928" x2="72.3418" y2="110.695" gradientUnits="userSpaceOnUse">
<stop stop-color="#FB126A" stop-opacity="0"/>
<stop offset="0.1389" stop-color="#F41169" stop-opacity="0.1389"/>
<stop offset="0.3365" stop-color="#E20F67" stop-opacity="0.3365"/>
<stop offset="0.5694" stop-color="#C30A64" stop-opacity="0.5694"/>
<stop offset="0.827" stop-color="#99045F" stop-opacity="0.827"/>
<stop offset="1" stop-color="#78005B"/>
</linearGradient>
<linearGradient id="paint12_linear" x1="74.2103" y1="111.319" x2="76.0575" y2="109.471" gradientUnits="userSpaceOnUse">
<stop stop-color="#FC1F5C"/>
<stop offset="1" stop-color="#FB0078"/>
</linearGradient>
<linearGradient id="paint13_linear" x1="84.3435" y1="111.339" x2="82.4885" y2="109.484" gradientUnits="userSpaceOnUse">
<stop stop-color="#FC1F5C"/>
<stop offset="1" stop-color="#FB0078"/>
</linearGradient>
</defs>
</svg>
