<svg width="302" height="302" viewBox="0 0 302 302" fill="none" xmlns="http://www.w3.org/2000/svg">
<circle cx="151" cy="151" r="151" fill="#232323"/>
<path d="M293.539 151C293.539 165.957 291.184 180.822 286.562 195.047L151 151H293.539Z" fill="#FDA871"/>
<path d="M232.757 34.2391C252.424 48.0101 268.294 66.5259 278.894 88.0683C289.494 109.611 294.481 133.482 293.392 157.466L151 151L232.757 34.2391Z" fill="#D758FF"/>
<path d="M175.751 10.6267C196.414 14.2701 216.018 22.4305 233.164 34.5251L151 151L175.751 10.6267Z" fill="#F0C757"/>
<path d="M151 8.46118C159.962 8.46118 168.905 9.30651 177.709 10.9859L151 151V8.46118Z" fill="#4ED8DA"/>
<path d="M286.562 195.047C278.439 220.048 263.56 242.315 243.571 259.387C223.582 276.46 199.261 287.672 173.298 291.784C147.334 295.896 120.739 292.748 96.4525 282.689C72.1662 272.629 51.1348 256.049 35.6835 234.782C20.2321 213.515 10.9628 188.39 8.90034 162.184C6.83785 135.977 12.0625 109.711 23.9967 86.2888C35.9309 62.8666 54.1097 43.2008 76.5233 29.4657C98.9369 15.7306 124.712 8.46121 151 8.46118L151 151L286.562 195.047Z" fill="#FD5656"/>
</svg>
