<svg width="390" height="334" viewBox="0 0 390 334" fill="none" xmlns="http://www.w3.org/2000/svg">
<path d="M1 1V111.557C1 121.96 1 127.161 2.34744 131.947C3.54097 136.186 5.5021 140.17 8.13342 143.701C11.1041 147.687 15.2262 150.859 23.4703 157.204L54.5296 181.107C62.7738 187.452 66.8959 190.624 69.8666 194.61C72.4979 198.142 74.459 202.125 75.6526 206.364C77 211.15 77 216.351 77 226.754V330" stroke="url(#paint0_linear_4218_7107)" stroke-width="2" stroke-linecap="round"/>
<path d="M389 1V111.557C389 121.96 389 127.161 387.653 131.947C386.459 136.186 384.498 140.17 381.867 143.701C378.896 147.687 374.774 150.859 366.53 157.204L335.47 181.107C327.226 187.452 323.104 190.624 320.133 194.61C317.502 198.142 315.541 202.125 314.347 206.364C313 211.15 313 216.351 313 226.754V330" stroke="url(#paint1_linear_4218_7107)" stroke-width="2" stroke-linecap="round"/>
<path d="M113 49V108.177C113 116.473 113 120.621 113.891 124.55C114.68 128.034 115.985 131.382 117.76 134.482C119.762 137.978 122.568 141.033 128.18 147.143L161.82 183.764C167.432 189.873 170.238 192.928 172.24 196.424C174.015 199.525 175.32 202.872 176.109 206.357C177 210.286 177 214.434 177 222.73V333" stroke="url(#paint2_linear_4218_7107)" stroke-width="2" stroke-linecap="round"/>
<path d="M276 49C276 48.4477 276.448 48 277 48C277.552 48 278 48.4477 278 49H276ZM217.76 196.424L216.892 195.927L217.76 196.424ZM213.891 206.357L212.915 206.136L213.891 206.357ZM276.109 124.55L277.085 124.771L276.109 124.55ZM272.24 134.482L273.108 134.979L272.24 134.482ZM278 49V108.177H276V49H278ZM262.556 147.819L228.917 184.44L227.444 183.087L261.083 146.466L262.556 147.819ZM214 222.73V333H212V222.73H214ZM228.917 184.44C223.275 190.583 220.562 193.545 218.628 196.921L216.892 195.927C218.963 192.311 221.862 189.164 227.444 183.087L228.917 184.44ZM212 222.73C212 214.478 211.994 210.199 212.915 206.136L214.866 206.578C214.006 210.372 214 214.389 214 222.73H212ZM218.628 196.921C216.902 199.935 215.634 203.19 214.866 206.578L212.915 206.136C213.727 202.554 215.067 199.114 216.892 195.927L218.628 196.921ZM278 108.177C278 116.428 278.006 120.707 277.085 124.771L275.134 124.329C275.994 120.534 276 116.517 276 108.177H278ZM261.083 146.466C266.725 140.324 269.438 137.362 271.372 133.985L273.108 134.979C271.037 138.595 268.138 141.743 262.556 147.819L261.083 146.466ZM277.085 124.771C276.273 128.352 274.933 131.793 273.108 134.979L271.372 133.985C273.098 130.971 274.366 127.717 275.134 124.329L277.085 124.771Z" fill="url(#paint3_linear_4218_7107)"/>
<defs>
<linearGradient id="paint0_linear_4218_7107" x1="12.1309" y1="49.1818" x2="156.492" y2="111.351" gradientUnits="userSpaceOnUse">
<stop stop-color="#FF8B71"/>
<stop offset="0.68687" stop-color="#C33F50"/>
<stop offset="0.926458" stop-color="#A81E41" stop-opacity="0.47"/>
<stop offset="1" stop-color="#A81E41" stop-opacity="0"/>
</linearGradient>
<linearGradient id="paint1_linear_4218_7107" x1="377.869" y1="49.1818" x2="233.508" y2="111.351" gradientUnits="userSpaceOnUse">
<stop stop-color="#FF8B71"/>
<stop offset="0.68687" stop-color="#C33F50"/>
<stop offset="0.926458" stop-color="#A81E41" stop-opacity="0.47"/>
<stop offset="1" stop-color="#A81E41" stop-opacity="0"/>
</linearGradient>
<linearGradient id="paint2_linear_4218_7107" x1="122.373" y1="90.5916" x2="244.867" y2="142.053" gradientUnits="userSpaceOnUse">
<stop stop-color="#FF8B71"/>
<stop offset="0.68687" stop-color="#C33F50"/>
<stop offset="0.926458" stop-color="#A81E41" stop-opacity="0.47"/>
<stop offset="1" stop-color="#A81E41" stop-opacity="0"/>
</linearGradient>
<linearGradient id="paint3_linear_4218_7107" x1="267.627" y1="90.5916" x2="145.133" y2="142.053" gradientUnits="userSpaceOnUse">
<stop stop-color="#FF8B71"/>
<stop offset="0.68687" stop-color="#C33F50"/>
<stop offset="0.926458" stop-color="#A81E41" stop-opacity="0.47"/>
<stop offset="1" stop-color="#A81E41" stop-opacity="0"/>
</linearGradient>
</defs>
</svg>
