<svg width="414" height="556" viewBox="0 0 414 556" fill="none" xmlns="http://www.w3.org/2000/svg">
<circle cx="207" cy="162" r="244" stroke="url(#paint0_linear_4235_7486)" stroke-width="100"/>
<path d="M38 265.825V361.747C38 370.951 38 375.554 39.1922 379.788C40.2483 383.539 41.9835 387.064 44.3118 390.188C46.9402 393.715 50.5875 396.522 57.8821 402.136L84.3241 422.485C91.6186 428.099 95.2659 430.906 97.8944 434.434C100.223 437.558 101.958 441.083 103.014 444.834C104.206 449.068 104.206 453.67 104.206 462.875V552.428" stroke="url(#paint1_linear_4235_7486)" stroke-width="1.76963" stroke-linecap="round"/>
<path d="M376 265.825V361.747C376 370.951 376 375.554 374.808 379.788C373.752 383.539 372.016 387.064 369.688 390.188C367.06 393.715 363.412 396.522 356.118 402.136L329.676 422.485C322.381 428.099 318.734 430.906 316.106 434.434C313.777 437.558 312.042 441.083 310.986 444.834C309.794 449.068 309.794 453.67 309.794 462.875V552.428" stroke="url(#paint2_linear_4235_7486)" stroke-width="1.76963" stroke-linecap="round"/>
<path d="M135.566 307.639V358.883C135.566 366.223 135.566 369.894 136.354 373.37C137.053 376.453 138.207 379.415 139.778 382.159C141.55 385.252 144.033 387.955 148.998 393.361L177.887 424.81C182.853 430.216 185.336 432.919 187.107 436.012C188.678 438.756 189.832 441.718 190.531 444.801C191.319 448.278 191.319 451.948 191.319 459.288V555.041" stroke="url(#paint3_linear_4235_7486)" stroke-width="1.76963" stroke-linecap="round"/>
<path d="M277.549 307.639C277.549 307.15 277.945 306.754 278.434 306.754C278.922 306.754 279.318 307.15 279.318 307.639H277.549ZM226.893 436.012L227.661 436.452L226.893 436.012ZM223.469 444.801L222.606 444.605L223.469 444.801ZM274.222 382.159L273.454 381.719L274.222 382.159ZM279.318 307.639V358.883H277.549V307.639H279.318ZM265.653 393.959L236.764 425.409L235.461 424.212L264.35 392.762L265.653 393.959ZM223.566 459.288V555.041H221.796V459.288H223.566ZM236.764 425.409C231.772 430.844 229.372 433.465 227.661 436.452L226.125 435.573C227.957 432.373 230.522 429.589 235.461 424.212L236.764 425.409ZM221.796 459.288C221.796 451.987 221.791 448.201 222.606 444.605L224.332 444.997C223.571 448.354 223.566 451.908 223.566 459.288H221.796ZM227.661 436.452C226.133 439.119 225.011 441.999 224.332 444.997L222.606 444.605C223.324 441.437 224.51 438.392 226.125 435.573L227.661 436.452ZM279.318 358.883C279.318 366.184 279.323 369.97 278.509 373.566L276.783 373.175C277.544 369.817 277.549 366.263 277.549 358.883H279.318ZM264.35 392.762C269.343 387.327 271.743 384.706 273.454 381.719L274.99 382.598C273.157 385.798 270.592 388.583 265.653 393.959L264.35 392.762ZM278.509 373.566C277.79 376.735 276.604 379.779 274.99 382.598L273.454 381.719C274.981 379.052 276.103 376.172 276.783 373.175L278.509 373.566Z" fill="url(#paint4_linear_4235_7486)"/>
<defs>
<linearGradient id="paint0_linear_4235_7486" x1="212.245" y1="135.277" x2="212.245" y2="491.662" gradientUnits="userSpaceOnUse">
<stop offset="0.568282" stop-color="#F47F57" stop-opacity="0"/>
<stop offset="1" stop-color="#FD5656" stop-opacity="0.37"/>
</linearGradient>
<linearGradient id="paint1_linear_4235_7486" x1="47.6965" y1="307.798" x2="173.454" y2="361.955" gradientUnits="userSpaceOnUse">
<stop stop-color="#FF8B71"/>
<stop offset="0.68687" stop-color="#C33F50"/>
<stop offset="0.926458" stop-color="#A81E41" stop-opacity="0.47"/>
<stop offset="1" stop-color="#A81E41" stop-opacity="0"/>
</linearGradient>
<linearGradient id="paint2_linear_4235_7486" x1="366.304" y1="307.798" x2="240.546" y2="361.955" gradientUnits="userSpaceOnUse">
<stop stop-color="#FF8B71"/>
<stop offset="0.68687" stop-color="#C33F50"/>
<stop offset="0.926458" stop-color="#A81E41" stop-opacity="0.47"/>
<stop offset="1" stop-color="#A81E41" stop-opacity="0"/>
</linearGradient>
<linearGradient id="paint3_linear_4235_7486" x1="143.732" y1="343.871" x2="250.44" y2="388.701" gradientUnits="userSpaceOnUse">
<stop stop-color="#FF8B71"/>
<stop offset="0.68687" stop-color="#C33F50"/>
<stop offset="0.926458" stop-color="#A81E41" stop-opacity="0.47"/>
<stop offset="1" stop-color="#A81E41" stop-opacity="0"/>
</linearGradient>
<linearGradient id="paint4_linear_4235_7486" x1="270.268" y1="343.871" x2="163.56" y2="388.701" gradientUnits="userSpaceOnUse">
<stop stop-color="#FF8B71"/>
<stop offset="0.68687" stop-color="#C33F50"/>
<stop offset="0.926458" stop-color="#A81E41" stop-opacity="0.47"/>
<stop offset="1" stop-color="#A81E41" stop-opacity="0"/>
</linearGradient>
</defs>
</svg>
