<svg width="122" height="123" viewBox="0 0 122 123" fill="none" xmlns="http://www.w3.org/2000/svg">

<path d="M101.8 20.2L113.1 9" stroke="url(#paint1_linear)" stroke-width="3" stroke-miterlimit="10"/>
<path d="M114.2 15.6C118.508 15.6 122 12.1078 122 7.8C122 3.49218 118.508 0 114.2 0C109.892 0 106.4 3.49218 106.4 7.8C106.4 12.1078 109.892 15.6 114.2 15.6Z" fill="url(#paint2_linear)"/>
<path d="M20.1999 101.8L8.8999 113.1" stroke="url(#paint3_linear)" stroke-width="3" stroke-miterlimit="10"/>
<path d="M7.79999 122.1C12.1078 122.1 15.6 118.608 15.6 114.3C15.6 109.992 12.1078 106.5 7.79999 106.5C3.49217 106.5 0 109.992 0 114.3C0 118.608 3.49217 122.1 7.79999 122.1Z" fill="url(#paint4_linear)"/>
<path d="M61.2 118.4C92.9563 118.4 118.7 92.6563 118.7 60.8999C118.7 29.1435 92.9563 3.3999 61.2 3.3999C29.4436 3.3999 3.69995 29.1435 3.69995 60.8999C3.69995 92.6563 29.4436 118.4 61.2 118.4Z" stroke="url(#paint7_linear)" stroke-width="5" stroke-linecap="round" stroke-linejoin="round"/>
<defs>

<linearGradient id="paint1_linear" x1="106.395" y1="13.5328" x2="108.516" y2="15.6541" gradientUnits="userSpaceOnUse">
<stop stop-color="#F18973"/>
<stop offset="0.704" stop-color="#C33F50"/>
<stop offset="1" stop-color="#A91E42"/>
</linearGradient>

<linearGradient id="paint2_linear" x1="102.861" y1="7.8068" x2="123.655" y2="7.80652" gradientUnits="userSpaceOnUse">
<stop stop-color="#F18973"/>
<stop offset="0.704" stop-color="#C33F50"/>
<stop offset="1" stop-color="#A91E42"/>
</linearGradient>

<linearGradient id="paint3_linear" x1="15.6351" y1="108.548" x2="13.5138" y2="106.426" gradientUnits="userSpaceOnUse">
<stop stop-color="#F18973"/>
<stop offset="0.704" stop-color="#C33F50"/>
<stop offset="1" stop-color="#A91E42"/>
</linearGradient>

<linearGradient id="paint4_linear" x1="19.1692" y1="114.273" x2="-1.62489" y2="114.274" gradientUnits="userSpaceOnUse">
<stop stop-color="#F18973"/>
<stop offset="0.704" stop-color="#C33F50"/>
<stop offset="1" stop-color="#A91E42"/>
</linearGradient>

<linearGradient id="paint7_linear" x1="1.15226" y1="60.8946" x2="121.157" y2="60.8932" gradientUnits="userSpaceOnUse">
<stop stop-color="#F18973" stop-opacity="0"/>
<stop offset="0.704" stop-color="#C33F50" stop-opacity="0.704"/>
<stop offset="1" stop-color="#A91E42"/>
</linearGradient>
</defs>
</svg>
