<svg width="122" height="122" viewBox="0 0 122 122" fill="none" xmlns="http://www.w3.org/2000/svg">
<path d="M122 61C122 71.7066 119.182 82.2247 113.829 91.4972C108.476 100.77 100.777 108.47 91.5055 113.824C82.2339 119.179 71.7162 121.998 61.0096 122C50.3029 122.002 39.7844 119.185 30.5111 113.834L41.0506 95.5701C47.1183 99.0715 54.0007 100.914 61.0063 100.913C68.0118 100.912 74.8936 99.0672 80.9602 95.5638C87.0268 92.0604 92.0645 87.022 95.5669 80.9548C99.0694 74.8877 100.913 68.0055 100.913 61H122Z" fill="url(#paint0_linear)"/>
<path d="M30.0905 8.41098C39.3209 2.98579 49.8166 0.0855996 60.5229 0.00186554C71.2293 -0.0818686 81.769 2.6538 91.0831 7.93396C100.397 13.2141 108.158 20.8528 113.584 30.0823C119.011 39.3118 121.913 49.807 121.998 60.5134L100.912 60.6816C100.856 53.6763 98.9574 46.8091 95.4066 40.7701C91.8559 34.731 86.7782 29.733 80.6839 26.2781C74.5895 22.8232 67.6932 21.0332 60.6878 21.088C53.6825 21.1428 46.815 23.0404 40.7755 26.5902L30.0905 8.41098Z" fill="url(#paint1_linear)"/>
<path d="M31.0877 114.163C21.7567 108.912 13.9719 101.299 8.51555 92.0867C3.05925 82.8747 0.12367 72.3888 0.0038218 61.6828C-0.116026 50.9768 2.58408 40.4279 7.83279 31.096C13.0815 21.7642 20.6939 13.9782 29.9051 8.52041L40.6541 26.6618C34.6271 30.2329 29.6462 35.3274 26.2119 41.4334C22.7776 47.5393 21.0108 54.4417 21.0893 61.4468C21.1677 68.4519 23.0885 75.3129 26.6586 81.3405C30.2288 87.3681 35.3225 92.3498 41.4279 95.7851L31.0877 114.163Z" fill="url(#paint2_linear)"/>
<defs>
<linearGradient id="paint0_linear" x1="38.706" y1="108.578" x2="115.113" y2="64.8451" gradientUnits="userSpaceOnUse">
<stop stop-color="#FF8B71"/>
<stop offset="0.704" stop-color="#C33F50"/>
<stop offset="1" stop-color="#A81E41"/>
</linearGradient>
<linearGradient id="paint1_linear" x1="112.097" y1="61" x2="38.706" y2="13.0695" gradientUnits="userSpaceOnUse">
<stop stop-color="#FF8B71"/>
<stop offset="0.704" stop-color="#C33F50"/>
<stop offset="1" stop-color="#A81E41"/>
</linearGradient>
<linearGradient id="paint2_linear" x1="32.1713" y1="15.0802" x2="33.6793" y2="105.059" gradientUnits="userSpaceOnUse">
<stop stop-color="#FF8B71"/>
<stop offset="0.704" stop-color="#C33F50"/>
<stop offset="1" stop-color="#A81E41"/>
</linearGradient>
</defs>
</svg>
