<svg width="983" height="302" viewBox="0 0 983 302" fill="none" xmlns="http://www.w3.org/2000/svg">
<circle cx="493" cy="151" r="151" fill="#232323"/>
<path d="M628.576 106.995C633.194 121.222 635.543 136.087 635.539 151.045L493 151L628.576 106.995Z" fill="#FFA871"/>
<path d="M608.357 67.2738C617.143 79.3789 623.968 92.7914 628.584 107.019L493 151L608.357 67.2738Z" fill="#5C80F2"/>
<path d="M635.539 151C635.539 184.939 623.429 217.764 601.387 243.571C579.346 269.379 548.819 286.475 515.298 291.784C481.777 297.093 447.461 290.267 418.523 272.534C389.586 254.801 367.925 227.325 357.437 195.047C346.95 162.769 348.323 127.808 361.311 96.4528C374.299 65.0973 398.049 39.405 428.288 23.997C458.528 8.58906 493.273 4.47666 526.275 12.3995C559.276 20.3224 588.367 39.7605 608.316 67.2177L493 151H635.539Z" fill="#ED6060"/>
<circle opacity="0.2" cx="625" cy="138" r="6" fill="white"/>
<circle cx="624.999" cy="138" r="1.76471" fill="white"/>
<path opacity="0.88" d="M853.538 123.617H855.312C855.278 121.897 853.811 120.679 851.643 120.679C849.506 120.679 847.9 121.882 847.905 123.682C847.905 125.143 848.944 125.984 850.619 126.416L851.778 126.714C852.876 126.993 853.602 127.336 853.607 128.126C853.602 128.996 852.777 129.578 851.574 129.578C850.42 129.578 849.526 129.061 849.451 127.992H847.636C847.711 130.016 849.217 131.154 851.589 131.154C854.03 131.154 855.447 129.936 855.452 128.141C855.447 126.376 853.99 125.571 852.459 125.208L851.504 124.969C850.669 124.771 849.764 124.418 849.774 123.567C849.779 122.802 850.465 122.24 851.619 122.24C852.717 122.24 853.443 122.752 853.538 123.617ZM860.397 131.149C862.177 131.149 863.4 130.279 863.718 128.952L862.038 128.763C861.794 129.409 861.198 129.747 860.422 129.747C859.259 129.747 858.488 128.982 858.473 127.674H863.793V127.122C863.793 124.442 862.182 123.264 860.303 123.264C858.115 123.264 856.688 124.87 856.688 127.227C856.688 129.623 858.095 131.149 860.397 131.149ZM858.478 126.461C858.533 125.487 859.254 124.666 860.328 124.666C861.362 124.666 862.058 125.422 862.068 126.461H858.478ZM867.115 126.526C867.115 125.422 867.781 124.786 868.731 124.786C869.661 124.786 870.217 125.397 870.217 126.416V131H872.017V126.138C872.022 124.308 870.978 123.264 869.402 123.264C868.259 123.264 867.473 123.811 867.125 124.661H867.036V123.364H865.315V131H867.115V126.526ZM877.66 123.364H876.153V121.534H874.354V123.364H873.27V124.756H874.354V129.001C874.344 130.438 875.388 131.144 876.74 131.104C877.252 131.089 877.605 130.99 877.799 130.925L877.496 129.518C877.396 129.543 877.192 129.588 876.969 129.588C876.516 129.588 876.153 129.429 876.153 128.703V124.756H877.66V123.364ZM886.451 123.364H884.944V121.534H883.145V123.364H882.061V124.756H883.145V129.001C883.135 130.438 884.179 131.144 885.531 131.104C886.043 131.089 886.396 130.99 886.59 130.925L886.287 129.518C886.187 129.543 885.983 129.588 885.76 129.588C885.307 129.588 884.944 129.429 884.944 128.703V124.756H886.451V123.364ZM891.205 131.149C893.442 131.149 894.864 129.573 894.864 127.212C894.864 124.845 893.442 123.264 891.205 123.264C888.968 123.264 887.546 124.845 887.546 127.212C887.546 129.573 888.968 131.149 891.205 131.149ZM891.215 129.707C889.977 129.707 889.37 128.604 889.37 127.207C889.37 125.81 889.977 124.691 891.215 124.691C892.433 124.691 893.039 125.81 893.039 127.207C893.039 128.604 892.433 129.707 891.215 129.707ZM905.477 123.617H907.252C907.217 121.897 905.751 120.679 903.583 120.679C901.445 120.679 899.839 121.882 899.844 123.682C899.844 125.143 900.883 125.984 902.559 126.416L903.717 126.714C904.816 126.993 905.542 127.336 905.547 128.126C905.542 128.996 904.716 129.578 903.513 129.578C902.36 129.578 901.465 129.061 901.39 127.992H899.576C899.65 130.016 901.157 131.154 903.528 131.154C905.969 131.154 907.386 129.936 907.391 128.141C907.386 126.376 905.93 125.571 904.398 125.208L903.444 124.969C902.608 124.771 901.704 124.418 901.714 123.567C901.719 122.802 902.405 122.24 903.558 122.24C904.657 122.24 905.383 122.752 905.477 123.617ZM912.769 123.364H911.263V121.534H909.463V123.364H908.379V124.756H909.463V129.001C909.453 130.438 910.497 131.144 911.849 131.104C912.362 131.089 912.714 130.99 912.908 130.925L912.605 129.518C912.506 129.543 912.302 129.588 912.078 129.588C911.626 129.588 911.263 129.429 911.263 128.703V124.756H912.769V123.364ZM916.472 131.154C917.67 131.154 918.386 130.592 918.714 129.951H918.774V131H920.504V125.889C920.504 123.871 918.858 123.264 917.401 123.264C915.796 123.264 914.563 123.98 914.165 125.372L915.845 125.611C916.024 125.089 916.531 124.641 917.411 124.641C918.247 124.641 918.704 125.069 918.704 125.82V125.849C918.704 126.366 918.162 126.391 916.815 126.536C915.333 126.695 913.916 127.137 913.916 128.857C913.916 130.359 915.015 131.154 916.472 131.154ZM916.939 129.832C916.188 129.832 915.651 129.489 915.651 128.827C915.651 128.136 916.253 127.848 917.058 127.734C917.531 127.669 918.475 127.55 918.709 127.361V128.261C918.709 129.111 918.023 129.832 916.939 129.832ZM922.313 131H924.113V128.435L924.769 127.734L927.106 131H929.259L926.127 126.66L929.085 123.364H926.982L924.237 126.431H924.113V120.818H922.313V131ZM933.35 131.149C935.13 131.149 936.353 130.279 936.671 128.952L934.991 128.763C934.747 129.409 934.151 129.747 933.375 129.747C932.212 129.747 931.441 128.982 931.426 127.674H936.746V127.122C936.746 124.442 935.135 123.264 933.256 123.264C931.068 123.264 929.642 124.87 929.642 127.227C929.642 129.623 931.048 131.149 933.35 131.149ZM931.431 126.461C931.486 125.487 932.207 124.666 933.281 124.666C934.315 124.666 935.011 125.422 935.021 126.461H931.431ZM938.268 131H940.068V126.511C940.068 125.541 940.799 124.855 941.788 124.855C942.092 124.855 942.469 124.91 942.624 124.96V123.304C942.46 123.274 942.176 123.254 941.977 123.254C941.102 123.254 940.371 123.751 940.093 124.636H940.013V123.364H938.268V131ZM949.855 125.382C949.606 124.089 948.572 123.264 946.782 123.264C944.943 123.264 943.69 124.169 943.695 125.581C943.69 126.695 944.376 127.43 945.843 127.734L947.145 128.007C947.846 128.161 948.174 128.445 948.174 128.877C948.174 129.399 947.608 129.792 946.752 129.792C945.927 129.792 945.39 129.434 945.236 128.748L943.481 128.917C943.705 130.319 944.883 131.149 946.757 131.149C948.667 131.149 950.014 130.16 950.019 128.713C950.014 127.624 949.313 126.958 947.871 126.645L946.569 126.366C945.793 126.192 945.485 125.924 945.49 125.482C945.485 124.964 946.056 124.607 946.807 124.607C947.637 124.607 948.075 125.059 948.214 125.561L949.855 125.382ZM951.95 126.849C951.95 129.33 952.612 131.393 953.919 133.163H955.614C954.605 131.85 953.825 129.205 953.825 126.849C953.825 124.487 954.605 121.842 955.614 120.53H953.919C952.612 122.3 951.95 124.368 951.95 126.849ZM960.532 131.139C962.685 131.139 964.187 129.678 964.187 127.654C964.187 125.695 962.824 124.283 960.975 124.283C960.15 124.283 959.419 124.612 959.041 125.059H958.981L959.275 122.359H963.655V120.818H957.748L957.216 126.068L958.882 126.342C959.225 125.964 959.871 125.71 960.483 125.715C961.601 125.72 962.407 126.545 962.402 127.699C962.407 128.837 961.621 129.648 960.532 129.648C959.613 129.648 958.872 129.066 958.807 128.231H957.018C957.067 129.921 958.544 131.139 960.532 131.139ZM971.296 129.091C971.301 130.274 972.052 131.283 973.449 131.283C974.841 131.283 975.606 130.274 975.601 129.091V128.554C975.606 127.361 974.861 126.362 973.449 126.362C972.072 126.362 971.301 127.371 971.296 128.554V129.091ZM966.121 123.264C966.126 124.447 966.876 125.447 968.278 125.447C969.665 125.447 970.431 124.457 970.426 123.264V122.727C970.431 121.534 969.685 120.535 968.278 120.535C966.906 120.535 966.126 121.534 966.121 122.727V123.264ZM966.568 131H967.816L974.816 120.818H973.568L966.568 131ZM972.594 128.554C972.599 128.027 972.822 127.495 973.449 127.495C974.105 127.495 974.299 128.027 974.294 128.554V129.091C974.299 129.618 974.085 130.14 973.449 130.14C972.812 130.14 972.599 129.613 972.594 129.091V128.554ZM967.428 122.727C967.433 122.205 967.647 121.668 968.278 121.668C968.934 121.668 969.123 122.2 969.118 122.727V123.264C969.123 123.791 968.915 124.313 968.278 124.313C967.642 124.313 967.433 123.791 967.428 123.264V122.727ZM980.896 126.849C980.896 124.368 980.235 122.305 978.927 120.535H977.232C978.241 121.847 979.022 124.492 979.022 126.849C979.022 129.21 978.241 131.855 977.232 133.168H978.927C980.235 131.398 980.896 129.33 980.896 126.849Z" fill="white"/>
<path d="M983 138H624.5" stroke="url(#paint0_linear)" stroke-width="0.5"/>
<circle opacity="0.2" cx="592" cy="89" r="6" fill="white"/>
<circle cx="591.999" cy="89.0001" r="1.76471" fill="white"/>
<path opacity="0.88" d="M874.557 73.3643H877.704V82H879.533V73.3643H882.68V71.8182H874.557V73.3643ZM886.39 82.1491C888.628 82.1491 890.05 80.5732 890.05 78.2116C890.05 75.8452 888.628 74.2642 886.39 74.2642C884.153 74.2642 882.731 75.8452 882.731 78.2116C882.731 80.5732 884.153 82.1491 886.39 82.1491ZM886.4 80.7074C885.162 80.7074 884.556 79.6037 884.556 78.2067C884.556 76.8097 885.162 75.6911 886.4 75.6911C887.618 75.6911 888.225 76.8097 888.225 78.2067C888.225 79.6037 887.618 80.7074 886.4 80.7074ZM891.577 82H893.377V79.4347L894.033 78.7337L896.37 82H898.522L895.39 77.6598L898.348 74.3636H896.245L893.501 77.4311H893.377V71.8182H891.577V82ZM902.614 82.1491C904.394 82.1491 905.617 81.2791 905.935 79.9517L904.255 79.7628C904.011 80.4091 903.414 80.7472 902.639 80.7472C901.475 80.7472 900.705 79.9815 900.69 78.674H906.01V78.1222C906.01 75.4425 904.399 74.2642 902.52 74.2642C900.332 74.2642 898.905 75.87 898.905 78.2266C898.905 80.6229 900.312 82.1491 902.614 82.1491ZM900.695 77.4609C900.75 76.4865 901.471 75.6662 902.544 75.6662C903.578 75.6662 904.275 76.4219 904.284 77.4609H900.695ZM909.332 77.5256C909.332 76.4219 909.998 75.7855 910.948 75.7855C911.877 75.7855 912.434 76.397 912.434 77.4162V82H914.234V77.1378C914.239 75.3082 913.195 74.2642 911.619 74.2642C910.475 74.2642 909.69 74.8111 909.342 75.6612H909.252V74.3636H907.532V82H909.332V77.5256ZM919.616 82H923.737C926.069 82 927.212 80.8118 927.212 79.2259C927.212 77.6847 926.118 76.7798 925.035 76.7251V76.6257C926.029 76.392 926.814 75.696 926.814 74.4581C926.814 72.9418 925.721 71.8182 923.513 71.8182H919.616V82ZM921.46 80.4588V77.4759H923.493C924.632 77.4759 925.338 78.1719 925.338 79.0817C925.338 79.892 924.781 80.4588 923.444 80.4588H921.46ZM921.46 76.1484V73.3395H923.324C924.408 73.3395 924.97 73.9112 924.97 74.6967C924.97 75.5916 924.244 76.1484 923.285 76.1484H921.46ZM933.604 78.7884C933.604 79.9517 932.774 80.5284 931.979 80.5284C931.114 80.5284 930.537 79.9169 930.537 78.9474V74.3636H928.737V79.2259C928.737 81.0604 929.781 82.0994 931.283 82.0994C932.426 82.0994 933.232 81.4979 933.58 80.6428H933.659V82H935.404V74.3636H933.604V78.7884ZM937.255 82H939.055V77.5107C939.055 76.5412 939.785 75.8551 940.775 75.8551C941.078 75.8551 941.456 75.9098 941.61 75.9595V74.304C941.446 74.2741 941.162 74.2543 940.964 74.2543C940.089 74.2543 939.358 74.7514 939.079 75.6364H939V74.3636H937.255V82ZM944.605 77.5256C944.605 76.4219 945.271 75.7855 946.221 75.7855C947.151 75.7855 947.708 76.397 947.708 77.4162V82H949.507V77.1378C949.512 75.3082 948.468 74.2642 946.892 74.2642C945.749 74.2642 944.963 74.8111 944.615 75.6612H944.526V74.3636H942.806V82H944.605V77.5256ZM951.784 77.8487C951.784 80.3295 952.445 82.3928 953.753 84.1626H955.448C954.439 82.8501 953.659 80.2053 953.659 77.8487C953.659 75.4872 954.439 72.8423 955.448 71.5298H953.753C952.445 73.2997 951.784 75.3679 951.784 77.8487ZM960.366 82.1392C962.519 82.1392 964.021 80.6776 964.021 78.6541C964.021 76.6953 962.658 75.2834 960.809 75.2834C959.984 75.2834 959.253 75.6115 958.875 76.0589H958.815L959.109 73.3594H963.489V71.8182H957.582L957.05 77.0682L958.716 77.3416C959.059 76.9638 959.705 76.7102 960.317 76.7152C961.435 76.7202 962.241 77.5455 962.236 78.6989C962.241 79.8374 961.455 80.6477 960.366 80.6477C959.447 80.6477 958.706 80.0661 958.641 79.2308H956.852C956.901 80.9212 958.378 82.1392 960.366 82.1392ZM971.13 80.0909C971.135 81.2741 971.886 82.2834 973.283 82.2834C974.675 82.2834 975.44 81.2741 975.435 80.0909V79.554C975.44 78.3608 974.695 77.3615 973.283 77.3615C971.906 77.3615 971.135 78.3707 971.13 79.554V80.0909ZM965.955 74.2642C965.96 75.4474 966.71 76.4467 968.112 76.4467C969.499 76.4467 970.265 75.4574 970.26 74.2642V73.7273C970.265 72.5341 969.519 71.5348 968.112 71.5348C966.74 71.5348 965.96 72.5341 965.955 73.7273V74.2642ZM966.402 82H967.65L974.65 71.8182H973.402L966.402 82ZM972.428 79.554C972.433 79.027 972.656 78.495 973.283 78.495C973.939 78.495 974.133 79.027 974.128 79.554V80.0909C974.133 80.6179 973.919 81.1399 973.283 81.1399C972.646 81.1399 972.433 80.6129 972.428 80.0909V79.554ZM967.262 73.7273C967.267 73.2053 967.481 72.6683 968.112 72.6683C968.768 72.6683 968.957 73.2003 968.952 73.7273V74.2642C968.957 74.7912 968.749 75.3132 968.112 75.3132C967.476 75.3132 967.267 74.7912 967.262 74.2642V73.7273ZM980.73 77.8487C980.73 75.3679 980.069 73.3047 978.761 71.5348H977.066C978.075 72.8473 978.856 75.4922 978.856 77.8487C978.856 80.2102 978.075 82.8551 977.066 84.1676H978.761C980.069 82.3977 980.73 80.3295 980.73 77.8487Z" fill="white"/>
<path d="M983 89H592" stroke="url(#paint1_linear)" stroke-width="0.5"/>
<circle opacity="0.2" cx="387" cy="73" r="6" fill="white"/>
<circle cx="386.999" cy="73.0001" r="1.76471" fill="white"/>
<path opacity="0.88" d="M9.53764 58.6172H11.3125C11.2777 56.897 9.81108 55.679 7.64347 55.679C5.50568 55.679 3.89986 56.8821 3.90483 58.6818C3.90483 60.1435 4.94389 60.9837 6.61932 61.4162L7.7777 61.7145C8.87642 61.9929 9.60227 62.3359 9.60724 63.1264C9.60227 63.9964 8.77699 64.5781 7.57386 64.5781C6.42045 64.5781 5.52557 64.0611 5.45099 62.9922H3.63636C3.71094 65.0156 5.21733 66.1541 7.58878 66.1541C10.0298 66.1541 11.4467 64.9361 11.4517 63.1413C11.4467 61.3764 9.99006 60.571 8.45881 60.2081L7.50426 59.9695C6.66903 59.7706 5.7642 59.4176 5.77415 58.5675C5.77912 57.8018 6.4652 57.2401 7.61861 57.2401C8.71733 57.2401 9.44318 57.7521 9.53764 58.6172ZM16.3972 66.1491C18.177 66.1491 19.4 65.2791 19.7182 63.9517L18.0378 63.7628C17.7942 64.4091 17.1976 64.7472 16.4221 64.7472C15.2587 64.7472 14.4881 63.9815 14.4732 62.674H19.7928V62.1222C19.7928 59.4425 18.182 58.2642 16.3027 58.2642C14.1152 58.2642 12.6884 59.87 12.6884 62.2266C12.6884 64.6229 14.0953 66.1491 16.3972 66.1491ZM14.4782 61.4609C14.5328 60.4865 15.2537 59.6662 16.3276 59.6662C17.3617 59.6662 18.0577 60.4219 18.0676 61.4609H14.4782ZM23.1151 61.5256C23.1151 60.4219 23.7812 59.7855 24.7308 59.7855C25.6605 59.7855 26.2173 60.397 26.2173 61.4162V66H28.017V61.1378C28.022 59.3082 26.978 58.2642 25.402 58.2642C24.2585 58.2642 23.473 58.8111 23.125 59.6612H23.0355V58.3636H21.3153V66H23.1151V61.5256ZM33.6598 58.3636H32.1534V56.5341H30.3537V58.3636H29.2699V59.7557H30.3537V64.0014C30.3438 65.4382 31.3878 66.1442 32.7401 66.1044C33.2521 66.0895 33.6051 65.9901 33.799 65.9254L33.4957 64.5185C33.3963 64.5433 33.1925 64.5881 32.9688 64.5881C32.5163 64.5881 32.1534 64.429 32.1534 63.7031V59.7557H33.6598V58.3636ZM42.4508 58.3636H40.9444V56.5341H39.1447V58.3636H38.0609V59.7557H39.1447V64.0014C39.1348 65.4382 40.1788 66.1442 41.5311 66.1044C42.0431 66.0895 42.3961 65.9901 42.59 65.9254L42.2868 64.5185C42.1873 64.5433 41.9835 64.5881 41.7598 64.5881C41.3074 64.5881 40.9444 64.429 40.9444 63.7031V59.7557H42.4508V58.3636ZM47.2049 66.1491C49.4421 66.1491 50.864 64.5732 50.864 62.2116C50.864 59.8452 49.4421 58.2642 47.2049 58.2642C44.9677 58.2642 43.5458 59.8452 43.5458 62.2116C43.5458 64.5732 44.9677 66.1491 47.2049 66.1491ZM47.2148 64.7074C45.9769 64.7074 45.3704 63.6037 45.3704 62.2067C45.3704 60.8097 45.9769 59.6911 47.2148 59.6911C48.4329 59.6911 49.0394 60.8097 49.0394 62.2067C49.0394 63.6037 48.4329 64.7074 47.2148 64.7074ZM59.6774 58.3636H58.171V56.5341H56.3713V58.3636H55.2875V59.7557H56.3713V64.0014C56.3613 65.4382 57.4054 66.1442 58.7576 66.1044C59.2697 66.0895 59.6227 65.9901 59.8166 65.9254L59.5133 64.5185C59.4139 64.5433 59.21 64.5881 58.9863 64.5881C58.5339 64.5881 58.171 64.429 58.171 63.7031V59.7557H59.6774V58.3636ZM63.1463 61.5256C63.1463 60.4219 63.8324 59.7855 64.7969 59.7855C65.7415 59.7855 66.2983 60.3871 66.2983 61.4162V66H68.098V61.1378C68.098 59.2933 67.054 58.2642 65.468 58.2642C64.2947 58.2642 63.549 58.7962 63.196 59.6612H63.1065V55.8182H61.3466V66H63.1463V61.5256ZM73.3132 66.1491C75.093 66.1491 76.3161 65.2791 76.6342 63.9517L74.9538 63.7628C74.7102 64.4091 74.1136 64.7472 73.3381 64.7472C72.1747 64.7472 71.4041 63.9815 71.3892 62.674H76.7088V62.1222C76.7088 59.4425 75.098 58.2642 73.2188 58.2642C71.0312 58.2642 69.6044 59.87 69.6044 62.2266C69.6044 64.6229 71.0114 66.1491 73.3132 66.1491ZM71.3942 61.4609C71.4489 60.4865 72.1697 59.6662 73.2436 59.6662C74.2777 59.6662 74.9737 60.4219 74.9837 61.4609H71.3942ZM81.7836 66H83.628V62.2713H85.5073L87.5059 66H89.5641L87.3617 61.9631C88.5598 61.4808 89.1912 60.4567 89.1912 59.0746C89.1912 57.1307 87.9384 55.8182 85.6017 55.8182H81.7836V66ZM83.628 60.7401V57.3594H85.3184C86.6955 57.3594 87.312 57.9908 87.312 59.0746C87.312 60.1584 86.6955 60.7401 85.3283 60.7401H83.628ZM94.0808 66.1491C95.8606 66.1491 97.0836 65.2791 97.4018 63.9517L95.7214 63.7628C95.4778 64.4091 94.8812 64.7472 94.1056 64.7472C92.9423 64.7472 92.1717 63.9815 92.1568 62.674H97.4764V62.1222C97.4764 59.4425 95.8656 58.2642 93.9863 58.2642C91.7988 58.2642 90.372 59.87 90.372 62.2266C90.372 64.6229 91.7789 66.1491 94.0808 66.1491ZM92.1618 61.4609C92.2164 60.4865 92.9373 59.6662 94.0112 59.6662C95.0453 59.6662 95.7413 60.4219 95.7512 61.4609H92.1618ZM102.33 66.1491C104.249 66.1491 105.472 65.0107 105.601 63.3899H103.881C103.727 64.2102 103.135 64.6825 102.345 64.6825C101.221 64.6825 100.495 63.7429 100.495 62.1818C100.495 60.6406 101.236 59.7159 102.345 59.7159C103.21 59.7159 103.742 60.2727 103.881 61.0085H105.601C105.477 59.353 104.184 58.2642 102.32 58.2642C100.083 58.2642 98.6708 59.88 98.6708 62.2116C98.6708 64.5234 100.048 66.1491 102.33 66.1491ZM107.079 66H108.879V58.3636H107.079V66ZM107.984 57.2798C108.556 57.2798 109.023 56.8423 109.023 56.3054C109.023 55.7635 108.556 55.326 107.984 55.326C107.407 55.326 106.94 55.7635 106.94 56.3054C106.94 56.8423 107.407 57.2798 107.984 57.2798ZM114.11 66.1491C115.89 66.1491 117.113 65.2791 117.431 63.9517L115.751 63.7628C115.507 64.4091 114.911 64.7472 114.135 64.7472C112.972 64.7472 112.201 63.9815 112.186 62.674H117.506V62.1222C117.506 59.4425 115.895 58.2642 114.016 58.2642C111.828 58.2642 110.401 59.87 110.401 62.2266C110.401 64.6229 111.808 66.1491 114.11 66.1491ZM112.191 61.4609C112.246 60.4865 112.967 59.6662 114.04 59.6662C115.075 59.6662 115.771 60.4219 115.781 61.4609H112.191ZM119.028 68.8636H120.828V64.7969H120.903C121.186 65.3537 121.778 66.1342 123.09 66.1342C124.89 66.1342 126.237 64.7074 126.237 62.1918C126.237 59.6463 124.85 58.2642 123.085 58.2642C121.738 58.2642 121.176 59.0746 120.903 59.6264H120.798V58.3636H119.028V68.8636ZM120.793 62.1818C120.793 60.7003 121.43 59.7408 122.588 59.7408C123.786 59.7408 124.403 60.7599 124.403 62.1818C124.403 63.6136 123.776 64.6577 122.588 64.6577C121.439 64.6577 120.793 63.6634 120.793 62.1818ZM131.159 66.1491C132.939 66.1491 134.162 65.2791 134.48 63.9517L132.8 63.7628C132.556 64.4091 131.959 64.7472 131.184 64.7472C130.02 64.7472 129.25 63.9815 129.235 62.674H134.555V62.1222C134.555 59.4425 132.944 58.2642 131.064 58.2642C128.877 58.2642 127.45 59.87 127.45 62.2266C127.45 64.6229 128.857 66.1491 131.159 66.1491ZM129.24 61.4609C129.295 60.4865 130.015 59.6662 131.089 59.6662C132.123 59.6662 132.819 60.4219 132.829 61.4609H129.24ZM136.077 66H137.877V58.3636H136.077V66ZM136.982 57.2798C137.554 57.2798 138.021 56.8423 138.021 56.3054C138.021 55.7635 137.554 55.326 136.982 55.326C136.405 55.326 135.938 55.7635 135.938 56.3054C135.938 56.8423 136.405 57.2798 136.982 57.2798ZM141.527 61.5256C141.527 60.4219 142.193 59.7855 143.143 59.7855C144.073 59.7855 144.629 60.397 144.629 61.4162V66H146.429V61.1378C146.434 59.3082 145.39 58.2642 143.814 58.2642C142.671 58.2642 141.885 58.8111 141.537 59.6612H141.448V58.3636H139.727V66H141.527V61.5256ZM152.072 58.3636H150.566V56.5341H148.766V58.3636H147.682V59.7557H148.766V64.0014C148.756 65.4382 149.8 66.1442 151.152 66.1044C151.664 66.0895 152.017 65.9901 152.211 65.9254L151.908 64.5185C151.808 64.5433 151.605 64.5881 151.381 64.5881C150.928 64.5881 150.566 64.429 150.566 63.7031V59.7557H152.072V58.3636ZM154.025 61.8487C154.025 64.3295 154.686 66.3928 155.993 68.1626H157.689C156.679 66.8501 155.899 64.2053 155.899 61.8487C155.899 59.4872 156.679 56.8423 157.689 55.5298H155.993C154.686 57.2997 154.025 59.3679 154.025 61.8487ZM162.602 55.679C160.394 55.6641 158.928 57.1804 158.928 59.169C158.933 61.0881 160.3 62.4751 162.085 62.4751C163.183 62.4751 164.138 61.9432 164.63 61.0682H164.7C164.695 63.2457 163.904 64.5433 162.497 64.5433C161.617 64.5433 161.026 64.0362 160.842 63.2259H159.027C159.236 64.9112 160.568 66.1392 162.497 66.1392C164.938 66.1392 166.494 64.1009 166.49 60.5959C166.485 56.8871 164.556 55.6889 162.602 55.679ZM162.607 57.1705C163.695 57.1705 164.496 58.0753 164.496 59.1143C164.501 60.1683 163.661 61.0732 162.587 61.0732C161.503 61.0732 160.722 60.218 160.718 59.1293C160.718 58.0355 161.528 57.1705 162.607 57.1705ZM171.909 66.1939C174.365 66.1989 175.831 64.2599 175.831 60.919C175.831 57.598 174.355 55.679 171.909 55.679C169.463 55.679 167.991 57.593 167.986 60.919C167.986 64.255 169.453 66.1939 171.909 66.1939ZM171.909 64.6378C170.641 64.6378 169.845 63.3651 169.85 60.919C169.855 58.4929 170.646 57.2152 171.909 57.2152C173.176 57.2152 173.967 58.4929 173.972 60.919C173.972 63.3651 173.181 64.6378 171.909 64.6378ZM182.927 64.0909C182.932 65.2741 183.683 66.2834 185.08 66.2834C186.472 66.2834 187.237 65.2741 187.232 64.0909V63.554C187.237 62.3608 186.491 61.3615 185.08 61.3615C183.702 61.3615 182.932 62.3707 182.927 63.554V64.0909ZM177.751 58.2642C177.756 59.4474 178.507 60.4467 179.909 60.4467C181.296 60.4467 182.062 59.4574 182.057 58.2642V57.7273C182.062 56.5341 181.316 55.5348 179.909 55.5348C178.537 55.5348 177.756 56.5341 177.751 57.7273V58.2642ZM178.199 66H179.447L186.447 55.8182H185.199L178.199 66ZM184.224 63.554C184.229 63.027 184.453 62.495 185.08 62.495C185.736 62.495 185.93 63.027 185.925 63.554V64.0909C185.93 64.6179 185.716 65.1399 185.08 65.1399C184.443 65.1399 184.229 64.6129 184.224 64.0909V63.554ZM179.059 57.7273C179.064 57.2053 179.278 56.6683 179.909 56.6683C180.565 56.6683 180.754 57.2003 180.749 57.7273V58.2642C180.754 58.7912 180.545 59.3132 179.909 59.3132C179.273 59.3132 179.064 58.7912 179.059 58.2642V57.7273ZM192.527 61.8487C192.527 59.3679 191.866 57.3047 190.558 55.5348H188.863C189.872 56.8473 190.653 59.4922 190.653 61.8487C190.653 64.2102 189.872 66.8551 188.863 68.1676H190.558C191.866 66.3977 192.527 64.3295 192.527 61.8487Z" fill="white"/>
<path d="M3 73H387" stroke="url(#paint2_linear)" stroke-width="0.5"/>
<defs>
<linearGradient id="paint0_linear" x1="983" y1="138" x2="624.5" y2="138" gradientUnits="userSpaceOnUse">
<stop stop-color="white" stop-opacity="0"/>
<stop offset="1" stop-color="white"/>
</linearGradient>
<linearGradient id="paint1_linear" x1="983" y1="89" x2="592" y2="89" gradientUnits="userSpaceOnUse">
<stop stop-color="white" stop-opacity="0"/>
<stop offset="1" stop-color="white"/>
</linearGradient>
<linearGradient id="paint2_linear" x1="195" y1="73" x2="3" y2="73" gradientUnits="userSpaceOnUse">
<stop stop-color="white"/>
<stop offset="1" stop-color="white" stop-opacity="0"/>
</linearGradient>
</defs>
</svg>
